SplineFontDB: 3.2
FontName: Camino-Icons
FullName: Camino Icons
FamilyName: Camino
Weight: Regular
Copyright: Copyright (c) 2023, Doug Palmer
UComments: "Icons for the Camino Planner application.+AAoACgAA-This contaions glyphs for location types, accommodation types and options, services and other information useful to a pilgrim.+AAoACgAA-2023-10-22: Created with FontForge (http://fontforge.org)"
Version: 001.000
ItalicAngle: 0
UnderlinePosition: -102
UnderlineWidth: 51
Ascent: 819
Descent: 205
InvalidEm: 0
woffMajor: 0
woffMinor: 1
LayerCount: 2
Layer: 0 0 "Back" 1
Layer: 1 0 "Fore" 0
XUID: [1021 63 -543047022 12103783]
StyleMap: 0x0000
FSType: 0
OS2Version: 0
OS2_WeightWidthSlopeOnly: 0
OS2_UseTypoMetrics: 1
CreationTime: 1697952621
ModificationTime: 1714344670
PfmFamily: 17
TTFWeight: 400
TTFWidth: 5
LineGap: 92
VLineGap: 92
OS2TypoAscent: 0
OS2TypoAOffset: 1
OS2TypoDescent: 0
OS2TypoDOffset: 1
OS2TypoLinegap: 92
OS2WinAscent: 0
OS2WinAOffset: 1
OS2WinDescent: 0
OS2WinDOffset: 1
HheadAscent: 0
HheadAOffset: 1
HheadDescent: 0
HheadDOffset: 1
OS2Vendor: 'PfEd'
MarkAttachClasses: 1
DEI: 91125
LangName: 1033
Encoding: UnicodeFull
UnicodeInterp: none
NameList: AGL For New Fonts
DisplaySize: -48
AntiAlias: 1
FitToEm: 0
WidthSeparation: 10
WinInfo: 57280 32 8
BeginPrivate: 0
EndPrivate
TeXData: 1 0 0 346030 173015 115343 787679 1048576 115343 783286 444596 497025 792723 393216 433062 380633 303038 157286 324010 404750 52429 2506097 1059062 262144
BeginChars: 1114112 97

StartChar: poi
Encoding: 57344 57344 0
Width: 672
VWidth: 1363
Flags: W
LayerCount: 2
Fore
SplineSet
295 862 m 1
 307 864 322 865 337 865 c 0
 352 865 366 864 378 862 c 0
 528 844 648 727 666 579 c 0
 668 567 667 553 667 538 c 0
 667 523 668 508 666 496 c 0
 652 390 587 297 491 247 c 0
 471 237 449 214 443 192 c 2
 348 -167 l 0
 346 -171 341 -174 337 -174 c 0
 333 -174 329 -171 327 -167 c 2
 233 192 l 2
 227 214 205 237 185 247 c 0
 89 297 21 390 7 496 c 0
 5 508 5 523 5 538 c 0
 5 553 5 567 7 579 c 0
 25 727 145 844 295 862 c 1
EndSplineSet
Validated: 33
EndChar

StartChar: house
Encoding: 57360 57360 1
Width: 1081
VWidth: 1347
Flags: W
HStem: -201 1<147.001 374.071 708.001 935.394> 158 1<449.018 632.071> 384 2<17.9648 75.1713 1007.88 1062.49>
VStem: 109.527 1<-160.774 345.995> 410.527 2<-163.484 122.298> 670.527 1<-160.774 119.544> 971.527 2<-162.688 348.298>
LayerCount: 2
Fore
SplineSet
1057.52734375 384 m 2
 1073.52734375 384 1082.52734375 406 1070.52734375 418 c 2
 574.52734375 944 l 2
 565.52734375 953 554.52734375 957 542.52734375 957 c 1
 554.52734375 957 564.52734375 952 572.52734375 944 c 2
 1069.52734375 417 l 1
 1084.52734375 388 1059.52734375 387 1057.52734375 387 c 2
 1015.52734375 387 l 2
 991.52734375 387 970.52734375 366 970.52734375 340 c 2
 970.52734375 -154 l 2
 970.52734375 -178 952.52734375 -200 928.52734375 -200 c 2
 713.52734375 -200 l 2
 689.52734375 -200 671.52734375 -178 671.52734375 -154 c 2
 671.52734375 114 l 2
 671.52734375 141 647.52734375 159 626.52734375 159 c 2
 454.52734375 159 l 2
 433.52734375 159 410.52734375 140 410.52734375 114 c 2
 410.52734375 -154 l 2
 410.52734375 -178 392.52734375 -200 368.52734375 -200 c 2
 152.52734375 -200 l 2
 128.52734375 -200 110.52734375 -178 110.52734375 -154 c 2
 110.52734375 340 l 2
 110.52734375 366 88.52734375 386 67.52734375 386 c 2
 23.52734375 386 l 2
 7.52734375 386 0.52734375 407 10.52734375 417 c 2
 512.52734375 944 l 2
 518.52734375 950 527.52734375 955 536.52734375 957 c 1
 535.52734375 957 522.52734375 955 511.52734375 944 c 2
 10.52734375 418 l 2
 -1.47265625 406 7.52734375 384 23.52734375 384 c 2
 67.52734375 384 l 2
 91.52734375 384 109.52734375 364 109.52734375 340 c 2
 109.52734375 -154 l 2
 109.52734375 -180 128.52734375 -201 152.52734375 -201 c 2
 368.52734375 -201 l 2
 392.52734375 -201 412.52734375 -180 412.52734375 -154 c 2
 412.52734375 114 l 2
 412.52734375 138 430.52734375 158 454.52734375 158 c 2
 626.52734375 158 l 2
 650.52734375 158 670.52734375 138 670.52734375 114 c 2
 670.52734375 -154 l 2
 670.52734375 -180 689.52734375 -201 713.52734375 -201 c 2
 928.52734375 -201 l 2
 938.52734375 -201 947.52734375 -198 955.52734375 -192 c 1
 947.52734375 -198 937.52734375 -200 928.52734375 -200 c 2
 713.52734375 -200 l 2
 692.52734375 -200 671.52734375 -184 671.52734375 -154 c 2
 671.52734375 114 l 2
 671.52734375 140 650.52734375 160 626.52734375 160 c 2
 454.52734375 160 l 2
 430.52734375 160 410.52734375 140 410.52734375 114 c 2
 410.52734375 -154 l 2
 410.52734375 -184 389.52734375 -200 368.52734375 -200 c 2
 152.52734375 -200 l 2
 131.52734375 -200 110.52734375 -184 110.52734375 -154 c 2
 110.52734375 340 l 2
 110.52734375 366 91.52734375 387 67.52734375 387 c 2
 23.52734375 387 l 2
 8.52734375 387 1.52734375 407 11.52734375 417 c 2
 512.52734375 942 l 2
 521.52734375 951 532.52734375 956 542.52734375 956 c 0
 552.52734375 956 564.52734375 951 572.52734375 942 c 2
 1069.52734375 417 l 2
 1071.52734375 415 1073.52734375 413 1073.52734375 410 c 0
 1079.52734375 395 1065.52734375 386 1057.52734375 386 c 2
 1015.52734375 386 l 2
 994.52734375 386 971.52734375 366 971.52734375 340 c 2
 971.52734375 -154 l 2
 971.52734375 -161 971.52734375 -168 969.52734375 -174 c 1
 971.52734375 -168 973.52734375 -160 973.52734375 -154 c 2
 973.52734375 340 l 2
 973.52734375 364 991.52734375 384 1015.52734375 384 c 2
 1057.52734375 384 l 2
969.52734375 -174 m 1
 968.52734375 -177 966.52734375 -180 965.52734375 -182 c 1
 966.52734375 -180 968.52734375 -177 969.52734375 -174 c 1
EndSplineSet
Validated: 37
EndChar

StartChar: house_chimney
Encoding: 57361 57361 2
Width: 1075
VWidth: 1341
Flags: W
HStem: -194 1<147.214 372.268 704.214 929.268> 168 1<447.214 629.268> 396 1<20.1396 72.268 1004.21 1054.39> 852 1<812.351 816.741 901.741 906.132>
VStem: 108.741 1<-152.995 358.862> 409.741 1<-152.995 130.862> 665.741 1<-152.995 130.862> 793.741 1<721 833.721> 923.741 1<580 833.721> 966.741 1<-152.995 358.862>
LayerCount: 2
Fore
SplineSet
510.741210938 958 m 2
 526.741210938 975 552.741210938 976 569.741210938 958 c 0
 794.741210938 717 794.741210938 717 794.741210938 717 c 0
 795.741210938 717 795.741210938 717 795.741210938 718 c 2
 795.741210938 829 l 2
 795.741210938 841 805.741210938 851 816.741210938 851 c 2
 901.741210938 851 l 2
 912.741210938 851 922.741210938 841 922.741210938 829 c 0
 922.741210938 580 922.741210938 579 922.741210938 579 c 2
 1062.74121094 429 l 2
 1073.74121094 418 1065.74121094 398 1050.74121094 398 c 2
 1009.74121094 398 l 2
 985.741210938 398 965.741210938 378 965.741210938 352 c 2
 965.741210938 -147 l 2
 965.741210938 -172 946.741210938 -192 923.741210938 -192 c 2
 709.741210938 -192 l 2
 686.741210938 -192 667.741210938 -172 667.741210938 -147 c 2
 667.741210938 124 l 2
 667.741210938 150 647.741210938 170 623.741210938 170 c 2
 452.741210938 170 l 2
 428.741210938 170 408.741210938 150 408.741210938 124 c 2
 408.741210938 -147 l 2
 408.741210938 -172 389.741210938 -192 366.741210938 -192 c 2
 152.741210938 -192 l 2
 129.741210938 -192 110.741210938 -172 110.741210938 -147 c 2
 110.741210938 352 l 2
 110.741210938 378 90.7412109375 398 66.7412109375 398 c 2
 23.7412109375 398 l 2
 8.7412109375 398 1.7412109375 418 12.7412109375 429 c 2
 510.741210938 958 l 2
10.7412109375 430 m 2
 -1.2587890625 417 6.7412109375 396 23.7412109375 396 c 2
 66.7412109375 396 l 2
 89.7412109375 396 108.741210938 377 108.741210938 352 c 2
 108.741210938 -147 l 2
 108.741210938 -173 128.741210938 -194 152.741210938 -194 c 2
 366.741210938 -194 l 2
 390.741210938 -194 410.741210938 -173 410.741210938 -147 c 2
 410.741210938 124 l 2
 410.741210938 149 429.741210938 168 452.741210938 168 c 2
 623.741210938 168 l 2
 646.741210938 168 665.741210938 149 665.741210938 124 c 2
 665.741210938 -147 l 2
 665.741210938 -173 685.741210938 -194 709.741210938 -194 c 2
 923.741210938 -194 l 2
 947.741210938 -194 967.741210938 -173 967.741210938 -147 c 2
 967.741210938 352 l 2
 967.741210938 377 986.741210938 396 1009.74121094 396 c 2
 1050.74121094 396 l 2
 1067.74121094 396 1076.74121094 417 1064.74121094 430 c 2
 924.741210938 580 l 1
 924.741210938 829 l 2
 924.741210938 842 913.741210938 853 901.741210938 853 c 2
 816.741210938 853 l 2
 804.741210938 853 793.741210938 842 793.741210938 829 c 2
 793.741210938 721 l 1
 570.741210938 960 l 2
 553.741210938 978 526.741210938 979 508.741210938 960 c 0
 10.7412109375 430 10.7412109375 430 10.7412109375 430 c 2
528.741210938 971 m 0
 532.741210938 972 535.741210938 972 539.741210938 972 c 0
 551.741210938 972 562.741210938 967 570.741210938 959 c 2
 794.741210938 718 l 1
 794.741210938 829 l 0
 794.741210938 842 804.741210938 852 816.741210938 852 c 2
 901.741210938 852 l 0
 913.741210938 852 923.741210938 842 923.741210938 829 c 2
 923.741210938 580 l 1
 1063.74121094 429 l 1
 1066.74121094 426 1068.74121094 421 1068.74121094 416 c 0
 1068.74121094 406 1060.74121094 397 1050.74121094 397 c 2
 1009.74121094 397 l 1
 985.741210938 397 966.741210938 377 966.741210938 352 c 2
 966.741210938 -147 l 1
 966.741210938 -172 947.741210938 -193 923.741210938 -193 c 2
 709.741210938 -193 l 0
 685.741210938 -193 666.741210938 -172 666.741210938 -147 c 2
 666.741210938 124 l 1
 666.741210938 149 647.741210938 169 623.741210938 169 c 2
 452.741210938 169 l 0
 428.741210938 169 409.741210938 149 409.741210938 124 c 2
 409.741210938 -147 l 1
 409.741210938 -172 390.741210938 -193 366.741210938 -193 c 2
 152.741210938 -193 l 1
 128.741210938 -193 109.741210938 -172 109.741210938 -147 c 2
 109.741210938 352 l 1
 109.741210938 377 90.7412109375 397 66.7412109375 397 c 2
 23.7412109375 397 l 1
 13.7412109375 397 6.7412109375 406 6.7412109375 416 c 0
 6.7412109375 421 8.7412109375 426 11.7412109375 429 c 2
 509.741210938 959 l 1
 514.741210938 965 521.741210938 969 528.741210938 971 c 0
EndSplineSet
Validated: 41
EndChar

StartChar: house_windows
Encoding: 57362 57362 3
Width: 1123
VWidth: 1344
Flags: W
HStem: -193 1<427.706 433.467 690.945 964.706> -190 1<153.945 195.782 696.706 970.467> 55 1<266.358 270.706 360.706 365.054 760.315 764.706 853.706 858.097> 166 1<512.162 613.233> 278 1<266.358 365.054 760.315 858.097> 390 2<18.7744 78.4873 1045.92 1104.64>
VStem: 113.706 1<-149.761 352.527> 248.706 1<72.6523 261.348> 381.706 1<72.6523 261.348> 472.706 1<-152.761 127.544> 650.706 1<-152.761 127.761> 741.706 1<72.6523 261.348> 875.706 1<72.6523 261.348> 1009.71 1<-149.761 352.527>
LayerCount: 2
Fore
SplineSet
270.706054688 278 m 2
 360.706054688 278 l 2
 372.706054688 278 381.706054688 269 381.706054688 257 c 2
 381.706054688 77 l 2
 381.706054688 65 372.706054688 56 360.706054688 56 c 2
 270.706054688 56 l 2
 258.706054688 56 249.706054688 65 249.706054688 77 c 2
 249.706054688 257 l 2
 249.706054688 269 258.706054688 278 270.706054688 278 c 2
270.706054688 280 m 2
 257.706054688 280 247.706054688 270 247.706054688 257 c 2
 247.706054688 77 l 2
 247.706054688 64 257.706054688 54 270.706054688 54 c 2
 360.706054688 54 l 2
 373.706054688 54 383.706054688 64 383.706054688 77 c 2
 383.706054688 257 l 2
 383.706054688 270 373.706054688 280 360.706054688 280 c 2
 270.706054688 280 l 2
764.706054688 278 m 2
 853.706054688 278 l 2
 865.706054688 278 875.706054688 269 875.706054688 257 c 2
 875.706054688 77 l 2
 875.706054688 65 865.706054688 56 853.706054688 56 c 2
 764.706054688 56 l 2
 752.706054688 56 742.706054688 65 742.706054688 77 c 2
 742.706054688 257 l 2
 742.706054688 269 752.706054688 278 764.706054688 278 c 2
764.706054688 280 m 2
 751.706054688 280 740.706054688 270 740.706054688 257 c 2
 740.706054688 77 l 2
 740.706054688 64 751.706054688 54 764.706054688 54 c 2
 853.706054688 54 l 2
 866.706054688 54 877.706054688 64 877.706054688 77 c 2
 877.706054688 257 l 2
 877.706054688 270 866.706054688 280 853.706054688 280 c 2
 764.706054688 280 l 2
533.706054688 944 m 2
 549.706054688 960 576.706054688 962 594.706054688 944 c 2
 1110.70605469 423 l 2
 1121.70605469 412 1114.70605469 393 1098.70605469 393 c 2
 1054.70605469 393 l 2
 1029.70605469 393 1008.70605469 372 1008.70605469 347 c 2
 1008.70605469 -144 l 2
 1008.70605469 -168 988.706054688 -188 964.706054688 -188 c 2
 696.706054688 -191 l 2
 672.706054688 -191 652.706054688 -171 652.706054688 -147 c 2
 652.706054688 122 l 2
 652.706054688 147 632.706054688 168 607.706054688 168 c 2
 517.706054688 168 l 2
 492.706054688 168 471.706054688 147 471.706054688 122 c 2
 471.706054688 -147 l 2
 471.706054688 -171 451.706054688 -191 427.706054688 -191 c 0
 158.706054688 -189 159.706054688 -188 159.706054688 -188 c 2
 135.706054688 -188 115.706054688 -168 115.706054688 -144 c 2
 115.706054688 347 l 2
 115.706054688 372 94.7060546875 393 69.7060546875 393 c 2
 24.7060546875 393 l 2
 8.7060546875 393 1.7060546875 412 12.7060546875 423 c 2
 533.706054688 944 l 2
10.7060546875 424 m 2
 -1.2939453125 412 6.7060546875 390 24.7060546875 390 c 2
 69.7060546875 390 l 2
 93.7060546875 390 113.706054688 371 113.706054688 347 c 2
 113.706054688 -144 l 2
 113.706054688 -169 134.706054688 -190 159.706054688 -190 c 0
 428.706054688 -192 427.706054688 -193 427.706054688 -193 c 2
 452.706054688 -193 473.706054688 -172 473.706054688 -147 c 2
 473.706054688 122 l 2
 473.706054688 146 493.706054688 166 517.706054688 166 c 2
 607.706054688 166 l 2
 631.706054688 166 650.706054688 146 650.706054688 122 c 2
 650.706054688 -147 l 2
 650.706054688 -172 671.706054688 -193 696.706054688 -193 c 1
 964.706054688 -190 l 2
 989.706054688 -190 1010.70605469 -169 1010.70605469 -144 c 2
 1010.70605469 347 l 2
 1010.70605469 371 1030.70605469 390 1054.70605469 390 c 2
 1098.70605469 390 l 2
 1116.70605469 390 1124.70605469 412 1112.70605469 424 c 2
 596.706054688 945 l 2
 579.706054688 962 549.706054688 965 531.706054688 946 c 2
 10.7060546875 424 l 2
552.706054688 956 m 0
 567.706054688 960 584.706054688 956 595.706054688 945 c 2
 1111.70605469 423 l 2
 1123.70605469 411 1115.70605469 392 1098.70605469 392 c 2
 1054.70605469 392 l 2
 1029.70605469 392 1009.70605469 372 1009.70605469 347 c 2
 1009.70605469 -144 l 2
 1009.70605469 -169 989.706054688 -189 964.706054688 -189 c 2
 696.706054688 -192 l 2
 671.706054688 -192 651.706054688 -172 651.706054688 -147 c 2
 651.706054688 122 l 2
 651.706054688 147 632.706054688 167 607.706054688 167 c 2
 517.706054688 167 l 2
 492.706054688 167 472.706054688 147 472.706054688 122 c 2
 472.706054688 -147 l 2
 472.706054688 -172 452.706054688 -192 427.706054688 -192 c 2
 159.706054688 -189 l 2
 134.706054688 -189 114.706054688 -169 114.706054688 -144 c 2
 114.706054688 347 l 2
 114.706054688 372 94.7060546875 392 69.7060546875 392 c 2
 24.7060546875 392 l 2
 7.7060546875 392 -0.2939453125 411 11.7060546875 423 c 2
 532.706054688 945 l 2
 538.706054688 951 544.706054688 954 552.706054688 956 c 0
764.706054688 279 m 2
 752.706054688 279 741.706054688 269 741.706054688 257 c 2
 741.706054688 77 l 2
 741.706054688 65 752.706054688 55 764.706054688 55 c 2
 853.706054688 55 l 2
 865.706054688 55 876.706054688 65 876.706054688 77 c 2
 876.706054688 257 l 2
 876.706054688 269 865.706054688 279 853.706054688 279 c 2
 764.706054688 279 l 2
270.706054688 279 m 2
 258.706054688 279 248.706054688 269 248.706054688 257 c 2
 248.706054688 77 l 2
 248.706054688 65 258.706054688 55 270.706054688 55 c 2
 360.706054688 55 l 2
 372.706054688 55 382.706054688 65 382.706054688 77 c 2
 382.706054688 257 l 2
 382.706054688 269 372.706054688 279 360.706054688 279 c 2
 270.706054688 279 l 2
EndSplineSet
Validated: 41
EndChar

StartChar: hotel
Encoding: 57363 57363 4
Width: 920
VWidth: 1356
Flags: W
HStem: -192 2<44.8789 264.078 660.922 881.035> 45 1<354.609 567.434> 94 2<353.552 359 563 569.048> 136 2<330.922 595.035> 208 2<106.625 252.382 389.552 534.448 671.683 816.448> 417 1<108.355 250.73 391.312 532.73 673.312 814.73> 458 1<111.355 253.688 393.355 535.688 677.27 817.688> 666 2<109.683 255.382 391.683 537.382 675.552 819.382> 802 2<38.9648 47 867 875.035> 822 2<42.8945 881.121> 910 2<42.8945 51 873 880.866>
VStem: 5 2<-150 770.035> 9 1<858.889 875.111> 93 1<226.145 402.137> 95 2<472.187 651.97> 267 1<226.27 401.688> 269 2<472.683 651.514> 297 1<-155.076 103.042> 337 2<60.1088 79.448> 375 1<226.27 401.688> 377 2<472.187 651.97> 549 1<226.27 401.688> 551 2<472.683 651.514> 585 1<62.178 77.7606> 627 1<-155.076 104.021> 657 1<226.27 401.688> 659 2<472.683 651.448> 831 1<226.27 401.688> 833 2<472.683 651.448> 907 2<-150 770.035> 913 2<-158.035 762 855.879 877.272>
LayerCount: 2
Fore
SplineSet
10 870 m 0
 10 892 29 909 51 909 c 2
 873 909 l 2
 895 909 911 892 911 870 c 0
 911 870 911 870 911 864 c 0
 911 842 895 824 873 824 c 2
 51 824 l 2
 29 824 10 842 10 864 c 0
 10 864 10 864 10 870 c 0
915 868 m 0
 915 898 891 912 873 912 c 2
 51 912 l 2
 29 912 9 892 9 870 c 0
 9 867 9 866 9 864 c 0
 9 842 29 822 51 822 c 2
 873 822 l 2
 895 822 915 842 915 864 c 2
 915 864 915 866 915 868 c 0
51 910 m 2
 873 910 l 2
 883 910 893 906 901 898 c 0
 909 890 913 880 913 870 c 1
 913 864 l 2
 913 854 909 844 901 836 c 0
 893 828 883 824 873 824 c 1
 51 824 l 2
 41 824 30 828 22 836 c 0
 14 844 10 854 10 864 c 1
 10 870 l 2
 10 880 14 890 22 898 c 0
 30 906 41 910 51 910 c 2
677 417 m 2
 811 417 l 2
 821 417 831 408 831 398 c 2
 831 230 l 2
 831 220 821 210 811 210 c 2
 677 210 l 2
 667 210 658 220 658 230 c 2
 658 398 l 2
 658 408 667 417 677 417 c 2
677 420 m 2
 665 420 657 410 657 398 c 2
 657 230 l 2
 657 218 665 208 677 208 c 2
 811 208 l 2
 823 208 833 218 833 230 c 2
 833 398 l 2
 833 410 823 420 811 420 c 2
 677 420 l 2
395 417 m 2
 529 417 l 2
 539 417 549 408 549 398 c 2
 549 230 l 2
 549 220 539 210 529 210 c 2
 395 210 l 2
 385 210 376 220 376 230 c 2
 376 398 l 2
 376 408 385 417 395 417 c 2
395 420 m 2
 383 420 373 410 373 398 c 2
 373 230 l 2
 373 218 383 208 395 208 c 2
 529 208 l 2
 541 208 551 218 551 230 c 2
 551 398 l 2
 551 410 541 420 529 420 c 2
 395 420 l 2
112 417 m 2
 247 417 l 2
 257 417 267 408 267 398 c 2
 267 230 l 2
 267 220 257 210 247 210 c 2
 112 210 l 2
 102 210 94 220 94 230 c 2
 94 398 l 2
 94 408 102 417 112 417 c 2
112 420 m 2
 100 420 91 410 91 398 c 2
 91 230 l 2
 91 218 100 208 112 208 c 2
 247 208 l 2
 259 208 268 218 268 230 c 2
 268 398 l 2
 268 410 259 420 247 420 c 2
 112 420 l 2
681 666 m 2
 814 666 l 2
 824 666 833 656 833 646 c 2
 833 478 l 2
 833 468 824 459 814 459 c 2
 681 459 l 2
 671 459 661 468 661 478 c 2
 661 646 l 2
 661 656 671 666 681 666 c 2
681 669 m 2
 669 669 658 658 658 646 c 2
 658 478 l 2
 658 466 669 458 681 458 c 2
 814 458 l 2
 826 458 837 466 837 478 c 2
 837 646 l 2
 837 658 826 669 814 669 c 2
 681 669 l 2
397 666 m 2
 532 666 l 2
 542 666 551 656 551 646 c 2
 551 478 l 2
 551 468 542 459 532 459 c 2
 397 459 l 2
 387 459 379 468 379 478 c 2
 379 646 l 2
 379 656 387 666 397 666 c 2
397 669 m 2
 385 669 376 658 376 646 c 2
 376 478 l 2
 376 466 385 458 397 458 c 2
 532 458 l 2
 544 458 553 466 553 478 c 2
 553 646 l 2
 553 658 544 669 532 669 c 2
 397 669 l 2
115 666 m 2
 250 666 l 2
 260 666 269 656 269 646 c 2
 269 478 l 2
 269 468 260 459 250 459 c 2
 115 459 l 2
 105 459 97 468 97 478 c 2
 97 646 l 2
 97 656 105 666 115 666 c 2
115 669 m 2
 103 669 94 658 94 646 c 2
 94 478 l 2
 94 466 103 458 115 458 c 2
 250 458 l 2
 262 458 271 466 271 478 c 2
 271 646 l 2
 271 658 262 669 250 669 c 2
 115 669 l 2
47 801 m 2
 867 801 l 2
 889 801 905 784 905 762 c 2
 911 -150 l 2
 911 -172 895 -190 873 -190 c 2
 669 -190 l 2
 647 -190 629 -172 629 -150 c 2
 629 98 l 2
 629 120 609 140 587 140 c 2
 339 140 l 2
 317 140 297 120 297 98 c 2
 297 -150 l 2
 297 -172 278 -190 256 -190 c 2
 53 -190 l 2
 31 -190 13 -172 13 -150 c 2
 7 762 l 2
 7 784 25 801 47 801 c 2
47 804 m 2
 25 804 5 784 5 762 c 0
 11 -150 11 -150 11 -150 c 2
 11 -172 31 -192 53 -192 c 2
 256 -192 l 2
 278 -192 298 -172 298 -150 c 2
 298 98 l 2
 298 120 317 136 339 136 c 2
 587 136 l 2
 609 136 627 120 627 98 c 2
 627 -150 l 2
 627 -172 647 -192 669 -192 c 2
 873 -192 l 2
 895 -192 915 -172 915 -150 c 0
 909 762 909 762 909 762 c 2
 909 784 889 804 867 804 c 2
 47 804 l 2
47 802 m 2
 867 802 l 2
 889 802 907 784 907 762 c 2
 913 -150 l 2
 913 -172 895 -190 873 -190 c 2
 669 -190 l 2
 647 -190 628 -172 628 -150 c 2
 628 98 l 2
 628 120 609 138 587 138 c 2
 339 138 l 2
 317 138 297 120 297 98 c 2
 297 -150 l 2
 297 -172 278 -190 256 -190 c 2
 53 -190 l 2
 31 -190 11 -172 11 -150 c 2
 7 762 l 2
 7 784 25 802 47 802 c 2
115 668 m 2
 103 668 95 658 95 646 c 2
 95 478 l 2
 95 466 103 458 115 458 c 2
 250 458 l 2
 262 458 271 466 271 478 c 2
 271 646 l 2
 271 658 262 668 250 668 c 2
 115 668 l 2
397 668 m 2
 385 668 377 658 377 646 c 2
 377 478 l 2
 377 466 385 458 397 458 c 2
 532 458 l 2
 544 458 553 466 553 478 c 2
 553 646 l 2
 553 658 544 668 532 668 c 2
 397 668 l 2
681 668 m 2
 669 668 659 658 659 646 c 2
 659 478 l 2
 659 466 669 458 681 458 c 2
 814 458 l 2
 826 458 835 466 835 478 c 2
 835 646 l 2
 835 658 826 668 814 668 c 2
 681 668 l 2
112 418 m 2
 100 418 93 410 93 398 c 2
 93 230 l 2
 93 218 100 208 112 208 c 2
 247 208 l 2
 259 208 268 218 268 230 c 2
 268 398 l 2
 268 410 259 418 247 418 c 2
 112 418 l 2
395 418 m 2
 383 418 375 410 375 398 c 2
 375 230 l 2
 375 218 383 208 395 208 c 2
 529 208 l 2
 541 208 550 218 550 230 c 2
 550 398 l 2
 550 410 541 418 529 418 c 2
 395 418 l 2
677 418 m 2
 665 418 657 410 657 398 c 2
 657 230 l 2
 657 218 665 208 677 208 c 2
 811 208 l 2
 823 208 832 218 832 230 c 2
 832 398 l 2
 832 410 823 418 811 418 c 2
 677 418 l 2
340 74 m 2
 340 84 349 93 359 93 c 2
 563 93 l 2
 573 93 583 84 583 74 c 2
 583 66 l 2
 583 56 573 46 563 46 c 2
 359 46 l 2
 349 46 340 56 340 66 c 2
 340 74 l 2
586 74 m 2
 586 86 575 96 563 96 c 2
 359 96 l 2
 347 96 337 86 337 74 c 2
 337 66 l 2
 337 54 347 45 359 45 c 2
 563 45 l 2
 575 45 586 54 586 66 c 2
 586 74 l 2
359 94 m 2
 563 94 l 2
 567 94 575 92 579 88 c 0
 583 84 585 78 585 74 c 1
 585 66 l 2
 585 62 583 55 579 51 c 0
 575 47 567 46 563 46 c 1
 359 46 l 2
 355 46 349 47 345 51 c 0
 341 55 339 62 339 66 c 1
 339 74 l 2
 339 78 341 84 345 88 c 0
 349 92 355 94 359 94 c 2
EndSplineSet
Validated: 5
EndChar

StartChar: church
Encoding: 57364 57364 5
Width: 1077
VWidth: 1379
Flags: W
HStem: -157 145<553 631 695 773 838 914> 182 98<563.702 620.298 705.702 762.298 847.843 903.298>
VStem: 5 228<-154.188 -50> 631 64<-12 143> 773 65<-12 143> 914 158<-12 143>
LayerCount: 2
Fore
SplineSet
292 784 m 0
 294 784 294 785 296 785 c 0
 300 785 303 782 305 778 c 2
 433 314 l 1
 439 294 456 280 478 280 c 2
 938 280 l 1
 962 280 985 270 1001 254 c 2
 1046 208 l 0
 1062 192 1072 170 1072 146 c 2
 1072 -121 l 1
 1072 -141 1056 -157 1036 -157 c 2
 347 -157 l 1
 347 -50 l 1
 347 -50 317 -12 290 -12 c 0
 263 -12 233 -50 233 -50 c 1
 233 -157 l 1
 41 -157 l 1
 21 -157 5 -141 5 -121 c 2
 5 146 l 1
 5 170 15 192 31 208 c 2
 77 254 l 0
 86 268 99 277 115 280 c 0
 137 280 155 294 161 314 c 2
 287 778 l 0
 289 781 289 782 292 784 c 0
592 182 m 0
 574 182 553 143 553 143 c 1
 553 -12 l 1
 631 -12 l 1
 631 143 l 1
 631 143 610 182 592 182 c 0
734 182 m 0
 716 182 695 143 695 143 c 1
 695 -12 l 1
 773 -12 l 1
 773 143 l 1
 773 143 752 182 734 182 c 0
875 182 m 0
 857 182 838 143 838 143 c 1
 838 -12 l 1
 914 -12 l 1
 914 143 l 1
 914 143 893 182 875 182 c 0
EndSplineSet
Validated: 1
EndChar

StartChar: building_1
Encoding: 57365 57365 6
Width: 608
VWidth: 1345
Flags: W
HStem: -191 275<118.065 266.935 345.072 494.922> 232 50<118.116 266.884 345.127 494.862> 432 49<118.116 266.884 345.127 494.862> 631 49<118.271 262.451 345.185 490.465> 830 125<113.078 262.928 341.078 490.928>
VStem: 5 113<84.0653 231.935 282.072 431.935 481.072 630.935 680 830> 267 78<84.1157 231.884 282.127 431.884 481.127 630.884 681.013 829.144> 495 108<84.2587 231.741 282.283 431.741 481.283 630.741 681.013 829.144>
LayerCount: 2
Fore
SplineSet
55 955 m 2
 553 955 l 0
 580 955 603 933 603 906 c 2
 603 -142 l 1
 603 -169 580 -191 553 -191 c 2
 55 -191 l 1
 28 -191 5 -169 5 -142 c 2
 5 906 l 0
 5 933 28 955 55 955 c 2
139 830 m 2
 125 830 113 820 113 806 c 2
 113 706 l 1
 113 692 125 680 139 680 c 2
 238 680 l 1
 252 680 263 692 263 706 c 2
 263 806 l 1
 263 820 252 830 238 830 c 2
 139 830 l 2
367 830 m 2
 353 830 341 820 341 806 c 2
 341 706 l 1
 341 692 353 680 367 680 c 2
 466 680 l 1
 480 680 491 692 491 706 c 2
 491 806 l 1
 491 820 480 830 466 830 c 2
 367 830 l 2
142 631 m 2
 128 631 118 621 118 607 c 2
 118 506 l 1
 118 492 128 481 142 481 c 2
 243 481 l 1
 257 481 267 492 267 506 c 2
 267 607 l 1
 267 621 257 631 243 631 c 2
 142 631 l 2
370 631 m 2
 356 631 345 621 345 607 c 2
 345 506 l 1
 345 492 356 481 370 481 c 2
 469 481 l 1
 483 481 495 492 495 506 c 2
 495 607 l 1
 495 621 483 631 469 631 c 2
 370 631 l 2
142 432 m 2
 128 432 118 422 118 408 c 2
 118 307 l 1
 118 293 128 282 142 282 c 2
 243 282 l 1
 257 282 267 293 267 307 c 2
 267 408 l 1
 267 422 257 432 243 432 c 2
 142 432 l 2
370 432 m 2
 356 432 345 422 345 408 c 2
 345 307 l 1
 345 293 356 282 370 282 c 2
 469 282 l 1
 483 282 495 293 495 307 c 2
 495 408 l 1
 495 422 483 432 469 432 c 2
 370 432 l 2
142 232 m 2
 128 232 118 222 118 208 c 2
 118 108 l 1
 118 94 128 84 142 84 c 2
 243 84 l 1
 257 84 267 94 267 108 c 2
 267 208 l 1
 267 222 257 232 243 232 c 2
 142 232 l 2
370 232 m 2
 356 232 345 222 345 208 c 2
 345 108 l 1
 345 94 356 84 370 84 c 2
 469 84 l 1
 483 84 495 94 495 108 c 2
 495 208 l 1
 495 222 483 232 469 232 c 2
 370 232 l 2
EndSplineSet
Validated: 1
EndChar

StartChar: building_2
Encoding: 57366 57366 7
Width: 512
VWidth: 1385
Flags: W
HStem: -150 250<81.0653 230.922> 250 50<81.1157 230.862> 450 49<81.2726 225.729> 651 100<76.2834 225.741>
VStem: 5 76<100.065 249.928 300.072 449.935 499 651> 231 276<100.259 249.717 300.283 449.741 500.013 649.987>
LayerCount: 2
Fore
SplineSet
46 751 m 2
 465 751 l 1
 487 751 507 732 507 711 c 2
 507 -111 l 1
 507 -132 487 -150 465 -150 c 2
 46 -150 l 1
 24 -150 5 -132 5 -111 c 2
 5 711 l 1
 5 732 24 751 46 751 c 2
101 651 m 2
 87 651 76 639 76 625 c 2
 76 525 l 1
 76 511 87 499 101 499 c 2
 202 499 l 1
 216 499 226 511 226 525 c 2
 226 625 l 1
 226 639 216 651 202 651 c 2
 101 651 l 2
105 450 m 2
 91 450 81 440 81 426 c 2
 81 325 l 1
 81 311 91 300 105 300 c 2
 205 300 l 1
 219 300 231 311 231 325 c 2
 231 426 l 1
 231 440 219 450 205 450 c 2
 105 450 l 2
105 250 m 2
 91 250 81 239 81 225 c 2
 81 124 l 1
 81 110 91 100 105 100 c 2
 205 100 l 1
 219 100 231 110 231 124 c 2
 231 225 l 1
 231 239 219 250 205 250 c 2
 105 250 l 2
EndSplineSet
Validated: 1
EndChar

StartChar: building_3
Encoding: 57367 57367 8
Width: 1095
VWidth: 1434
Flags: W
HStem: -97 331<66.1798 245.82 308.18 486.742 551.055 724.945> 414 90<66.1798 245.82 308.18 486.742 548.161 727.839>
VStem: 5 60<235.18 412.82> 247 60<235.18 412.82> 488 60<238.475 412.426> 728 362<238.337 417.82> 970 120<-89.2651 141.82>
LayerCount: 2
Fore
SplineSet
52 504 m 2xfa
 1043 504 l 1
 1069 504 1090 482 1090 455 c 2
 1090 -48 l 1
 1090 -75 1069 -97 1043 -97 c 2
 970 -97 l 1
 970 113 l 1
 970 129 956 143 940 143 c 2
 820 143 l 1
 804 143 790 129 790 113 c 2
 790 -97 l 1
 52 -97 l 1
 26 -97 5 -75 5 -48 c 2
 5 455 l 1
 5 482 26 504 52 504 c 2xfa
578 419 m 2
 562 419 548 405 548 389 c 2
 548 269 l 1
 548 253 562 237 578 237 c 2
 698 237 l 1
 714 237 728 253 728 269 c 2
 728 389 l 1xfc
 728 405 714 419 698 419 c 2
 578 419 l 2
95 414 m 2
 79 414 65 400 65 384 c 2
 65 264 l 1
 65 248 79 234 95 234 c 2
 217 234 l 1
 233 234 247 248 247 264 c 2
 247 384 l 1
 247 400 233 414 217 414 c 2
 95 414 l 2
337 414 m 2
 321 414 307 400 307 384 c 2
 307 264 l 1
 307 248 321 234 337 234 c 2
 457 234 l 1
 473 234 488 248 488 264 c 2
 488 384 l 1
 488 400 473 414 457 414 c 2
 337 414 l 2
EndSplineSet
Validated: 1
EndChar

StartChar: tent
Encoding: 57368 57368 9
Width: 924
VWidth: 1402
Flags: W
HStem: -139 1<52 417> -138 1<52 417> -136 1<742 872>
VStem: 417 1<-137 432> 422 1<-137 432>
LayerCount: 2
Fore
SplineSet
459 674 m 2x78
 459 674 617 480 703 391 c 0
 771 320 919 192 919 192 c 2
 919 192 919 191 873 -136 c 0
 873 -136 873 -136 872 -136 c 0
 741 -136 741 -137 741 -137 c 0
 692 -97 619 -32 577 32 c 0
 515 125 436 387 423 432 c 1
 418 -137 l 2x78
 418 -138 418 -138 417 -138 c 2
 52 -139 l 2xb8
 51 -139 51 -138 51 -138 c 2
 5 191 l 2
 5 192 l 2
 5 192 151 319 218 389 c 0
 304 479 458 674 458 674 c 2
 458 675 459 675 459 674 c 2x78
423 440 m 2
 423 441 421 440 421 439 c 2
 416 -136 l 1
 53 -137 l 1
 7 191 l 1
 16 199 154 319 219 387 c 0
 301 473 446 656 458 671 c 1
 470 656 618 476 701 390 c 0
 767 322 909 199 918 191 c 1
 872 -134 l 1
 742 -135 l 1
 693 -95 621 -30 579 33 c 0
 512 135 423 440 423 440 c 2
458 673 m 1
 458 673 305 478 219 388 c 0
 152 318 6 191 6 191 c 1
 52 -138 l 1xb8
 417 -137 l 1
 422 439 l 1
 422 439 511 135 578 33 c 0
 620 -31 693 -96 742 -136 c 1
 872 -135 l 1
 919 191 l 1
 919 191 770 320 702 391 c 0
 616 480 458 673 458 673 c 1
EndSplineSet
Validated: 5
EndChar

StartChar: village
Encoding: 57345 57345 10
Width: 1080
VWidth: 1345
Flags: W
LayerCount: 2
Fore
SplineSet
409.619140625 963 m 0
 415.619140625 963 422.619140625 959 426.619140625 955 c 2
 637.619140625 742 l 1
 762.619140625 868 l 2
 765.619140625 871 768.619140625 872 772.619140625 874 c 0
 781.619140625 876 789.619140625 874 795.619140625 868 c 2
 1072.61914062 588 l 2
 1078.61914062 582 1074.61914062 570 1065.61914062 570 c 2
 1042.61914062 570 l 2
 1028.61914062 570 1018.61914062 560 1018.61914062 546 c 2
 1018.61914062 283 l 2
 1018.61914062 269 1008.61914062 258 994.619140625 258 c 2
 874.619140625 258 l 1
 1002.61914062 129 l 2
 1008.61914062 123 1003.61914062 112 994.619140625 112 c 2
 972.619140625 112 l 2
 958.619140625 112 948.619140625 102 948.619140625 88 c 2
 948.619140625 -176 l 2
 948.619140625 -190 938.619140625 -200 924.619140625 -200 c 2
 490.619140625 -200 l 2
 476.619140625 -200 466.619140625 -190 466.619140625 -176 c 2
 466.619140625 1 l 1
 87.619140625 1 l 2
 73.619140625 1 63.619140625 11 63.619140625 25 c 2
 63.619140625 289 l 2
 63.619140625 303 53.619140625 313 39.619140625 313 c 2
 15.619140625 313 l 2
 6.619140625 313 1.619140625 325 7.619140625 331 c 2
 168.619140625 490 l 1
 168.619140625 634 l 2
 168.619140625 648 158.619140625 658 144.619140625 658 c 2
 120.619140625 658 l 2
 111.619140625 658 106.619140625 670 112.619140625 676 c 2
 391.619140625 957 l 2
 394.619140625 960 399.619140625 961 403.619140625 963 c 0
 405.619140625 963 407.619140625 963 409.619140625 963 c 0
544.619140625 265 m 1
 544.619140625 262 l 1
 546.619140625 264 l 1
 544.619140625 265 l 1
EndSplineSet
Validated: 1
EndChar

StartChar: town
Encoding: 57346 57346 11
Width: 1115
VWidth: 1421
Flags: W
VStem: 98 231<-84.0225 46.3369>
LayerCount: 2
Fore
SplineSet
441 574 m 2
 444 576 447 573 449 570 c 2
 519 312 l 2
 522 300 533 292 545 292 c 2
 794 292 l 1
 870 370 l 2
 873 373 881 373 884 370 c 2
 989 262 l 1
 954 262 l 2
 950 262 947 259 947 255 c 2
 947 150 l 1
 876 150 l 1
 876 106 l 1
 879 106 882 105 884 103 c 2
 908 79 l 1
 992 165 l 2
 995 168 1002 168 1005 165 c 2
 1110 57 l 1
 1076 57 l 2
 1072 57 1068 53 1068 49 c 2
 1068 -56 l 1
 947 -56 l 1
 947 -117 l 1
 807 -117 l 1
 807 -35 l 1
 698 -35 l 1
 698 -99 l 1
 569 -99 l 1
 558 -99 l 1
 431 -99 l 1
 429 6 l 2
 429 10 426 15 422 15 c 2
 387 15 l 1
 422 49 l 1
 419 49 417 49 414 49 c 0
 339 49 324 48 324 9 c 0
 324 -9 327 -37 329 -77 c 0
 329 -83 324 -86 318 -86 c 2
 111 -84 l 2
 105 -84 98 -77 98 -71 c 0
 98 31 98 -71 98 82 c 1
 96 93 l 1
 47 93 l 1
 47 198 l 2
 47 202 42 205 38 205 c 2
 5 205 l 1
 111 313 l 2
 114 316 120 316 123 313 c 2
 180 255 l 1
 239 313 l 2
 242 316 248 316 251 313 c 2
 303 259 l 1
 321 279 l 2
 325 287 333 290 342 292 c 0
 354 292 365 300 368 312 c 2
 438 570 l 2
 438 572 439 574 441 574 c 2
EndSplineSet
Validated: 1
EndChar

StartChar: city
Encoding: 57347 57347 12
Width: 1128
VWidth: 1373
Flags: W
HStem: -164 139<691 767 792 869 894 971> -161 198<341 447 504 612> -161 153<51 143> 53 38<691 767 792 869 894 971> 83 30<51.1084 142.874> 143 36<341 447 504 612> 206 30<51.0843 140.916> 287 36<341 447 504 612> 328 61<49 141> 431 36<341.091 444.954 504.059 608.941> 574 90<337 403 501 609>
VStem: 5 46<-8 83 113 206 236 328> 143 198<37 83 113 143 179 206 236 287 323 328> 259 82<389 431 467 574> 403 52<664 814.717> 447 57<37 143 179 287 323 431 467 574> 612 78<37 53 91 143 179 287 323 431 467 574> 767 25<-24.9825 52.9854> 869 25<-21.8896 52.8609> 971 152<-22 55> 1023 51<91 248> 1073 50<-164 -62>
LayerCount: 2
Fore
SplineSet
805 53 m 2x97f0e0
 797 53 792 48 792 40 c 2
 792 -11 l 2
 792 -19 797 -25 805 -25 c 2
 857 -25 l 2
 865 -25 869 -19 869 -11 c 2
 869 40 l 2
 869 48 865 53 857 53 c 2
 805 53 l 2x97f0e0
703 53 m 2
 695 53 691 48 691 40 c 2
 691 -11 l 2
 691 -19 695 -25 703 -25 c 2
 755 -25 l 2
 763 -25 767 -19 767 -11 c 2
 767 40 l 2
 767 48 763 53 755 53 c 2
 703 53 l 2
907 55 m 2
 899 55 894 49 894 41 c 2
 894 -10 l 2
 894 -18 899 -22 907 -22 c 2
 959 -22 l 2
 967 -22 971 -18 971 -10 c 2
 971 41 l 2x07f0f0
 971 49 967 55 959 55 c 2
 907 55 l 2
66 83 m 2x2ff8e0
 57 83 51 77 51 68 c 2
 51 7 l 2
 51 -2 57 -8 66 -8 c 2
 127 -8 l 2
 136 -8 143 -2 143 7 c 2
 143 68 l 2
 143 77 136 83 127 83 c 2
 66 83 l 2x2ff8e0
522 143 m 2
 512 143 504 135 504 125 c 2
 504 55 l 2
 504 45 512 37 522 37 c 2
 594 37 l 2x47f1e0
 604 37 612 45 612 55 c 2
 612 125 l 2
 612 135 604 143 594 143 c 2
 522 143 l 2
359 143 m 2
 349 143 341 135 341 125 c 2
 341 55 l 2x47f9e0
 341 45 349 37 359 37 c 2
 431 37 l 2
 441 37 447 45 447 55 c 2
 447 125 l 2
 447 135 441 143 431 143 c 2
 359 143 l 2
66 206 m 2
 57 206 51 200 51 191 c 2
 51 130 l 2
 51 121 57 113 66 113 c 2
 127 113 l 2x0ff8e0
 136 113 143 121 143 130 c 2
 143 191 l 2
 143 200 136 206 127 206 c 2
 66 206 l 2
522 287 m 2
 512 287 504 279 504 269 c 2
 504 197 l 2x07f1e0
 504 187 512 179 522 179 c 2
 594 179 l 2
 604 179 612 187 612 197 c 2
 612 269 l 2
 612 279 604 287 594 287 c 2
 522 287 l 2
359 287 m 2
 349 287 341 279 341 269 c 2
 341 197 l 2x07f9e0
 341 187 349 179 359 179 c 2
 431 179 l 2
 441 179 447 187 447 197 c 2
 447 269 l 2
 447 279 441 287 431 287 c 2
 359 287 l 2
65 328 m 2
 56 328 49 322 49 313 c 2
 49 251 l 2
 49 242 56 236 65 236 c 2
 126 236 l 2
 135 236 141 242 141 251 c 2
 141 313 l 2
 141 322 135 328 126 328 c 2
 65 328 l 2
522 431 m 2
 512 431 504 423 504 413 c 2
 504 341 l 2
 504 331 512 323 522 323 c 2
 594 323 l 2
 604 323 612 331 612 341 c 2
 612 413 l 2
 612 423 604 431 594 431 c 2
 522 431 l 2
359 431 m 2
 349 431 341 423 341 413 c 2
 341 341 l 2x07f5e0
 341 331 349 323 359 323 c 2
 431 323 l 2
 441 323 447 331 447 341 c 2
 447 413 l 2
 447 423 441 431 431 431 c 2
 359 431 l 2
519 574 m 2
 509 574 501 566 501 556 c 2
 501 485 l 2
 501 475 509 467 519 467 c 2
 591 467 l 2
 601 467 609 475 609 485 c 2
 609 556 l 2
 609 566 601 574 591 574 c 2
 519 574 l 2
355 574 m 2
 345 574 337 566 337 556 c 2
 337 485 l 2
 337 475 345 467 355 467 c 2
 427 467 l 2
 437 467 445 475 445 485 c 2
 445 556 l 2
 445 566 437 574 427 574 c 2
 355 574 l 2
429 815 m 0
 443 815 455 804 455 790 c 2
 455 664 l 1
 654 664 l 2
 674 664 690 648 690 628 c 2
 690 91 l 1
 1023 91 l 1
 1023 248 l 1
 1074 248 l 1
 1074 91 l 1x37f6e8
 1104 91 l 2
 1114 91 1123 82 1123 70 c 2
 1123 -142 l 2
 1123 -154 1114 -164 1104 -164 c 2
 1073 -164 l 1
 1073 -74 l 2
 1073 -66 1069 -62 1061 -62 c 2
 1009 -62 l 2
 1001 -62 996 -66 996 -74 c 2
 996 -164 l 1
 685 -164 l 2x97f0e4
 679 -164 674 -161 671 -157 c 1
 667 -160 660 -161 654 -161 c 2
 295 -161 l 2
 293 -161 293 -160 291 -160 c 0
 289 -160 287 -161 285 -161 c 2
 30 -161 l 2
 16 -161 5 -151 5 -137 c 2
 5 365 l 2
 5 379 16 389 30 389 c 2
 259 389 l 1
 259 628 l 2
 259 648 275 664 295 664 c 2
 403 664 l 1
 403 790 l 2x27f6e4
 403 804 415 815 429 815 c 0
EndSplineSet
Validated: 1
EndChar

StartChar: bridge
Encoding: 57348 57348 13
Width: 1157
VWidth: 1469
Flags: W
HStem: 198 133<479.907 680.519>
VStem: 50 69<-66 -38.1244> 254 105<-65.0142 40.0898> 800 103<-65.0142 40.0898> 1038 69<-66 -38.1244>
LayerCount: 2
Fore
SplineSet
579 331 m 0
 683 331 788 318 887 286 c 0
 950 266 1010 237 1064 198 c 0
 1097 174 1152 109 1152 109 c 1
 1107 -66 l 1
 1038 -66 l 1
 1044 -52 1047 -38 1047 -23 c 0
 1047 25 1015 66 975 66 c 0
 935 66 903 25 903 -23 c 0
 903 -38 908 -52 914 -66 c 1
 786 -66 l 1
 795 -45 800 -22 800 0 c 0
 800 110 701 198 579 198 c 0
 457 198 359 110 359 0 c 0
 359 -22 362 -45 371 -66 c 1
 245 -66 l 1
 251 -52 254 -38 254 -23 c 0
 254 25 222 66 182 66 c 0
 142 66 110 25 110 -23 c 0
 110 -38 113 -52 119 -66 c 1
 50 -66 l 1
 5 109 l 1
 5 109 60 174 93 198 c 0
 147 237 207 266 270 286 c 0
 369 318 475 331 579 331 c 0
EndSplineSet
Validated: 1
EndChar

StartChar: intersection
Encoding: 57349 57349 14
Width: 1076
VWidth: 1367
Flags: W
HStem: -154 47<529 545> -65 16<529 545> -7 18<529 545> 241 88<93 133 151 191 209 245.222 829.795 865 883 923 941 982> 346 91<93 133 151 191 209 245.222 830.812 865 883 923 941 982> 665 18<529 545> 724 18<529 545> 782 47<529 545>
VStem: 133 18<329 346> 191 18<329 346> 431 98<-107 -65 -49 -7 11 52 625 665 683 724 742 782> 545 100<-107 -65 -49 -7 11 52 625 665 683 724 742 782> 865 18<329 346> 923 18<329 346>
LayerCount: 2
Fore
SplineSet
431 829 m 1
 645 829 l 1
 645 616 l 0
 737 586 807 521 839 437 c 1
 1071 437 l 1
 1071 241 l 1
 838 241 l 0
 806 159 735 92 645 62 c 1
 645 -154 l 1
 431 -154 l 1
 431 62 l 0
 341 92 269 159 237 241 c 1
 5 241 l 1
 5 437 l 1
 237 437 l 0
 269 519 341 586 431 616 c 1
 431 829 l 1
529 782 m 1
 529 742 l 1
 545 742 l 1
 545 782 l 1
 529 782 l 1
529 724 m 1
 529 683 l 1
 545 683 l 1
 545 724 l 1
 529 724 l 1
529 665 m 1
 529 625 l 1
 545 625 l 1
 545 665 l 1
 529 665 l 1
538 461 m 0
 464 461 405 406 405 338 c 0
 405 270 464 215 538 215 c 0
 612 215 670 270 670 338 c 0
 670 406 612 461 538 461 c 0
93 346 m 1
 93 329 l 1
 133 329 l 1
 133 346 l 1
 93 346 l 1
151 346 m 1
 151 329 l 1
 191 329 l 1
 191 346 l 1
 151 346 l 1
209 346 m 1
 209 329 l 1
 250 329 l 1
 250 346 l 1
 209 346 l 1
825 346 m 1
 825 329 l 1
 865 329 l 1
 865 346 l 1
 825 346 l 1
883 346 m 1
 883 329 l 1
 923 329 l 1
 923 346 l 1
 883 346 l 1
941 346 m 1
 941 329 l 1
 982 329 l 1
 982 346 l 1
 941 346 l 1
529 52 m 1
 529 11 l 1
 545 11 l 1
 545 52 l 1
 529 52 l 1
529 -7 m 1
 529 -49 l 1
 545 -49 l 1
 545 -7 l 1
 529 -7 l 1
529 -65 m 1
 529 -107 l 1
 545 -107 l 1
 545 -65 l 1
 529 -65 l 1
EndSplineSet
Validated: 1
EndChar

StartChar: monastery
Encoding: 57350 57350 15
Width: 908
VWidth: 2156
Flags: W
HStem: 143.248 77.9609<436.564 472.106 472.354 502.266> 408.346 131.02<429.3 480.556> 581.364 154.589<106.231 155.586 768.762 809.712>
VStem: 5 286.721<-142.752 69.7596> 5 81.9199<426.01 571.305> 168.84 86.5127<426.01 446.49 446.55 562.948> 619.4 284.461<-142.752 -106.471 -106.367 66.9999> 660.236 82.0449<426.01 571.305> 824.201 79.6602<426.01 446.49 446.55 562.948>
LayerCount: 2
Fore
SplineSet
127.880859375 735.953125 m 0xe8
 135.291015625 735.953125 142.705078125 735.70703125 148.336914062 735.213867188 c 0
 194.133789062 731.1953125 231.345703125 713.91796875 245.072265625 691.177734375 c 0
 250.845703125 681.615234375 250.88671875 662.598632812 251.040039062 651.290039062 c 2
 251.040039062 651.290039062 255.3515625 333.84375 255.352539062 333.849609375 c 1
 255.408203125 329.658203125 258.826171875 326.267578125 263.028320312 326.267578125 c 0
 265.373046875 326.267578125 267.475585938 327.322265625 268.884765625 328.981445312 c 2
 268.884765625 328.981445312 442.298828125 533.27734375 442.30859375 533.27734375 c 0
 445.46875 537 450.173828125 539.365234375 455.435546875 539.365234375 c 0
 460.752929688 539.365234375 465.51171875 536.950195312 468.671875 533.157226562 c 2
 468.671875 533.157226562 647.24609375 318.865234375 647.248046875 318.861328125 c 0
 648.595703125 317.2421875 650.625 316.215820312 652.893554688 316.215820312 c 0
 656.947265625 316.215820312 660.236328125 319.505859375 660.236328125 323.55859375 c 0
 660.236328125 323.575195312 660.236328125 323.592773438 660.236328125 323.610351562 c 2
 658.224609375 651.290039062 l 2
 658.155273438 662.599609375 658.015625 681.615234375 663.7890625 691.177734375 c 0
 677.515625 713.91796875 714.727539062 731.1953125 760.524414062 735.213867188 c 0
 771.7890625 736.201171875 790.172851562 736.201171875 801.435546875 735.213867188 c 0
 847.234375 731.1953125 884.4453125 713.91796875 898.172851562 691.177734375 c 0
 903.944335938 681.615234375 903.861328125 662.599609375 903.861328125 651.290039062 c 2xed80
 903.861328125 -126.951171875 l 2
 903.861328125 -138.25390625 894.68359375 -147.430664062 883.380859375 -147.430664062 c 2
 801.224609375 -147.430664062 l 1
 660.359375 -147.430664062 l 2
 637.75390625 -147.430664062 619.400390625 -129.076171875 619.400390625 -106.470703125 c 2
 619.400390625 -106.470703125 619.4375 36.8681640625 619.400390625 36.888671875 c 0
 619.400390625 49.9775390625 612.181640625 61.36328125 601.4765625 67.28125 c 2
 601.4765625 67.28125 472.2734375 138.677734375 472.353515625 138.677734375 c 1
 467.0859375 141.58984375 460.952148438 143.248046875 454.512695312 143.248046875 c 0
 447.997070312 143.248046875 441.875 141.55078125 436.564453125 138.57421875 c 2
 436.564453125 138.57421875 309.622070312 67.40625 309.583984375 67.3857421875 c 0
 298.90625 61.3984375 291.720703125 49.9921875 291.720703125 36.888671875 c 2
 291.720703125 -106.470703125 l 2
 291.720703125 -129.076171875 273.3671875 -147.430664062 250.759765625 -147.430664062 c 2
 25.48046875 -147.430664062 l 2
 14.177734375 -147.430664062 5 -138.25390625 5 -126.951171875 c 2xf2
 5 651.290039062 l 2
 5 662.599609375 4.9169921875 681.615234375 10.6884765625 691.177734375 c 0
 24.416015625 713.91796875 61.626953125 731.1953125 107.42578125 735.213867188 c 0
 113.056640625 735.70703125 120.469726562 735.953125 127.880859375 735.953125 c 0xe8
122.580078125 580.669921875 m 0
 119.060546875 579.7265625 115.904296875 577.872070312 113.400390625 575.370117188 c 2
 113.400390625 575.370117188 101.408203125 563.362304688 101.400390625 563.370117188 c 1
 92.451171875 554.419921875 86.919921875 542.053710938 86.919921875 528.41015625 c 2
 86.919921875 446.490234375 l 2
 86.919921875 435.185546875 96.09765625 426.009765625 107.400390625 426.009765625 c 2
 148.360351562 426.009765625 l 2
 159.663085938 426.009765625 168.83984375 435.185546875 168.83984375 446.490234375 c 2
 168.83984375 446.490234375 168.84765625 528.416015625 168.83984375 528.41015625 c 1
 168.83984375 542.053710938 163.30859375 554.419921875 154.360351562 563.370117188 c 2
 154.360351562 563.370117188 142.365234375 575.364257812 142.360351562 575.370117188 c 0
 138.65234375 579.076171875 133.537109375 581.364257812 127.88671875 581.364257812 c 0
 126.052734375 581.364257812 124.272460938 581.122070312 122.580078125 580.669921875 c 0
777.939453125 580.669921875 m 0
 774.419921875 579.7265625 771.263671875 577.872070312 768.76171875 575.370117188 c 2
 768.76171875 575.370117188 756.767578125 563.362304688 756.76171875 563.370117188 c 1
 747.810546875 554.419921875 742.28125 542.053710938 742.28125 528.41015625 c 2
 742.28125 446.490234375 l 2
 742.28125 435.185546875 751.45703125 426.009765625 762.76171875 426.009765625 c 2
 803.720703125 426.009765625 l 2
 815.0234375 426.009765625 824.201171875 435.185546875 824.201171875 446.490234375 c 2
 824.201171875 446.490234375 824.20703125 528.416015625 824.201171875 528.41015625 c 1
 824.201171875 542.053710938 818.669921875 554.419921875 809.720703125 563.370117188 c 2
 809.720703125 563.370117188 797.724609375 575.364257812 797.720703125 575.370117188 c 0
 794.013671875 579.076171875 788.896484375 581.364257812 783.24609375 581.364257812 c 0
 781.412109375 581.364257812 779.6328125 581.122070312 777.939453125 580.669921875 c 0
455.560546875 408.345703125 m 0
 398.732421875 408.345703125 352.59765625 366.418945312 352.595703125 314.77734375 c 0
 352.59765625 263.135742188 398.732421875 221.209960938 455.560546875 221.208984375 c 0
 512.38671875 221.209960938 558.5234375 263.135742188 558.5234375 314.77734375 c 0
 558.5234375 366.418945312 512.38671875 408.345703125 455.560546875 408.345703125 c 0
EndSplineSet
Validated: 33
EndChar

StartChar: peak
Encoding: 57351 57351 16
Width: 1050
VWidth: 2144
Flags: W
LayerCount: 2
Fore
SplineSet
385.205078125 785.7421875 m 2
 387.775390625 791.9140625 393.8515625 796.255859375 400.950195312 796.255859375 c 0
 408.048828125 796.255859375 414.141601562 791.9140625 416.711914062 785.7421875 c 2
 416.711914062 785.7421875 794.822265625 -121.65234375 794.8046875 -121.6796875 c 0
 798.200195312 -129.827148438 797.609375 -139.442382812 792.350585938 -147.331054688 c 0
 787.091796875 -155.21875 778.42578125 -159.489257812 769.598632812 -159.489257812 c 2
 769.598632812 -159.489257812 32.3359375 -159.515625 32.318359375 -159.489257812 c 0
 23.4912109375 -159.489257812 14.8427734375 -155.247070312 9.583984375 -147.358398438 c 0
 4.3251953125 -139.46875 3.716796875 -129.827148438 7.1123046875 -121.6796875 c 2
 385.205078125 785.7421875 l 2
414.93359375 670.385742188 m 2
 412.755859375 676.388671875 407.078125 680.744140625 400.313476562 680.90234375 c 0
 393.546875 681.05859375 387.661132812 676.973632812 385.205078125 671.077148438 c 2
 385.205078125 671.077148438 293.840820312 451.734375 293.831054688 451.760742188 c 1
 289.706054688 441.858398438 289.184570312 430.405273438 293.216796875 419.568359375 c 0
 297.248046875 408.731445312 305.119140625 400.431640625 314.713867188 395.633789062 c 2
 314.713867188 395.633789062 323.521484375 391.309570312 323.362304688 391.309570312 c 1
 334.369140625 385.806640625 346.944335938 382.708007812 360.078125 382.708007812 c 0
 373.2109375 382.708007812 385.626953125 385.806640625 396.633789062 391.309570312 c 2
 396.633789062 391.309570312 405.44140625 395.630859375 405.282226562 395.633789062 c 1
 416.240234375 401.112304688 428.788085938 404.125976562 441.872070312 403.961914062 c 0
 454.956054688 403.795898438 467.265625 400.469726562 478.08203125 394.716796875 c 2
 478.08203125 394.716796875 487.666015625 389.606445312 487.674804688 389.61328125 c 0
 493.260742188 386.642578125 500.328125 387.22265625 505.387695312 391.616210938 c 0
 510.447265625 396.010742188 512.020507812 402.934570312 509.861328125 408.880859375 c 2
 414.93359375 670.385742188 l 2
835.383789062 -121.840820312 m 2
 621.892578125 376.302734375 l 2
 616.99609375 387.729492188 614.447265625 400.373046875 614.834960938 413.607421875 c 0
 615.224609375 426.842773438 618.516601562 439.467773438 624.075195312 450.587890625 c 1
 624.071289062 450.43359375 710.321289062 623.076171875 710.321289062 623.076171875 c 2
 713.46875 629.372070312 720.098632812 633.58203125 727.583984375 633.280273438 c 0
 735.069335938 632.978515625 741.321289062 628.250976562 743.954101562 621.72265625 c 0
 743.97265625 621.720703125 1043.58300781 -121.5 1043.58300781 -121.5 c 2
 1046.90429688 -129.73828125 1046.20800781 -139.427734375 1040.86914062 -147.337890625 c 0
 1035.52929688 -155.247070312 1026.82128906 -159.489257812 1017.93847656 -159.489257812 c 0
 1017.92089844 -159.515625 892.478515625 -159.489257812 892.478515625 -159.489257812 c 2
 880.7421875 -159.489257812 868.87890625 -156.170898438 858.356445312 -149.233398438 c 0
 847.834960938 -142.294921875 840.006835938 -132.626953125 835.383789062 -121.840820312 c 2
EndSplineSet
Validated: 33
EndChar

StartChar: bed
Encoding: 57376 57376 25
Width: 952
VWidth: 1441
Flags: W
HStem: 93 330<310.706 844.292> 93 95<108.376 275.625> 254 141<139.796 245.251>
VStem: 5 93<-83.6257 83.625 198.376 460.624> 120 146<274.375 374.125> 854 93<-83.6257 82.6257>
LayerCount: 2
Fore
SplineSet
5 435 m 2x5c
 5 444 8 453 16 461 c 0
 24 469 31 471 40 471 c 2
 64 471 l 1
 73 471 81 469 89 461 c 0
 97 453 98 444 98 435 c 2
 98 224 l 1
 98 215 100 206 108 198 c 0
 116 190 125 188 134 188 c 2
 251 188 l 1x5c
 260 188 268 190 276 198 c 0
 284 206 287 215 287 224 c 2
 287 348 l 1
 287 368 295 386 310 401 c 0
 325 416 344 423 364 423 c 2
 758 423 l 1x9c
 797 423 836 411 868 384 c 0
 900 357 920 323 928 285 c 2
 947 188 l 1x5c
 947 153 l 1
 947 59 l 1
 947 -60 l 1
 947 -69 944 -76 936 -84 c 0
 928 -92 920 -94 911 -94 c 2
 887 -94 l 1
 878 -94 869 -92 863 -84 c 0
 857 -76 854 -69 854 -60 c 2
 858 59 l 1
 858 68 856 75 850 83 c 0
 844 91 835 93 826 93 c 2x9c
 134 93 l 1
 125 93 116 92 108 84 c 0
 100 76 98 68 98 59 c 2
 98 -60 l 1
 98 -69 97 -76 89 -84 c 0
 81 -92 73 -94 64 -94 c 2
 40 -94 l 1
 31 -94 24 -92 16 -84 c 0
 8 -76 5 -69 5 -60 c 2
 5 435 l 2x5c
120 324 m 0
 120 363 152 395 192 395 c 0
 232 395 266 363 266 324 c 0
 266 285 232 254 192 254 c 0x3c
 152 254 120 285 120 324 c 0
EndSplineSet
Validated: 1
EndChar

StartChar: bunks
Encoding: 57377 57377 26
Width: 955
VWidth: 1361
Flags: W
HStem: 17 330<309.75 364 364.045 842.095> 17 95<100.171 284.829> 178 141<139.749 245.727> 494 329<309.75 843.605> 494 93<100.812 284.188> 653 143<141 244.5>
VStem: 5 93<-169.518 14.5 114.5 491.188 589.812 868.518> 119 147<198.375 298.125 673.875 774.625> 859 88<-20.9984 15.5762 316.019 457.965 458 492.392>
LayerCount: 2
Fore
SplineSet
40 871 m 2x4380
 64 871 l 2
 84 871 98 855 98 835 c 2
 98 623 l 2
 98 603 114 587 134 587 c 2
 251 587 l 2x4b80
 271 587 287 603 287 623 c 2
 287 748 l 2
 287 790 322 823 364 823 c 2
 758 823 l 2x1380
 840 823 912 766 928 685 c 2
 947 587 l 1
 947 553 l 1
 947 529 l 2
 947 505 947 482 947 458 c 2
 949 65 l 2
 952 59 950 51 947 47 c 2
 947 -17 l 1
 947 -136 l 2
 947 -156 931 -172 911 -172 c 2
 887 -172 l 2
 867 -172 852 -156 854 -136 c 2
 859 -17 l 2
 861 3 846 17 826 17 c 2x8b80
 134 17 l 2
 114 17 98 3 98 -17 c 2
 98 -136 l 2
 98 -156 84 -172 64 -172 c 2
 40 -172 l 2
 20 -172 5 -156 5 -136 c 2
 5 340 l 1
 5 359 l 1
 5 835 l 2
 5 855 20 871 40 871 c 2x4380
134 494 m 2
 114 494 98 478 98 458 c 2
 98 359 l 1
 98 340 l 1
 98 146 l 2
 98 126 114 112 134 112 c 2
 251 112 l 2x4b80
 271 112 287 126 287 146 c 2
 287 271 l 2
 287 313 322 347 364 347 c 2x8380
 364 347 425 349 505 349 c 0
 640 349 825 345 851 319 c 0
 853 317 854 316 856 316 c 0
 864 316 866 342 866 370 c 0
 866 410 862 458 862 458 c 2
 862 478 846 494 826 494 c 2x3380
 134 494 l 2
119 248 m 0
 119 287 153 319 193 319 c 0
 233 319 266 287 266 248 c 0
 266 209 233 178 193 178 c 0x2380
 153 178 119 209 119 248 c 0
119 724 m 0
 119 763 153 796 193 796 c 0
 233 796 266 763 266 724 c 0
 266 685 233 653 193 653 c 0x0780
 153 653 119 685 119 724 c 0
EndSplineSet
Validated: 33
EndChar

StartChar: bed_double
Encoding: 57378 57378 27
Width: 952
VWidth: 1385
Flags: W
HStem: 37 330<310.706 844.292> 37 95<108.376 275.625> 198 141<139.796 245.251> 609 142<35 138 232 336>
VStem: 5 93<-139.626 27.625 142.376 404.624> 14 146<629.375 729.625> 120 146<218.375 318.125> 210 148<629.375 729.625> 854 93<-139.626 26.6257>
LayerCount: 2
Fore
SplineSet
5 379 m 2x5880
 5 388 8 397 16 405 c 0
 24 413 31 415 40 415 c 2
 64 415 l 1
 73 415 81 413 89 405 c 0
 97 397 98 388 98 379 c 2
 98 168 l 1
 98 159 100 150 108 142 c 0
 116 134 125 132 134 132 c 2
 251 132 l 1x5880
 260 132 268 134 276 142 c 0
 284 150 287 159 287 168 c 2
 287 292 l 1
 287 312 295 330 310 345 c 0
 325 360 344 367 364 367 c 2
 758 367 l 1x9880
 797 367 836 355 868 328 c 0
 900 301 920 267 928 229 c 2
 947 132 l 1x5880
 947 97 l 1
 947 3 l 1
 947 -116 l 1
 947 -125 944 -132 936 -140 c 0
 928 -148 920 -150 911 -150 c 2
 887 -150 l 1
 878 -150 869 -148 863 -140 c 0
 857 -132 854 -125 854 -116 c 2
 858 3 l 1
 858 12 856 19 850 27 c 0
 844 35 835 37 826 37 c 2x9880
 134 37 l 1
 125 37 116 36 108 28 c 0
 100 20 98 12 98 3 c 2
 98 -116 l 1
 98 -125 97 -132 89 -140 c 0
 81 -148 73 -150 64 -150 c 2
 40 -150 l 1
 31 -150 24 -148 16 -140 c 0
 8 -132 5 -125 5 -116 c 2
 5 379 l 2x5880
120 268 m 0x3280
 120 307 152 339 192 339 c 0
 232 339 266 307 266 268 c 0
 266 229 232 198 192 198 c 0
 152 198 120 229 120 268 c 0x3280
14 679 m 0x1480
 14 718 46 751 86 751 c 0
 126 751 160 718 160 679 c 0
 160 640 126 609 86 609 c 0
 46 609 14 640 14 679 c 0x1480
210 679 m 0x1180
 210 718 244 751 284 751 c 0
 324 751 358 718 358 679 c 0
 358 640 324 609 284 609 c 0
 244 609 210 640 210 679 c 0x1180
EndSplineSet
Validated: 1
EndChar

StartChar: bed_double_wc
Encoding: 57379 57379 28
Width: 952
VWidth: 1364
Flags: W
HStem: 16 330<310.706 842.797> 16 94<108.376 275.625> 176 141<139.796 245.251> 587 143<35 138 237 340 464 563> 588 77<593 623> 636 30<575.907 593> 754 13<418.14 576.198>
VStem: 5 93<-161.626 5.625 120.376 382.625> 14 146<607.875 708.625> 120 146<196.375 296.125> 216 146<607.875 708.625> 464 99<588 633.906> 578 80<736.001 754 767 856.859> 593 30<590.301 635.5> 854 93<-161.626 4.62572>
LayerCount: 2
Fore
SplineSet
5 358 m 2x4312
 5 367 8 375 16 383 c 0
 24 391 31 394 40 394 c 2
 64 394 l 1
 73 394 81 391 89 383 c 0
 97 375 98 367 98 358 c 2
 98 146 l 1
 98 137 100 128 108 120 c 0
 116 112 125 110 134 110 c 2
 251 110 l 1x4312
 260 110 268 112 276 120 c 0
 284 128 287 137 287 146 c 2
 287 270 l 1
 287 290 295 308 310 323 c 0
 325 338 344 346 364 346 c 2
 758 346 l 1x8312
 797 346 836 333 868 306 c 0
 900 279 920 246 928 208 c 2
 947 110 l 1x4312
 947 76 l 1
 947 -19 l 1
 947 -138 l 1
 947 -147 944 -154 936 -162 c 0
 928 -170 920 -172 911 -172 c 2
 887 -172 l 1
 878 -172 869 -170 863 -162 c 0
 857 -154 854 -147 854 -138 c 2
 858 -19 l 1
 858 -10 856 -3 850 5 c 0
 844 13 835 16 826 16 c 2x8312
 134 16 l 1
 125 16 116 14 108 6 c 0
 100 -2 98 -10 98 -19 c 2
 98 -138 l 1
 98 -147 97 -154 89 -162 c 0
 81 -170 73 -172 64 -172 c 2
 40 -172 l 1
 31 -172 24 -170 16 -162 c 0
 8 -154 5 -147 5 -138 c 2
 5 358 l 2x4312
120 246 m 0x2252
 120 285 152 317 192 317 c 0
 232 317 266 285 266 246 c 0
 266 207 232 176 192 176 c 0
 152 176 120 207 120 246 c 0x2252
14 658 m 0x1292
 14 697 46 730 86 730 c 0
 126 730 160 697 160 658 c 0
 160 619 126 587 86 587 c 0
 46 587 14 619 14 658 c 0x1292
216 658 m 0x1232
 216 697 248 730 288 730 c 0
 328 730 362 697 362 658 c 0
 362 619 328 587 288 587 c 0
 248 587 216 619 216 658 c 0x1232
578 848 m 2x0a1a
 578 851 579 854 582 857 c 0
 585 860 587 860 590 860 c 2
 646 860 l 1
 649 860 651 860 654 857 c 0
 657 854 658 851 658 848 c 2
 658 725 l 1
 658 722 657 719 654 716 c 0
 651 713 649 712 646 712 c 2
 599 712 l 1
 596 712 593 711 590 708 c 0
 587 705 587 703 587 700 c 0
 587 696 588 692 586 689 c 0
 584 686 581 681 578 678 c 2
 576 677 l 0
 574 675 573 673 575 671 c 0
 577 669 578 666 580 666 c 2x061a
 611 665 l 1
 614 665 617 663 620 660 c 0
 623 657 623 655 623 652 c 2
 623 600 l 1
 623 597 623 596 620 593 c 0
 617 590 614 588 611 588 c 2
 605 588 l 1x0a16
 602 588 601 590 598 593 c 0
 595 596 593 597 593 600 c 2
 593 622 l 1
 593 625 593 627 590 630 c 0
 587 633 584 635 581 635 c 2
 575 636 l 0x0616
 572 636 569 636 566 634 c 0
 563 632 563 629 563 626 c 2
 563 600 l 1
 563 597 561 596 558 593 c 0
 555 590 553 588 550 588 c 2
 476 588 l 1
 473 588 470 590 467 593 c 0
 464 596 464 597 464 600 c 2
 464 626 l 1
 464 630 463 635 461 638 c 0
 459 641 458 644 455 647 c 2
 431 671 l 1
 424 678 l 1
 421 681 418 686 416 689 c 0
 414 692 414 696 414 700 c 2
 414 725 l 1
 414 728 415 731 418 734 c 0
 421 737 423 737 426 737 c 2
 566 737 l 1
 568 735 571 736 574 736 c 0
 577 736 576 738 578 740 c 0
 578 743 578 746 575 749 c 0
 572 752 569 754 566 754 c 2
 426 754 l 1
 424 752 423 752 420 752 c 0
 417 752 416 753 414 755 c 0
 414 758 415 761 418 764 c 0
 421 767 423 767 426 767 c 2
 566 767 l 1
 569 767 572 769 575 772 c 0
 578 775 578 777 578 780 c 2
 578 848 l 2x0a1a
EndSplineSet
Validated: 1
EndChar

StartChar: bed_triple
Encoding: 57380 57380 29
Width: 952
VWidth: 1385
Flags: W
HStem: 37 330<310.706 844.292> 37 95<108.376 275.625> 198 141<139.796 245.251> 609 142<35 138 237 340 440 542.5>
VStem: 5 93<-139.626 27.625 142.376 404.624> 14 146<629.375 729.625> 120 146<218.375 318.125> 216 146<629.375 729.625> 419 145<629.375 729.625> 854 93<-139.626 26.6257>
LayerCount: 2
Fore
SplineSet
5 379 m 2x58c0
 5 388 8 397 16 405 c 0
 24 413 31 415 40 415 c 2
 64 415 l 1
 73 415 81 413 89 405 c 0
 97 397 98 388 98 379 c 2
 98 168 l 1
 98 159 100 150 108 142 c 0
 116 134 125 132 134 132 c 2
 251 132 l 1x58c0
 260 132 268 134 276 142 c 0
 284 150 287 159 287 168 c 2
 287 292 l 1
 287 312 295 330 310 345 c 0
 325 360 344 367 364 367 c 2
 758 367 l 1x98c0
 797 367 836 355 868 328 c 0
 900 301 920 267 928 229 c 2
 947 132 l 1x58c0
 947 97 l 1
 947 3 l 1
 947 -116 l 1
 947 -125 944 -132 936 -140 c 0
 928 -148 920 -150 911 -150 c 2
 887 -150 l 1
 878 -150 869 -148 863 -140 c 0
 857 -132 854 -125 854 -116 c 2
 858 3 l 1
 858 12 856 19 850 27 c 0
 844 35 835 37 826 37 c 2x98c0
 134 37 l 1
 125 37 116 36 108 28 c 0
 100 20 98 12 98 3 c 2
 98 -116 l 1
 98 -125 97 -132 89 -140 c 0
 81 -148 73 -150 64 -150 c 2
 40 -150 l 1
 31 -150 24 -148 16 -140 c 0
 8 -132 5 -125 5 -116 c 2
 5 379 l 2x58c0
120 268 m 0x32c0
 120 307 152 339 192 339 c 0
 232 339 266 307 266 268 c 0
 266 229 232 198 192 198 c 0
 152 198 120 229 120 268 c 0x32c0
14 679 m 0x14c0
 14 718 46 751 86 751 c 0
 126 751 160 718 160 679 c 0
 160 640 126 609 86 609 c 0
 46 609 14 640 14 679 c 0x14c0
216 679 m 0x11c0
 216 718 248 751 288 751 c 0
 328 751 362 718 362 679 c 0
 362 640 328 609 288 609 c 0
 248 609 216 640 216 679 c 0x11c0
419 679 m 0
 419 718 451 751 491 751 c 0
 531 751 564 718 564 679 c 0
 564 640 531 609 491 609 c 0
 451 609 419 640 419 679 c 0
EndSplineSet
Validated: 1
EndChar

StartChar: bed_triple_wc
Encoding: 57381 57381 30
Width: 952
VWidth: 1364
Flags: W
HStem: 16 330<310.706 842.797> 16 94<108.376 275.625> 176 141<139.796 245.251> 587 143<35 138 237 340 440 542.5 668 767> 588 77<798 828> 635 31<779.094 798> 712 148<790.352 863> 754 13<620.1 780.329>
VStem: 5 93<-161.626 5.625 120.376 382.625> 14 146<607.875 708.625> 120 146<196.375 296.125> 216 146<607.875 708.625> 419 145<607.875 708.625> 668 99<588 634.007> 784 79<736.001 754 767 856.859> 798 30<590.002 635.422> 854 93<-161.626 4.62572>
LayerCount: 2
Fore
SplineSet
5 358 m 2x408c80
 5 367 8 375 16 383 c 0
 24 391 31 394 40 394 c 2
 64 394 l 1
 73 394 81 391 89 383 c 0
 97 375 98 367 98 358 c 2
 98 146 l 1
 98 137 100 128 108 120 c 0
 116 112 125 110 134 110 c 2
 251 110 l 1x408c80
 260 110 268 112 276 120 c 0
 284 128 287 137 287 146 c 2
 287 270 l 1
 287 290 295 308 310 323 c 0
 325 338 344 346 364 346 c 2
 758 346 l 1x808c80
 797 346 836 333 868 306 c 0
 900 279 920 246 928 208 c 2
 947 110 l 1
 947 76 l 1
 947 -19 l 1
 947 -138 l 1x408c80
 947 -147 944 -154 936 -162 c 0
 928 -170 920 -172 911 -172 c 2
 887 -172 l 1
 878 -172 869 -170 863 -162 c 0x400e
 857 -154 854 -147 854 -138 c 2
 858 -19 l 1
 858 -10 856 -3 850 5 c 0
 844 13 835 16 826 16 c 2x800c80
 134 16 l 1
 125 16 116 14 108 6 c 0
 100 -2 98 -10 98 -19 c 2
 98 -138 l 1
 98 -147 97 -154 89 -162 c 0
 81 -170 73 -172 64 -172 c 2
 40 -172 l 1
 31 -172 24 -170 16 -162 c 0
 8 -154 5 -147 5 -138 c 2
 5 358 l 2x408c80
120 246 m 0x202c
 120 285 152 317 192 317 c 0
 232 317 266 285 266 246 c 0
 266 207 232 176 192 176 c 0
 152 176 120 207 120 246 c 0x202c
14 658 m 0x104c
 14 697 46 730 86 730 c 0
 126 730 160 697 160 658 c 0
 160 619 126 587 86 587 c 0
 46 587 14 619 14 658 c 0x104c
216 658 m 0x101c
 216 697 248 730 288 730 c 0
 328 730 362 697 362 658 c 0
 362 619 328 587 288 587 c 0
 248 587 216 619 216 658 c 0x101c
419 658 m 0
 419 697 451 730 491 730 c 0
 531 730 564 697 564 658 c 0
 564 619 531 587 491 587 c 0
 451 587 419 619 419 658 c 0
784 848 m 2x090e
 784 851 783 854 786 857 c 0
 789 860 793 860 796 860 c 2
 851 860 l 1
 854 860 855 860 858 857 c 0
 861 854 863 851 863 848 c 2
 863 725 l 1
 863 722 861 719 858 716 c 0
 855 713 854 712 851 712 c 2
 804 712 l 1
 801 712 799 711 796 708 c 0
 793 705 792 703 792 700 c 0
 792 696 792 692 790 689 c 0
 788 686 787 681 784 678 c 2
 780 677 l 0
 778 675 777 673 779 671 c 0
 781 669 783 666 785 666 c 2x060e
 815 665 l 1
 818 665 821 663 824 660 c 0
 827 657 828 655 828 652 c 2
 828 600 l 1
 828 597 827 596 824 593 c 0
 821 590 818 588 815 588 c 2
 810 588 l 1x080d
 807 588 805 590 802 593 c 0
 799 596 798 597 798 600 c 2
 798 622 l 1
 798 625 797 627 794 630 c 0
 791 633 789 635 786 635 c 2x040d
 779 636 l 0
 776 636 775 636 772 634 c 0
 769 632 767 629 767 626 c 2
 767 600 l 1
 767 597 767 596 764 593 c 0
 761 590 758 588 755 588 c 2
 682 588 l 1
 679 588 675 590 672 593 c 0
 669 596 668 597 668 600 c 2
 668 626 l 1
 668 630 668 635 666 638 c 0
 664 641 663 644 660 647 c 2
 635 671 l 1
 628 678 l 1
 625 681 624 686 622 689 c 0
 620 692 618 696 618 700 c 2
 618 725 l 1
 618 728 620 731 623 734 c 0
 626 737 629 737 632 737 c 2
 772 737 l 1
 774 735 775 736 778 736 c 0
 781 736 782 738 784 740 c 0
 784 743 782 746 779 749 c 0
 776 752 775 754 772 754 c 2
 632 754 l 1
 630 752 627 752 624 752 c 0
 621 752 620 753 618 755 c 0
 618 758 620 761 623 764 c 0
 626 767 629 767 632 767 c 2
 772 767 l 1
 775 767 776 769 779 772 c 0
 782 775 784 777 784 780 c 2
 784 848 l 2x090e
EndSplineSet
Validated: 1
EndChar

StartChar: bed_quadruple
Encoding: 57382 57382 31
Width: 952
VWidth: 1385
Flags: W
HStem: 37 330<310.706 844.292> 37 95<108.376 275.625> 198 141<139.796 245.251> 609 142<35 138 237 340 440 542.5 643.5 746>
VStem: 5 93<-139.626 27.625 142.376 404.624> 14 146<629.375 729.625> 120 146<218.375 318.125> 216 146<629.375 729.625> 419 145<629.375 729.625> 622 145<629.375 729.625> 854 93<-139.626 26.6257>
LayerCount: 2
Fore
SplineSet
5 379 m 2x58e0
 5 388 8 397 16 405 c 0
 24 413 31 415 40 415 c 2
 64 415 l 1
 73 415 81 413 89 405 c 0
 97 397 98 388 98 379 c 2
 98 168 l 1
 98 159 100 150 108 142 c 0
 116 134 125 132 134 132 c 2
 251 132 l 1x58e0
 260 132 268 134 276 142 c 0
 284 150 287 159 287 168 c 2
 287 292 l 1
 287 312 295 330 310 345 c 0
 325 360 344 367 364 367 c 2
 758 367 l 1x98e0
 797 367 836 355 868 328 c 0
 900 301 920 267 928 229 c 2
 947 132 l 1x58e0
 947 97 l 1
 947 3 l 1
 947 -116 l 1
 947 -125 944 -132 936 -140 c 0
 928 -148 920 -150 911 -150 c 2
 887 -150 l 1
 878 -150 869 -148 863 -140 c 0
 857 -132 854 -125 854 -116 c 2
 858 3 l 1
 858 12 856 19 850 27 c 0
 844 35 835 37 826 37 c 2x98e0
 134 37 l 1
 125 37 116 36 108 28 c 0
 100 20 98 12 98 3 c 2
 98 -116 l 1
 98 -125 97 -132 89 -140 c 0
 81 -148 73 -150 64 -150 c 2
 40 -150 l 1
 31 -150 24 -148 16 -140 c 0
 8 -132 5 -125 5 -116 c 2
 5 379 l 2x58e0
120 268 m 0x32e0
 120 307 152 339 192 339 c 0
 232 339 266 307 266 268 c 0
 266 229 232 198 192 198 c 0
 152 198 120 229 120 268 c 0x32e0
14 679 m 0x14e0
 14 718 46 751 86 751 c 0
 126 751 160 718 160 679 c 0
 160 640 126 609 86 609 c 0
 46 609 14 640 14 679 c 0x14e0
216 679 m 0x11e0
 216 718 248 751 288 751 c 0
 328 751 362 718 362 679 c 0
 362 640 328 609 288 609 c 0
 248 609 216 640 216 679 c 0x11e0
419 679 m 0
 419 718 451 751 491 751 c 0
 531 751 564 718 564 679 c 0
 564 640 531 609 491 609 c 0
 451 609 419 640 419 679 c 0
622 679 m 0
 622 718 655 751 695 751 c 0
 735 751 767 718 767 679 c 0
 767 640 735 609 695 609 c 0
 655 609 622 640 622 679 c 0
EndSplineSet
Validated: 1
EndChar

StartChar: bed_quadruple_wc
Encoding: 57383 57383 32
Width: 1072
VWidth: 1364
Flags: W
HStem: 16 330<310.706 844.292> 16 94<108.376 284.16> 176 141<139.796 245.251> 587 143<35 138 237 340 440 542.5 643.5 746 876.141 972> 587 77<1002.17 1029.86> 634 31<984.093 999.859> 752 15<827.141 983.86>
VStem: 5 93<-160.626 6.62427 121.375 382.625> 14 146<607.875 708.625> 120 146<196.875 296.625> 216 146<607.875 708.625> 419 145<607.875 708.625> 622 145<607.875 708.625> 854 93<-160.626 4.62572> 874 98<592.141 632.861> 988 79<735.909 752 770.141 855.859> 1002 30<592.141 628.859>
LayerCount: 2
Fore
SplineSet
5 358 m 2x431c
 5 367 8 375 16 383 c 0
 24 391 31 394 40 394 c 2
 64 394 l 1
 73 394 81 391 89 383 c 0
 97 375 98 367 98 358 c 2
 98 146 l 1
 98 137 100 129 108 121 c 0
 116 113 125 110 134 110 c 2
 251 110 l 1x431c
 260 110 268 113 276 121 c 0
 284 129 287 137 287 146 c 2
 287 271 l 1
 287 291 295 308 310 323 c 0
 325 338 344 346 364 346 c 2
 758 346 l 1x831c
 797 346 836 334 868 307 c 0
 900 280 920 246 928 208 c 2
 947 110 l 1x431c
 947 76 l 1
 947 -19 l 1
 947 -137 l 1
 947 -146 944 -153 936 -161 c 0
 928 -169 920 -172 911 -172 c 2
 887 -172 l 1
 878 -172 869 -169 863 -161 c 0
 857 -153 854 -146 854 -137 c 2
 858 -19 l 1
 858 -10 856 -3 850 5 c 0
 844 13 835 16 826 16 c 2x831c
 134 16 l 1
 125 16 116 15 108 7 c 0
 100 -1 98 -10 98 -19 c 2
 98 -137 l 1
 98 -146 97 -153 89 -161 c 0
 81 -169 73 -172 64 -172 c 2
 40 -172 l 1
 31 -172 24 -169 16 -161 c 0
 8 -153 5 -146 5 -137 c 2
 5 358 l 2x431c
120 247 m 0x2258
 120 286 152 317 192 317 c 0
 232 317 266 286 266 247 c 0
 266 208 232 176 192 176 c 0
 152 176 120 208 120 247 c 0x2258
14 658 m 0x1298
 14 697 46 730 86 730 c 0
 126 730 160 697 160 658 c 0
 160 619 126 587 86 587 c 0
 46 587 14 619 14 658 c 0x1298
216 658 m 0x1238
 216 697 248 730 288 730 c 0
 328 730 362 697 362 658 c 0
 362 619 328 587 288 587 c 0
 248 587 216 619 216 658 c 0x1238
419 658 m 0
 419 697 451 730 491 730 c 0
 531 730 564 697 564 658 c 0
 564 619 531 587 491 587 c 0
 451 587 419 619 419 658 c 0
622 658 m 0
 622 697 655 730 695 730 c 0
 735 730 767 697 767 658 c 0
 767 619 735 587 695 587 c 0
 655 587 622 619 622 658 c 0
988 847 m 2x121b
 988 850 989 853 992 856 c 0
 995 859 998 859 1001 859 c 2
 1055 859 l 1
 1058 859 1061 859 1064 856 c 0
 1067 853 1067 850 1067 847 c 2
 1067 724 l 1
 1067 721 1067 718 1064 715 c 0
 1061 712 1058 712 1055 712 c 2
 1008 712 l 1
 1005 712 1004 710 1001 707 c 0
 998 704 996 701 996 698 c 0
 996 694 997 691 995 688 c 0
 993 685 991 680 988 677 c 2
 986 676 l 0
 984 674 982 672 984 670 c 0
 986 668 987 665 989 665 c 2x061b
 1020 664 l 1
 1023 664 1027 662 1030 659 c 0
 1033 656 1032 653 1032 650 c 2
 1032 601 l 1
 1032 598 1033 595 1030 592 c 0
 1027 589 1023 587 1020 587 c 2
 1014 587 l 1x0a1880
 1011 587 1010 589 1007 592 c 0
 1004 595 1002 598 1002 601 c 2
 1002 620 l 1
 1002 623 1003 626 1000 629 c 0
 997 632 993 634 990 634 c 2x061880
 984 635 l 0
 981 635 979 634 976 632 c 0
 973 630 972 628 972 625 c 2
 972 601 l 1
 972 598 971 595 968 592 c 0
 965 589 962 587 959 587 c 2
 886 587 l 1
 883 587 879 589 876 592 c 0
 873 595 874 598 874 601 c 2
 874 625 l 1
 874 629 872 634 870 637 c 0
 868 640 867 643 864 646 c 2
 840 671 l 1
 833 677 l 1
 830 680 828 685 826 688 c 0
 824 691 824 694 824 698 c 2
 824 724 l 1
 824 727 824 730 827 733 c 0
 830 736 833 736 836 736 c 2
 976 736 l 1
 978 734 980 736 983 736 c 0
 986 736 986 737 988 739 c 0
 988 742 987 745 984 748 c 0
 981 751 979 752 976 752 c 2
 836 752 l 1
 834 750 833 751 830 751 c 0
 827 751 826 752 824 754 c 0
 824 757 824 760 827 763 c 0
 830 766 833 767 836 767 c 2
 976 767 l 1
 979 767 981 767 984 770 c 0
 987 773 988 776 988 779 c 2
 988 847 l 2x121b
EndSplineSet
Validated: 1
EndChar

StartChar: matress
Encoding: 57384 57384 33
Width: 916
VWidth: 1482
Flags: W
HStem: -55 183<30.0441 93.2809> -54 95<856.426 897.575> 104 141<104.749 211.251>
VStem: 84 148<124.375 224.125>
LayerCount: 2
Fore
SplineSet
112 -55 m 2x90
 86 -55 39 -52 29 -31 c 0
 15 -4 5 41 5 77 c 0
 5 95 8 110 12 120 c 0
 15 126 20 128 28 128 c 0x90
 48 128 77 113 95 105 c 2
 209 57 l 0
 218 53 230 53 239 59 c 0
 248 65 252 76 252 86 c 2
 252 227 l 0
 252 239 257 249 266 258 c 0
 275 267 287 271 299 269 c 2
 742 221 l 2
 768 218 792 197 800 171 c 0
 809 143 821 105 839 77 c 0
 853 55 896 57 911 41 c 1
 911 41 911 39 911 -7 c 0
 911 -19 907 -31 898 -40 c 0
 889 -49 876 -54 864 -54 c 2x50
 112 -55 l 2x90
84 174 m 0
 84 213 118 245 158 245 c 0
 198 245 232 213 232 174 c 0
 232 135 198 104 158 104 c 0x30
 118 104 84 135 84 174 c 0
EndSplineSet
Validated: 33
EndChar

StartChar: knife_fork
Encoding: 57408 57408 34
Width: 714
VWidth: 1344
Flags: W
VStem: 5 46<889.888 910.351> 145 94<-161.765 474.916> 164 56<796.72 915.844> 332 47<888.808 909.39> 615 94<-191 183>
LayerCount: 2
Fore
SplineSet
709 932 m 1x98
 709 -191 l 1
 615 -191 l 1
 615 183 l 1
 522 183 l 1
 522 183 505 465 522 604 c 0
 530 668 536 736 568 792 c 0
 601 850 709 932 709 932 c 1x98
51 932 m 1
 91 697 l 2
 95 670 118 651 145 651 c 1xd8
 164 885 l 1
 183 979 201 979 220 885 c 1xb8
 239 651 l 1
 266 651 289 670 293 697 c 2
 332 932 l 1
 358 932 379 911 379 885 c 2
 379 604 l 2
 379 575 364 548 340 532 c 2
 278 490 l 2
 254 474 239 446 239 417 c 2
 239 -145 l 2
 239 -148 239 -150 238 -153 c 0
 238 -154 237 -154 237 -155 c 0
 236 -157 236 -160 235 -162 c 0
 235 -163 l 0
 234 -166 233 -169 231 -171 c 0
 230 -171 l 0
 229 -173 228 -175 226 -177 c 0
 224 -178 l 0
 222 -180 221 -182 219 -183 c 0
 218 -183 l 0
 216 -185 213 -186 210 -187 c 0
 209 -187 210 -188 209 -188 c 0
 207 -189 205 -189 203 -190 c 0
 202 -190 201 -190 200 -190 c 0
 197 -191 195 -191 192 -191 c 0
 186 -191 179 -190 174 -188 c 0
 168 -186 163 -182 159 -178 c 0
 159 -177 l 0
 155 -173 151 -169 149 -163 c 0
 148 -162 l 0
 146 -157 145 -151 145 -145 c 0
 145 417 l 2xd8
 145 446 130 474 106 490 c 2
 44 532 l 2
 20 548 5 575 5 604 c 2
 5 885 l 2
 5 911 25 932 51 932 c 1
EndSplineSet
Validated: 33
EndChar

StartChar: shopping_cart
Encoding: 57409 57409 35
Width: 1102
VWidth: 1373
Flags: W
HStem: -168 162<199.021 316.354 815.498 932.354> 18 56<224.112 968.266> 762 56<9.92406 54.3862>
VStem: 153.688 56<89.4248 135.895> 172.688 170<-141.568 -32.4323> 789.688 169<-141.568 -32.4323>
LayerCount: 2
Fore
SplineSet
6.6875 797 m 0xf4
 16.6875 807 29.6875 815 44.6875 818 c 0
 59.6875 821 74.6875 820 87.6875 816 c 2
 162.6875 792 l 1
 176.6875 788 189.6875 779 200.6875 768 c 0
 211.6875 757 218.6875 744 222.6875 730 c 2
 271.6875 565 l 1
 1055.6875 510 l 0
 1067.6875 509 1078.6875 503 1086.6875 493 c 0
 1094.6875 483 1098.6875 471 1096.6875 459 c 2
 1054.6875 176 l 1
 1052.6875 163 1046.6875 151 1035.6875 142 c 0
 1024.6875 133 1012.6875 129 999.6875 129 c 2
 257.6875 129 l 1
 250.6875 134 241.6875 137 232.6875 136 c 0
 223.6875 135 214.6875 130 209.6875 123 c 0
 209.6875 111 214.6875 98 223.6875 89 c 0
 232.6875 80 245.6875 74 257.6875 74 c 2
 943.6875 74 l 1
 950.6875 80 959.6875 83 968.6875 82 c 0
 977.6875 81 985.6875 76 991.6875 69 c 0
 991.6875 57 986.6875 44 977.6875 35 c 0
 968.6875 26 955.6875 20 943.6875 20 c 2
 201.6875 18 l 1
 189.6875 18 176.6875 23 167.6875 32 c 0
 158.6875 41 153.6875 54 153.6875 66 c 2
 153.6875 177 l 1
 153.6875 620 l 1
 153.6875 674 l 1
 153.6875 688 149.6875 701 140.6875 713 c 0
 131.6875 725 120.6875 734 107.6875 738 c 2
 31.6875 762 l 0
 22.6875 761 14.6875 765 9.6875 772 c 0
 4.6875 779 3.6875 789 6.6875 797 c 0xf4
172.6875 -87 m 0xec
 172.6875 -42 210.6875 -6 257.6875 -6 c 0
 304.6875 -6 342.6875 -42 342.6875 -87 c 0
 342.6875 -132 304.6875 -168 257.6875 -168 c 0
 210.6875 -168 172.6875 -132 172.6875 -87 c 0xec
789.6875 -87 m 0
 789.6875 -42 826.6875 -6 873.6875 -6 c 0
 920.6875 -6 958.6875 -42 958.6875 -87 c 0
 958.6875 -132 920.6875 -168 873.6875 -168 c 0
 826.6875 -168 789.6875 -132 789.6875 -87 c 0
EndSplineSet
Validated: 33
EndChar

StartChar: bank
Encoding: 57410 57410 36
Width: 993
VWidth: 1420
Flags: W
HStem: -161 246<301.199 439.526> -115 245<141.199 228.58> 7 82<705.419 860.581> 91 10<342.254 407.168> 136 11<180.031 249.922> 171 246<121.824 294.375 705.419 860.581> 499 123<9.41913 983.581>
VStem: 5 63<11.4191 114.7> 87 142<-61.4844 63.1339> 493 10<-30.8317 5.09183> 865 123<93.4191 166.581>
LayerCount: 2
Fore
SplineSet
46 622 m 2x0fe0
 947 622 l 2
 970 622 988 604 988 581 c 2
 988 499 l 1
 5 499 l 1
 5 581 l 2
 5 604 23 622 46 622 c 2x0fe0
5 417 m 1
 988 417 l 1
 988 48 l 2
 988 25 970 7 947 7 c 2
 509 7 l 1x2fe0
 507 23 502 39 494 54 c 0
 479 83 453 107 423 119 c 0
 406 126 387 130 368 130 c 0x4fe0
 352 130 336 127 321 121 c 1
 306 142 285 158 261 168 c 0
 244 175 226 178 207 178 c 0
 172 178 137 164 112 140 c 0
 87 117 71 85 68 51 c 0
 67 44 68 36 68 29 c 0
 68 22 68 14 69 7 c 1
 46 7 l 2x2fe0
 23 7 5 25 5 48 c 2
 5 417 l 1
742 171 m 2
 719 171 701 153 701 130 c 0x4fe0
 701 107 719 89 742 89 c 2
 824 89 l 2x2fe0
 847 89 865 107 865 130 c 0x4fe0
 865 153 847 171 824 171 c 2
 742 171 l 2
215 147 m 0
 249 147 279 133 302 112 c 1
 299 110 296 109 293 107 c 0
 272 125 245 136 215 136 c 0
 183 136 153 123 132 102 c 1
 153 120 180 130 210 130 c 0
 239 130 265 120 286 103 c 1
 282 100 278 96 274 92 c 0
 249 69 233 37 230 3 c 0
 229 -4 229 -13 229 -20 c 0
 229 -32 230 -44 233 -55 c 0
 238 -73 247 -90 258 -105 c 1
 243 -112 227 -115 210 -115 c 0x4fe0
 142 -115 87 -61 87 7 c 0x2fe0
 87 8 87 10 87 11 c 0
 87 14 87 16 87 19 c 0
 87 90 144 147 215 147 c 0
375 101 m 0x9fe0
 446 101 503 44 503 -27 c 0
 503 -68 483 -105 453 -128 c 0
 431 -148 402 -161 370 -161 c 0
 302 -161 247 -106 247 -38 c 0
 247 -37 247 -36 247 -35 c 0
 247 -32 247 -30 247 -27 c 0
 247 44 304 101 375 101 c 0x9fe0
375 91 m 2
 343 91 313 78 292 57 c 1
 313 75 340 85 370 85 c 0
 436 85 490 33 493 -32 c 1
 493 -30 493 -29 493 -27 c 0
 493 38 440 91 375 91 c 2
EndSplineSet
Validated: 1
EndChar

StartChar: pestle
Encoding: 57411 57411 37
Width: 988
VWidth: 1365
Flags: W
VStem: 5 978<218.596 390.576>
LayerCount: 2
Fore
SplineSet
5 359 m 2
 5 370 9 382 18 391 c 0
 27 400 38 404 49 404 c 2
 491 404 l 1
 541 404 l 1
 939 404 l 1
 950 404 961 400 970 391 c 0
 979 382 983 370 983 359 c 2
 983 334 978 296 973 272 c 0
 967 245 959 211 951 180 c 0
 944 156 931 118 921 96 c 0
 919 93 918 90 916 87 c 0
 905 65 882 32 866 14 c 0
 858 5 848 -4 839 -12 c 0
 821 -28 788 -51 766 -62 c 0
 763 -64 760 -66 757 -67 c 0
 735 -77 716 -104 716 -129 c 0
 716 -140 712 -151 703 -160 c 0
 694 -169 682 -173 671 -173 c 2
 449 -173 l 1
 316 -173 l 1
 305 -173 294 -169 285 -160 c 0
 276 -151 272 -140 272 -129 c 0
 272 -104 253 -77 231 -67 c 0
 228 -66 225 -64 222 -62 c 0
 200 -51 167 -28 149 -12 c 0
 140 -4 130 5 122 14 c 0
 106 32 82 65 71 87 c 0
 69 90 69 93 67 96 c 0
 57 118 44 156 37 180 c 0
 29 211 20 244 14 271 c 0
 9 295 5 334 5 359 c 2
361 448 m 1
 361 448 694 715 849 848 c 0
 860 858 879 854 893 848 c 0
 912 840 930 822 938 803 c 0
 944 789 947 770 938 759 c 0
 827 626 671 448 671 448 c 1
 361 448 l 1
EndSplineSet
Validated: 33
EndChar

StartChar: first_aid
Encoding: 57412 57412 38
Width: 1065
VWidth: 1358
Flags: W
HStem: -173 72<77.3682 986.259> 232 246<217.377 397.623 667.377 847.623> 810 72<78.7413 987.632>
VStem: 5 72<-99.2587 809.632> 410 245<39.3772 219.623 490.377 669.624> 988 72<-100.632 808.259>
CounterMasks: 1 1c
LayerCount: 2
Fore
SplineSet
451 682 m 2
 614 682 l 2
 624 682 635 678 643 670 c 0
 651 662 655 652 655 642 c 1
 655 519 l 2
 655 509 659 498 667 490 c 0
 675 482 686 478 696 478 c 1
 819 478 l 2
 829 478 840 474 848 466 c 0
 856 458 860 447 860 437 c 1
 860 273 l 2
 860 263 856 252 848 244 c 0
 840 236 829 232 819 232 c 1
 696 232 l 2
 686 232 675 228 667 220 c 0
 659 212 655 201 655 191 c 1
 655 68 l 2
 655 58 651 47 643 39 c 0
 635 31 624 27 614 27 c 1
 451 27 l 2
 441 27 430 31 422 39 c 0
 414 47 410 58 410 68 c 1
 410 191 l 2
 410 201 406 212 398 220 c 0
 390 228 379 232 369 232 c 1
 246 232 l 2
 236 232 225 236 217 244 c 0
 209 252 205 263 205 273 c 1
 205 437 l 2
 205 447 209 458 217 466 c 0
 225 474 236 478 246 478 c 1
 369 478 l 2
 379 478 390 482 398 490 c 0
 406 498 410 509 410 519 c 1
 410 642 l 2
 410 652 414 662 422 670 c 0
 430 678 441 682 451 682 c 2
43 871 m 0
 62 882 100 882 123 882 c 2
 942 882 l 2
 965 882 1003 882 1022 871 c 0
 1033 864 1042 855 1049 844 c 0
 1060 825 1060 787 1060 764 c 2
 1060 -55 l 2
 1060 -78 1060 -116 1049 -135 c 0
 1042 -146 1033 -155 1022 -162 c 0
 1003 -173 965 -173 942 -173 c 2
 123 -173 l 2
 100 -173 62 -173 43 -162 c 0
 32 -155 23 -146 16 -135 c 0
 5 -116 5 -78 5 -55 c 2
 5 764 l 2
 5 787 5 825 16 844 c 0
 23 855 32 864 43 871 c 0
123 810 m 1
 82 810 l 2
 78 810 77 787 77 764 c 2
 77 -96 l 2
 77 -100 100 -101 123 -101 c 2
 983 -101 l 2
 987 -101 988 -78 988 -55 c 2
 988 805 l 2
 988 809 965 810 942 810 c 2
 123 810 l 1
EndSplineSet
Validated: 1
EndChar

StartChar: bicycle_repair
Encoding: 57413 57413 39
Width: 1085
VWidth: 1365
Flags: W
HStem: -160 71<148.512 301.351 783.512 936.351> 208 72<148.512 279.762> 428 72<191.812 225 401 434.188> 495 72<601.812 635 728 731.18> 700 72<279.547 457.4>
VStem: 5 71<-16.4878 136.351> 373 72<-16.4878 159.43> 640 71<-16.4878 136.351> 763 35<290 319> 1008 72<-16.4878 136.351>
LayerCount: 2
Fore
SplineSet
373 60 m 0xcfc0
 373 -22 307 -89 225 -89 c 0
 143 -89 76 -22 76 60 c 0
 76 142 143 208 225 208 c 0
 307 208 373 142 373 60 c 0xcfc0
445 60 m 0
 445 182 347 280 225 280 c 0
 103 280 5 182 5 60 c 0
 5 -62 103 -160 225 -160 c 0
 347 -160 445 -62 445 60 c 0
1008 60 m 0
 1008 -22 942 -89 860 -89 c 0
 778 -89 711 -22 711 60 c 0
 711 142 778 208 860 208 c 0
 942 208 1008 142 1008 60 c 0
1080 60 m 0
 1080 182 982 280 860 280 c 0
 738 280 640 182 640 60 c 0
 640 -62 738 -160 860 -160 c 0
 982 -160 1080 -62 1080 60 c 0
195 103 m 0
 179 79 197 47 225 47 c 2
 553 45 l 2
 580 45 597 74 584 98 c 2
 477 290 l 1
 798 290 l 1
 798 362 l 1
 437 362 l 1
 379 467 l 2
 316 432 l 1
 362 350 l 1
 360 348 360 348 195 103 c 0
491 117 m 1
 292 118 l 1
 401 280 l 1
 491 117 l 1
860 24 m 0
 883 24 900 46 895 68 c 2
 833 334 l 1
 793 538 l 2
 790 554 774 567 757 567 c 2
 635 567 l 2
 615 567 599 551 599 531 c 0
 599 511 615 495 635 495 c 2
 728 495 l 1xdfc0
 763 318 763 319 763 318 c 2
 825 52 l 2
 829 36 843 24 860 24 c 0
225 500 m 2xefc0
 205 500 189 484 189 464 c 0
 189 444 205 428 225 428 c 2
 401 428 l 2
 421 428 437 444 437 464 c 0
 437 484 421 500 401 500 c 2
 225 500 l 2xefc0
143 818 m 1
 143 818 193 854 243 825 c 0
 260 815 274 803 284 788 c 0
 288 783 290 778 293 772 c 2
 443 772 l 2
 446 778 449 783 453 788 c 0
 463 803 476 815 493 825 c 0
 543 854 599 834 599 834 c 1
 594 782 l 1
 594 782 562 782 529 763 c 0
 523 759 515 752 511 746 c 0
 508 741 507 739 507 738 c 0
 507 737 508 735 511 732 c 0
 516 727 524 720 533 713 c 0
 564 690 594 690 594 690 c 1
 594 654 l 1
 594 654 541 618 491 655 c 0
 480 663 468 672 457 684 c 0
 453 689 450 694 446 700 c 2
 291 700 l 2
 287 694 283 689 279 684 c 0
 268 672 257 663 246 655 c 0
 196 618 143 654 143 654 c 1
 143 690 l 1
 143 690 172 690 203 713 c 0
 212 720 221 727 226 732 c 0
 229 735 230 737 230 738 c 0
 230 739 228 741 225 746 c 0
 221 752 213 759 207 763 c 0
 174 782 143 777 143 777 c 1
 143 818 l 1
EndSplineSet
Validated: 37
EndChar

StartChar: tent_open
Encoding: 57369 57369 40
Width: 1073
VWidth: 2146
Flags: W
HStem: -157 96<116.688 485.312 595.688 954.312> -86 1<532.364 541.62>
VStem: 511 2<-67.3123 492> 535 1<761.419 786.443> 561 1<-65.4756 -61> 562 2<-60.6273 492>
LayerCount: 2
Fore
SplineSet
534 784 m 1xb8
 535 760 535 759 536 759 c 0
 537 759 538 760 539 787 c 1
 559 762 723 555 817 456 c 0
 893 377 1056 235 1066 226 c 1
 1012 -157 l 1
 965 -153 l 1
 968 -132 999 82 964 134 c 0
 881 258 632 444 563 495 c 0
 562 496 561 496 561 495 c 2
 559 -61 l 2
 559 -74 550 -84 537 -84 c 0
 524 -84 514 -74 514 -61 c 2
 516 494 l 2
 516 495 515 496 514 495 c 0
 452 450 193 258 108 131 c 0
 73 79 105 -138 108 -156 c 1
 61 -160 l 1
 7 223 l 1
 17 232 180 374 256 453 c 0
 350 552 514 759 534 784 c 1xb8
539 791 m 2
 538 792 536 792 536 787 c 1
 536 788 535 789 534 788 c 2
 534 788 354 560 254 455 c 0
 176 373 5 224 5 224 c 2
 5 224 5 224 59 -161 c 0
 59 -162 59 -162 60 -162 c 2
 110 -158 l 2
 111 -158 111 -158 111 -157 c 0
 111 -154 75 77 110 130 c 0
 193 255 448 444 513 492 c 1
 511 -61 l 0xb4
 511 -75 523 -86 537 -86 c 0x74
 551 -86 562 -75 562 -61 c 2xb8
 562 -61 564 453 564 492 c 1xb4
 636 439 880 256 962 133 c 0
 974 115 978 78 978 35 c 0
 978 -50 962 -154 962 -154 c 0
 962 -155 962 -155 963 -155 c 2
 1013 -159 l 0
 1014 -159 1014 -159 1014 -158 c 0
 1068 227 1068 227 1068 227 c 2
 1068 227 897 376 819 458 c 0
 719 563 539 791 539 791 c 2
537 -86 m 1x70
 537 -86 l 1x70
511 -61 m 1xb0
 511 -61 l 1xb0
538 790 m 1
 538 790 718 562 818 457 c 0
 896 375 1067 226 1067 226 c 1
 1013 -158 l 1
 963 -154 l 1
 963 -154 999 80 963 134 c 0
 880 258 631 444 562 495 c 1xb4
 561 -61 l 1xb8
 561 -74 550 -85 537 -85 c 0x78
 524 -85 513 -74 513 -61 c 0
 515 494 l 1
 453 449 194 257 109 130 c 0
 73 76 109 -157 109 -157 c 1
 60 -161 l 1
 6 223 l 1
 6 223 177 372 255 454 c 0
 355 559 535 787 535 787 c 1
 535 775 536 770 536 761 c 1
 536 771 537 776 538 790 c 1
157 -61 m 2
 445 -61 l 2
 471 -61 493 -83 493 -109 c 0
 493 -135 471 -157 445 -157 c 2
 157 -157 l 1
 131 -157 109 -135 109 -109 c 0
 109 -83 131 -61 157 -61 c 2
636 -61 m 2
 914 -61 l 2
 940 -61 962 -83 962 -109 c 0
 962 -135 940 -157 914 -157 c 2
 636 -157 l 2
 610 -157 588 -135 588 -109 c 0
 588 -83 610 -61 636 -61 c 2
EndSplineSet
Validated: 41
EndChar

StartChar: cabin
Encoding: 57370 57370 41
Width: 1064
VWidth: 2144
Flags: W
HStem: -160.303 40.918<64.3536 79.2646 79.915 991.437> -82.7217 1.04883<135.375 922.252> 197.648 1.04883<622.12 626.247 790.087 794.215> 401.399 1.04883<622.12 794.215> 503.08 1.04688<9.38279 60.1172 1001.91 1040.59> 505.176 30.8906<10.6974 41.5712>
VStem: 96.7666 1.04883<-43.3122 465.621> 605.768 1.04883<214 386.095> 809.519 1.04883<214 386.095> 959.812 1.04883<-43.3122 465.594>
LayerCount: 2
Fore
SplineSet
626.247070312 401.399414062 m 2
 790.086914062 401.399414062 l 2
 800.821289062 401.399414062 809.518554688 392.69921875 809.518554688 381.967773438 c 2
 809.518554688 218.127929688 l 2
 809.518554688 207.393554688 800.821289062 198.697265625 790.086914062 198.697265625 c 2
 626.247070312 198.697265625 l 2
 615.515625 198.697265625 606.81640625 207.393554688 606.81640625 218.127929688 c 2
 606.81640625 381.967773438 l 2
 606.81640625 392.69921875 615.515625 401.399414062 626.247070312 401.399414062 c 2
626.247070312 403.497070312 m 2
 614.358398438 403.497070312 604.71875 393.856445312 604.71875 381.967773438 c 2
 604.71875 218.127929688 l 2
 604.71875 206.236328125 614.358398438 196.599609375 626.247070312 196.599609375 c 2
 790.086914062 196.599609375 l 2
 801.977539062 196.599609375 811.616210938 206.23828125 811.616210938 218.127929688 c 2
 811.616210938 381.967773438 l 2
 811.616210938 393.856445312 801.977539062 403.497070312 790.086914062 403.497070312 c 2
 626.247070312 403.497070312 l 2
903.262695312 787.966796875 m 1
 941.911132812 805.811523438 986.41015625 783.756835938 997.923828125 741.54296875 c 0
 1057.16503906 523.76171875 1057.16503906 523.76171875 1057.16503906 521.361328125 c 0
 1057.16503906 512.141601562 1050.02636719 504.208007812 1040.60449219 504.208007812 c 0
 1014.38964844 504.524414062 1002.890625 504.663085938 1002.50976562 504.663085938 c 0
 978.341796875 504.663085938 958.762695312 484.149414062 958.762695312 458.879882812 c 2
 958.762695312 -36.4208984375 l 2
 958.762695312 -60.875 939.846679688 -80.6240234375 916.607421875 -80.6240234375 c 2
 141.01953125 -80.6240234375 l 2
 117.779296875 -80.6240234375 98.8642578125 -60.875 98.8642578125 -36.4208984375 c 2
 98.8642578125 458.879882812 l 2
 98.8623046875 484.40625 79.0927734375 505.17578125 54.615234375 505.17578125 c 2
 11.314453125 505.17578125 l 2
 3.0224609375 505.174804688 8.2529296875 532.338867188 16.3330078125 536.06640625 c 2
 903.262695312 787.966796875 l 1
15.45703125 537.97265625 m 2
 5.4814453125 533.370117188 -0.0244140625 503.077148438 11.314453125 503.080078125 c 2
 54.615234375 503.080078125 l 2
 77.853515625 503.080078125 96.7646484375 483.333984375 96.7666015625 458.879882812 c 2
 96.7666015625 -36.4208984375 l 2
 96.7666015625 -61.9482421875 116.5390625 -82.7216796875 141.01953125 -82.7216796875 c 2
 916.607421875 -82.7216796875 l 2
 941.087890625 -82.7216796875 960.860351562 -61.9482421875 960.860351562 -36.4208984375 c 2
 960.860351562 458.879882812 l 2
 960.860351562 483.243164062 979.842773438 502.83984375 1002.99511719 502.5625 c 0
 1040.68554688 502.110351562 1040.68554688 502.110351562 1040.796875 502.110351562 c 0
 1053.06640625 502.110351562 1061.89941406 514.385742188 1058.54296875 526.682617188 c 2
 999.946289062 742.095703125 l 2
 988.024414062 785.810546875 941.890625 808.084960938 902.688476562 789.984375 c 0
 902.537109375 789.928710938 15.45703125 537.97265625 15.45703125 537.97265625 c 2
926.159179688 795.032226562 m 0
 959.392578125 797.6015625 989.782226562 775.380859375 998.935546875 741.8203125 c 2
 1057.53125 526.407226562 l 2
 1060.73339844 514.673828125 1052.24121094 503.021484375 1040.59179688 503.16015625 c 2
 1003.0078125 503.611328125 l 2
 979.23046875 503.895507812 959.811523438 483.78515625 959.811523438 458.879882812 c 2
 959.811523438 -36.4208984375 l 2
 959.811523438 -61.412109375 940.467773438 -81.6728515625 916.607421875 -81.6728515625 c 2
 141.01953125 -81.6728515625 l 2
 117.158203125 -81.6728515625 97.8154296875 -61.412109375 97.8154296875 -36.4208984375 c 2
 97.8154296875 458.879882812 l 2
 97.8134765625 483.870117188 78.4736328125 504.126953125 54.615234375 504.126953125 c 2
 11.314453125 504.126953125 l 2
 1.4677734375 504.125976562 6.884765625 532.861328125 15.8955078125 537.020507812 c 2
 902.975585938 788.9765625 l 2
 910.317382812 792.366210938 918.158203125 794.4140625 926.159179688 795.032226562 c 0
626.247070312 402.448242188 m 2
 614.9375 402.448242188 605.767578125 393.278320312 605.767578125 381.967773438 c 2
 605.767578125 218.127929688 l 2
 605.767578125 206.81640625 614.9375 197.6484375 626.247070312 197.6484375 c 2
 790.086914062 197.6484375 l 2
 801.3984375 197.6484375 810.567382812 206.81640625 810.567382812 218.127929688 c 2
 810.567382812 381.967773438 l 2
 810.567382812 393.278320312 801.3984375 402.448242188 790.086914062 402.448242188 c 2
 626.247070312 402.448242188 l 2
79.2646484375 -119.384765625 m 2
 976.526367188 -119.384765625 l 2
 981.995117188 -119.384765625 987.46484375 -121.381835938 991.633789062 -125.373046875 c 0
 995.80078125 -129.366210938 997.889648438 -134.607421875 997.889648438 -139.844726562 c 0
 997.889648438 -145.081054688 995.805664062 -150.318359375 991.63671875 -154.311523438 c 0
 987.46875 -158.302734375 981.995117188 -160.302734375 976.526367188 -160.302734375 c 1
 976.53125 -160.299804688 79.2646484375 -160.302734375 79.2646484375 -160.302734375 c 2
 73.794921875 -160.302734375 68.326171875 -158.307617188 64.1572265625 -154.314453125 c 0
 59.98828125 -150.322265625 57.9013671875 -145.081054688 57.9013671875 -139.844726562 c 0
 57.9013671875 -134.607421875 59.9853515625 -129.369140625 64.1533203125 -125.377929688 c 0
 68.322265625 -121.385742188 73.794921875 -119.384765625 79.2646484375 -119.384765625 c 2
EndSplineSet
Validated: 524329
EndChar

StartChar: train
Encoding: 57414 57414 70
Width: 1075
VWidth: 1379
Flags: W
HStem: 48 122<482.979 593.021> 334 82<482.979 593.021> 826 82<141.199 933.801>
VStem: 5 451<196.979 307.021> 5 82<442.172 771.801> 620 450<196.979 307.021> 988 82<442.172 771.801>
LayerCount: 2
Fore
SplineSet
210 908 m 2xe8
 865 908 l 2
 978 908 1070 816 1070 703 c 2xea
 1070 252 l 2
 1070 139 978 48 865 48 c 2
 210 48 l 2
 97 48 5 139 5 252 c 2xf4
 5 703 l 2
 5 816 97 908 210 908 c 2xe8
210 826 m 2
 142 826 87 771 87 703 c 2
 87 498 l 2
 87 430 142 416 210 416 c 2
 865 416 l 2
 933 416 988 430 988 498 c 2
 988 703 l 2
 988 771 933 826 865 826 c 2
 210 826 l 2
538 334 m 0
 493 334 456 297 456 252 c 0
 456 207 493 170 538 170 c 0
 583 170 620 207 620 252 c 0xf4
 620 297 583 334 538 334 c 0
210 7 m 1
 292 7 l 1
 169 -280 l 1
 46 -280 l 1
 210 7 l 1
865 7 m 1
 1029 -280 l 1
 906 -280 l 1
 783 7 l 1
 865 7 l 1
EndSplineSet
Validated: 1
EndChar

StartChar: bus
Encoding: 57415 57415 71
Width: 1083
VWidth: 1365
Flags: W
HStem: -48 41<294.336 299.336 779.336 786.336> 157 82<199.76 308.904 769.315 877.808> 770 163<316.857 764.385> 770 124<143.852 213.336>
VStem: 8.33594 82<290.105 716.049> 131.336 163<-229.047 -48> 335.336 407<19.9791 130.021> 786.336 164<-229.047 -48> 991.336 82<292.516 715.801>
LayerCount: 2
Fore
SplineSet
540.3359375 933 m 0xef80
 650.3359375 933 868.3359375 894 868.3359375 894 c 2
 981.3359375 881 1073.3359375 803 1073.3359375 690 c 2
 1073.3359375 239 l 2
 1073.3359375 126 1109.3359375 -48 996.3359375 -48 c 2
 950.3359375 -48 l 1
 950.3359375 -211 l 2
 950.3359375 -266 786.3359375 -266 786.3359375 -211 c 2
 786.3359375 -48 l 1
 294.3359375 -48 l 1
 294.3359375 -211 l 2
 294.3359375 -266 131.3359375 -266 131.3359375 -211 c 2
 131.3359375 -48 l 1
 92.3359375 -48 l 2
 -20.6640625 -48 8.3359375 126 8.3359375 239 c 2
 8.3359375 690 l 2
 8.3359375 803 100.3359375 894 213.3359375 894 c 1xdf80
 213.3359375 894 430.3359375 933 540.3359375 933 c 0xef80
212.3359375 770 m 2
 144.3359375 770 90.3359375 715 90.3359375 647 c 2
 90.3359375 361 l 2
 90.3359375 293 144.3359375 239 212.3359375 239 c 2
 868.3359375 239 l 2
 936.3359375 239 991.3359375 293 991.3359375 361 c 2
 991.3359375 647 l 2
 991.3359375 715 936.3359375 770 868.3359375 770 c 2
 212.3359375 770 l 2
254.3359375 157 m 0
 209.3359375 157 172.3359375 120 172.3359375 75 c 0
 172.3359375 30 209.3359375 -7 254.3359375 -7 c 0
 299.3359375 -7 335.3359375 30 335.3359375 75 c 0
 335.3359375 120 299.3359375 157 254.3359375 157 c 0
824.3359375 157 m 0
 779.3359375 157 742.3359375 120 742.3359375 75 c 0
 742.3359375 30 779.3359375 -7 824.3359375 -7 c 0
 869.3359375 -7 906.3359375 30 906.3359375 75 c 0
 906.3359375 120 869.3359375 157 824.3359375 157 c 0
EndSplineSet
Validated: 33
EndChar

StartChar: wifi
Encoding: 57440 57440 72
Width: 1115
VWidth: 1445
Flags: W
HStem: -223 307<479.168 638.832> 206 122<450.334 670.402> 462 123<418.254 700.764>
VStem: 405 308<-149.558 9.83157>
LayerCount: 2
Fore
SplineSet
405 -70 m 0
 405 15 474 84 559 84 c 0
 644 84 713 15 713 -70 c 0
 713 -155 644 -223 559 -223 c 0
 474 -223 405 -155 405 -70 c 0
229 12 m 0
 221 13 213 15 206 19 c 0
 187 29 174 51 174 74 c 0
 174 85 176 94 181 103 c 0
 256 241 401 327 558 328 c 0
 715 329 861 243 937 105 c 0
 942 96 944 87 944 76 c 0
 944 53 931 32 912 22 c 0
 903 17 894 14 883 14 c 0
 860 14 839 27 829 46 c 0
 775 145 672 206 559 206 c 0
 446 206 343 143 289 44 c 0
 279 25 258 12 235 12 c 0
 233 12 231 12 229 12 c 0
59 171 m 0
 51 172 44 174 37 178 c 0
 18 189 5 209 5 232 c 0
 5 243 8 253 13 262 c 0
 126 461 333 584 557 585 c 0
 781 586 988 464 1102 266 c 0
 1107 257 1110 247 1110 236 c 0
 1110 213 1098 193 1080 182 c 0
 1071 177 1060 174 1049 174 c 0
 1026 174 1007 187 996 205 c 0
 903 366 736 463 557 462 c 0
 378 461 212 363 120 201 c 0
 109 182 90 170 67 170 c 0
 64 170 62 171 59 171 c 0
EndSplineSet
Validated: 33
EndChar

StartChar: washing_machine
Encoding: 57441 57441 73
Width: 1095
VWidth: 1349
Flags: W
HStem: -193 6<43.7842 1051.22> 19 6<519.412 575.241> 739 6<114 297> 788 6<553 736 797 931> 831 6<114 297 553 736 797 931> 843 85<102 309 541 748 785 943> 934 6<43.7842 1051.22>
VStem: 5 6<-154.216 902.124> 17 85<733 843> 108 6<745 831> 297 6<745 831> 395 6<139.986 203.836> 407 24<152.57 245.581> 492 6<218.5 261.998> 514 173<145.746 249.819> 547 6<794 831> 693 7<137.657 204.454> 736 6<794 831> 748 37<782 843> 791 6<794 831> 931 6<794 831> 943 134<782 843> 1084 6<-154.216 902.124>
LayerCount: 2
Fore
SplineSet
499 584 m 0xfffcfe
 352 563 236 448 215 302 c 0
 211 276 211 232 215 206 c 0
 236 60 352 -55 499 -76 c 0
 525 -80 569 -80 595 -76 c 0
 742 -55 858 60 879 206 c 0
 883 232 883 276 879 302 c 0
 858 448 742 563 595 584 c 0
 569 588 525 588 499 584 c 0xfffcfe
597 596 m 0
 570 600 525 600 498 596 c 0
 346 574 225 454 203 303 c 0
 199 276 199 231 203 204 c 0
 225 53 346 -66 498 -88 c 0
 525 -92 570 -92 597 -88 c 0
 749 -66 869 53 891 204 c 0
 895 231 895 276 891 303 c 0
 869 454 749 574 597 596 c 0
541 837 m 2
 541 788 l 2
 541 785 544 782 547 782 c 2
 742 782 l 2
 745 782 748 785 748 788 c 2
 748 837 l 2
 748 840 745 843 742 843 c 2
 547 843 l 2xfffdfe
 544 843 541 840 541 837 c 2
785 837 m 2
 785 788 l 2
 785 785 788 782 791 782 c 2
 937 782 l 2
 940 782 943 785 943 788 c 2
 943 837 l 2
 943 840 940 843 937 843 c 2
 791 843 l 2
 788 843 785 840 785 837 c 2
102 837 m 2
 102 739 l 2
 102 736 105 733 108 733 c 2
 303 733 l 2
 306 733 309 736 309 739 c 2
 309 837 l 2
 309 840 306 843 303 843 c 2
 108 843 l 2
 105 843 102 840 102 837 c 2
60 928 m 2
 1035 928 l 2
 1059 928 1077 910 1077 886 c 2
 1077 -138 l 2
 1077 -162 1059 -181 1035 -181 c 2
 60 -181 l 2
 36 -181 17 -162 17 -138 c 2
 17 886 l 2
 17 910 36 928 60 928 c 2
60 940 m 2
 1035 940 l 2
 1065 940 1090 916 1090 886 c 2
 1090 -138 l 2
 1090 -168 1065 -193 1035 -193 c 2
 60 -193 l 2
 30 -193 5 -168 5 -138 c 2
 5 886 l 2
 5 916 30 940 60 940 c 2
553 794 m 1
 736 794 l 1
 736 831 l 1
 553 831 l 1
 553 794 l 1
797 794 m 1
 931 794 l 1
 931 831 l 1
 797 831 l 1
 797 794 l 1
114 745 m 1
 297 745 l 1
 297 831 l 1
 114 831 l 1
 114 745 l 1
60 934 m 2
 33 934 11 913 11 886 c 2
 11 -138 l 2
 11 -165 33 -187 60 -187 c 1
 1035 -187 l 2
 1062 -187 1084 -165 1084 -138 c 0
 1084 886 l 2
 1084 913 1062 934 1035 934 c 0
 60 934 l 2
108 837 m 1
 303 837 l 1
 303 739 l 1
 108 739 l 1
 108 837 l 1
791 837 m 1
 937 837 l 1
 937 788 l 1
 791 788 l 1
 791 837 l 1
547 837 m 1
 742 837 l 1
 742 788 l 1
 547 788 l 1
 547 837 l 1
547 592 m 0
 565 592 583 592 596 590 c 0
 746 569 864 451 885 302 c 0
 889 275 889 232 885 205 c 0
 864 56 746 -61 596 -82 c 0
 569 -86 526 -86 499 -82 c 0
 349 -61 230 56 209 205 c 0
 205 232 205 275 209 302 c 0
 230 451 349 569 499 590 c 0
 512 592 529 592 547 592 c 0
514 176 m 0xfffefe
 514 196 505 223 505 242 c 0
 505 256 512 281 518 298 c 0
 521 299 528 316 525 321 c 0
 529 338 534 363 534 379 c 0
 534 384 529 386 525 384 c 0
 506 375 497 353 489 335 c 0
 482 320 480 318 473 308 c 0
 466 299 458 288 453 263 c 0
 447 234 431 202 431 178 c 0
 431 146 467 130 501 149 c 0
 511 154 514 166 514 176 c 0xfffefe
425 275 m 1
 425 275 464 331 483 371 c 0
 502 411 541 515 541 515 c 2
 543 520 551 520 553 515 c 0
 554 512 592 410 611 371 c 0
 630 331 669 275 669 275 c 2
 689 245 700 206 700 167 c 0
 700 85 631 19 547 19 c 0xfffdfe
 465 19 398 82 395 162 c 0
 395 163 391 224 425 275 c 1
492 242 m 0
 492 263 505 297 511 312 c 0
 515 332 519 349 521 365 c 1
 513 356 506 343 500 330 c 0
 498 326 496 321 494 317 c 0
 483 296 472 295 465 260 c 0
 459 231 443 198 443 178 c 0
 443 155 471 146 496 160 c 0
 511 168 492 214 492 242 c 0
407 164 m 0
 407 182 407 226 435 268 c 0
 435 268 474 325 494 366 c 0
 509 397 535 465 547 495 c 1xfffdfe
 559 465 585 397 600 366 c 0
 620 325 659 268 659 268 c 0
 678 240 687 204 687 167 c 0xfffefe
 687 92 625 31 547 31 c 0
 471 31 409 90 407 164 c 0
547 512 m 1
 547 512 509 409 489 369 c 0
 469 329 430 271 430 271 c 2
 410 242 401 205 401 167 c 0
 401 166 401 165 401 164 c 2
 403 87 468 25 547 25 c 0
 628 25 693 88 693 167 c 0
 693 205 684 242 664 271 c 2
 664 271 626 329 606 369 c 0
 586 409 547 512 547 512 c 1
528 379 m 1
 528 360 520 325 517 310 c 1
 520 318 521 320 518 310 c 0
 514 299 515 302 517 310 c 1
 511 295 498 261 498 242 c 0
 498 213 519 165 498 154 c 0
 477 143 451 143 440 164 c 0
 429 185 452 225 459 261 c 0
 466 297 479 300 489 320 c 0
 499 340 508 369 528 379 c 1
EndSplineSet
Validated: 33
EndChar

StartChar: dryer
Encoding: 57442 57442 74
Width: 1106
VWidth: 1350
Flags: W
HStem: -202 6<43.4128 1061.68> 63 76<490.485 517.163 702 730.036> 161 74<377.729 404> 260 76<490.485 517.163 702 730.036> 358 74<377.729 404> 740 6<116 301> 789 6<559 744 805 941> 832 6<116 301 559 744 805 941> 845 86<104 313 547 756 793 953> 937 6<43.4128 1061.68>
VStem: 5 6<-163.587 904.587> 17 87<734 845> 110 6<746 832> 270 69<67.2864 82 264.286 279> 301 6<746 832> 553 6<795 832> 744 6<795 832> 756 37<783 843.981> 799 6<795 832> 941 6<795 832> 953 136<783 845> 1095 6<-162.278 903.278>
LayerCount: 2
Fore
SplineSet
505 583 m 0xfff9fc
 357 562 239 445 218 298 c 0
 214 272 214 227 218 201 c 0
 239 54 357 -62 505 -83 c 0
 531 -87 575 -87 601 -83 c 0
 749 -62 867 54 888 201 c 0
 892 227 892 272 888 298 c 0
 867 445 749 562 601 583 c 0
 575 587 531 587 505 583 c 0xfff9fc
603 595 m 0
 575 599 530 599 503 595 c 0
 349 573 228 453 206 300 c 0
 202 272 202 227 206 200 c 0
 228 47 349 -74 503 -96 c 0
 531 -100 576 -100 603 -96 c 0
 757 -74 878 47 900 200 c 0
 904 228 904 273 900 300 c 0
 878 453 757 573 603 595 c 0
547 838 m 2
 547 789 l 2
 547 786 550 783 553 783 c 2
 750 783 l 2
 753 783 756 786 756 789 c 2
 756 838 l 2
 756 841 753 844 750 844 c 2
 553 844 l 2
 550 844 547 841 547 838 c 2
793 838 m 2
 793 789 l 2
 793 786 796 783 799 783 c 2
 947 783 l 2
 950 783 953 786 953 789 c 2
 953 838 l 2
 953 841 950 845 947 845 c 2
 799 845 l 2
 796 845 793 841 793 838 c 2
104 838 m 2
 104 740 l 2
 104 737 107 734 110 734 c 2
 307 734 l 2
 310 734 313 737 313 740 c 2
 313 838 l 2
 313 841 310 845 307 845 c 2xfffbfc
 110 845 l 2
 107 845 104 841 104 838 c 2
60 931 m 2
 1045 931 l 2
 1069 931 1089 912 1089 888 c 2
 1089 -147 l 2
 1089 -171 1069 -190 1045 -190 c 2
 60 -190 l 2
 36 -190 17 -171 17 -147 c 2
 17 888 l 2
 17 912 36 931 60 931 c 2
60 943 m 2
 1045 943 l 2
 1076 943 1101 919 1101 888 c 2
 1101 -147 l 2
 1101 -178 1076 -202 1045 -202 c 2
 60 -202 l 2
 29 -202 5 -178 5 -147 c 2
 5 888 l 2
 5 919 29 943 60 943 c 2
559 795 m 1
 744 795 l 1
 744 832 l 1
 559 832 l 1
 559 795 l 1
805 795 m 1
 941 795 l 1
 941 832 l 1
 805 832 l 1
 805 795 l 1
116 746 m 1
 301 746 l 1
 301 832 l 1
 116 832 l 1
 116 746 l 1
60 937 m 2
 33 937 11 915 11 888 c 1
 11 -147 l 2
 11 -174 33 -196 60 -196 c 1
 1045 -196 l 2
 1072 -196 1095 -174 1095 -147 c 1
 1095 888 l 2
 1095 915 1072 937 1045 937 c 1
 60 937 l 2
110 838 m 1
 307 838 l 1
 307 740 l 1
 110 740 l 1
 110 838 l 1
799 838 m 1
 947 838 l 1
 947 789 l 1
 799 789 l 1
 799 838 l 1
553 838 m 1
 750 838 l 1
 750 789 l 1
 553 789 l 1
 553 838 l 1
553 592 m 0
 571 592 589 591 602 589 c 0
 753 568 872 449 894 299 c 0
 898 272 898 228 894 201 c 0
 872 51 753 -68 602 -89 c 0
 575 -93 531 -93 504 -89 c 0
 353 -68 234 51 212 201 c 0
 208 228 208 272 212 299 c 0
 234 449 353 568 504 589 c 0
 517 591 535 592 553 592 c 0
799 395 m 0
 799 395 747 297 701 297 c 0
 655 297 648 395 602 395 c 0
 556 395 550 297 504 297 c 0
 458 297 451 395 405 395 c 0
 359 395 307 297 307 297 c 1024
405 432 m 0
 430 432 450 418 462 404 c 0
 474 390 480 375 487 363 c 0
 494 351 499 341 503 336 c 0
 504 336 l 1
 508 341 513 351 520 363 c 0
 527 375 534 390 546 404 c 0
 558 418 577 432 602 432 c 0
 627 432 647 418 659 404 c 0
 671 390 677 375 684 363 c 0
 691 351 696 341 700 336 c 0
 701 335 702 334 702 334 c 0
 703 334 706 336 712 341 c 0
 720 347 730 357 738 368 c 0
 755 390 767 412 767 412 c 2
 773 424 785 432 799 432 c 0
 805 432 811 431 816 428 c 0
 828 422 836 409 836 395 c 0
 836 389 835 383 832 378 c 2
 832 378 818 351 797 323 c 0
 786 309 774 295 759 283 c 0
 744 271 726 260 701 260 c 0
 676 260 656 274 644 288 c 0
 632 302 626 317 619 329 c 0
 612 341 606 351 602 356 c 0
 598 351 593 341 586 329 c 0
 579 317 572 302 560 288 c 0
 548 274 529 260 504 260 c 0
 479 260 459 274 447 288 c 0
 435 302 429 317 422 329 c 0
 415 341 409 351 405 356 c 0
 404 357 404 358 404 358 c 0
 403 358 399 356 393 351 c 0
 385 345 376 334 368 323 c 0
 351 301 339 279 339 279 c 2xfffdfc
 333 267 321 260 307 260 c 0xfffbfc
 301 260 294 261 289 264 c 0
 277 270 270 283 270 297 c 0xfffdfc
 270 303 271 309 274 314 c 2
 274 314 288 340 309 368 c 0
 320 382 332 397 347 409 c 0
 362 421 380 432 405 432 c 0
799 198 m 0
 799 198 747 100 701 100 c 0
 655 100 648 198 602 198 c 0
 556 198 550 100 504 100 c 0
 458 100 451 198 405 198 c 0
 359 198 307 100 307 100 c 1024xfffbfc
405 235 m 0
 430 235 450 221 462 207 c 0
 474 193 480 178 487 166 c 0
 494 154 499 144 503 139 c 0
 504 139 l 1
 508 144 513 154 520 166 c 0
 527 178 534 193 546 207 c 0
 558 221 577 235 602 235 c 0
 627 235 647 221 659 207 c 0
 671 193 677 178 684 166 c 0
 691 154 696 144 700 139 c 0
 701 138 702 137 702 137 c 0
 703 137 706 139 712 144 c 0
 720 150 730 160 738 171 c 0
 755 193 767 215 767 215 c 2
 773 227 785 235 799 235 c 0
 805 235 811 234 816 231 c 0
 828 225 836 212 836 198 c 0
 836 192 835 186 832 181 c 2
 832 181 818 154 797 126 c 0
 786 112 774 98 759 86 c 0
 744 74 726 63 701 63 c 0
 676 63 656 77 644 91 c 0
 632 105 626 120 619 132 c 0
 612 144 606 154 602 159 c 0
 598 154 593 144 586 132 c 0
 579 120 572 105 560 91 c 0
 548 77 529 63 504 63 c 0
 479 63 459 77 447 91 c 0
 435 105 429 120 422 132 c 0
 415 144 409 154 405 159 c 0
 404 160 404 161 404 161 c 0
 403 161 399 159 393 154 c 0
 385 148 376 137 368 126 c 0
 351 104 339 82 339 82 c 2xfffdfc
 333 70 321 63 307 63 c 0xfffbfc
 301 63 294 64 289 67 c 0
 277 73 270 86 270 100 c 0xfffdfc
 270 106 271 112 274 117 c 2
 274 117 288 143 309 171 c 0
 320 185 332 200 347 212 c 0
 362 224 380 235 405 235 c 0
EndSplineSet
Validated: 35
EndChar

StartChar: washing
Encoding: 57443 57443 75
Width: 1124
VWidth: 1974
Flags: W
HStem: -135 113<248 883> 95 7<532.735 597.833>
VStem: 5 112<493.179 555.023> 394 7<232.207 304.323> 408 26<246.843 326.834> 504 7<320.438 371.721> 528 196<240.019 353.454> 731 7<232.829 304.128> 1008 111<490.805 554.815>
LayerCount: 2
Fore
SplineSet
1076 565 m 0
 1101 559 1119 537 1119 510 c 0
 1119 506 1119 501 1118 497 c 2
 983 -92 l 1
 977 -117 955 -135 928 -135 c 2
 203 -135 l 0
 176 -135 154 -117 148 -92 c 2
 6 496 l 0
 5 500 5 505 5 510 c 0
 5 537 23 559 48 565 c 0
 52 566 56 566 61 566 c 0
 88 566 111 548 117 523 c 2
 248 -22 l 1
 883 -22 l 1
 1008 522 l 1
 1014 547 1036 566 1063 566 c 0
 1067 566 1072 566 1076 565 c 0
528 273 m 0
 528 296 517 327 517 348 c 0
 517 363 526 392 533 411 c 0
 536 413 545 431 541 436 c 0
 545 455 550 484 550 502 c 0
 550 507 546 510 541 508 c 0
 520 498 509 472 500 452 c 0
 492 435 490 433 482 422 c 0
 474 411 466 399 460 371 c 0
 453 338 434 302 434 275 c 0
 434 239 475 222 514 243 c 0
 525 249 528 261 528 273 c 0
428 385 m 1
 389 327 394 258 394 257 c 0
 397 167 474 95 566 95 c 0
 661 95 738 171 738 264 c 0
 738 308 727 351 704 385 c 2
 704 385 660 449 638 494 c 0
 617 538 573 653 572 656 c 0
 570 662 561 662 559 656 c 2
 559 656 515 539 493 494 c 0
 471 449 428 385 428 385 c 1
504 348 m 0
 504 316 524 265 507 255 c 0
 478 239 448 249 448 275 c 0
 448 298 466 335 473 368 c 0
 481 408 494 409 506 433 c 0
 508 437 510 442 512 447 c 0
 519 462 527 477 536 487 c 1
 534 469 529 450 524 427 c 0
 517 410 504 371 504 348 c 0
408 260 m 0
 408 280 407 330 439 377 c 0
 439 377 484 442 506 488 c 0
 523 523 553 600 566 634 c 1
 579 600 609 523 626 488 c 0
 648 442 692 377 692 377 c 0
 713 345 724 306 724 264 c 0
 724 179 654 109 566 109 c 0
 480 109 410 176 408 260 c 0
566 653 m 1
 566 653 610 536 632 491 c 0
 654 446 698 381 698 381 c 2
 720 348 731 307 731 264 c 0
 731 175 657 102 566 102 c 0
 476 102 403 173 401 260 c 1
 400 260 l 1
 401 260 l 2
 401 261 400 263 400 264 c 0
 400 307 411 348 433 381 c 2
 433 381 478 446 500 491 c 0
 522 536 566 653 566 653 c 1
544 502 m 1
 522 491 511 458 500 436 c 0
 489 414 475 411 467 370 c 0
 459 329 431 283 444 260 c 0
 457 237 488 236 511 249 c 0
 534 262 511 315 511 348 c 0
 511 369 524 408 531 425 c 1
 529 416 529 413 533 425 c 0
 537 437 535 434 531 425 c 1
 535 442 544 481 544 502 c 1
EndSplineSet
Validated: 37
EndChar

StartChar: cup
Encoding: 57444 57444 76
Width: 1079
VWidth: 1347
Flags: W
HStem: -207 74<91.336 847.664> 117 74<821.423 948.113> 406 74<889.156 984.808> 593 39<259.012 270 408.012 419 557.012 568>
VStem: 259 41<760.192 794.946> 341 41<666.892 712.831 842.317 888.299> 408 41<760.192 794.946> 490 41<666.404 712.831 842.317 888.48> 557 41<760.317 794.831> 639 41<666.404 712.831 842.317 888.48>
LayerCount: 2
Fore
SplineSet
45 571 m 2
 446 571 l 1
 492 571 l 1
 852 571 l 1
 874 571 892 549 892 522 c 0
 892 521 l 2
 892 508 890 492 889 476 c 1
 906 478 925 480 944 480 c 0
 950 480 957 479 963 478 c 0
 989 475 1016 468 1037 447 c 0
 1071 413 1077 367 1074 325 c 0
 1071 283 1059 243 1045 210 c 0
 1029 171 998 159 988 149 c 0
 967 128 940 120 914 117 c 0
 888 114 862 117 839 120 c 0
 816 123 796 128 780 132 c 1
 774 124 767 117 761 110 c 0
 745 92 715 66 695 54 c 0
 692 52 690 51 687 49 c 0
 667 37 650 7 650 -20 c 0
 650 -47 631 -69 609 -69 c 2
 408 -69 l 1
 287 -69 l 1
 265 -69 247 -47 247 -20 c 0
 247 7 230 37 210 49 c 0
 207 51 205 52 202 54 c 0
 182 66 152 92 136 110 c 0
 128 119 120 129 112 139 c 0
 97 159 76 195 66 219 c 0
 65 223 62 226 61 230 c 0
 52 255 40 296 34 322 c 0
 26 356 19 395 14 424 c 0
 9 451 5 494 5 521 c 2
 5 522 l 0
 5 549 23 571 45 571 c 2
942 406 m 0
 929 406 914 405 899 403 c 0
 892 402 885 400 878 399 c 0
 873 374 869 347 863 322 c 0
 857 296 845 255 836 230 c 0
 835 226 832 223 831 219 c 0
 828 213 825 206 821 198 c 1
 830 196 840 194 850 193 c 0
 870 190 890 189 906 191 c 0
 922 193 931 197 935 201 c 0
 958 224 975 234 977 238 c 0
 988 266 999 300 1001 330 c 0
 1003 360 998 382 985 395 c 0
 981 399 971 403 955 405 c 0
 951 405 946 406 942 406 c 0
125 -133 m 2
 814 -133 l 1
 834 -133 851 -150 851 -170 c 0
 851 -190 834 -207 814 -207 c 2
 125 -207 l 1
 105 -207 88 -190 88 -170 c 0
 88 -150 105 -133 125 -133 c 2
273 961 m 0
 275 962 277 962 279 962 c 0
 282 962 286 962 289 960 c 2
 289 960 311 948 333 931 c 0
 344 923 355 913 364 902 c 0
 373 891 382 877 382 860 c 0
 382 843 372 829 362 820 c 0
 352 811 340 805 330 800 c 0
 320 795 310 790 305 786 c 0
 300 782 300 780 300 778 c 0
 300 776 300 774 305 770 c 0
 310 766 320 760 330 755 c 0
 340 750 352 744 362 735 c 0
 372 726 382 713 382 696 c 0
 382 679 373 665 364 654 c 0
 355 643 344 632 333 624 c 0
 311 607 289 595 289 595 c 2
 286 593 282 593 279 593 c 0
 271 593 264 597 261 604 c 0
 259 607 259 611 259 614 c 0
 259 622 263 629 270 632 c 2
 270 632 289 642 308 656 c 0
 317 663 326 671 332 679 c 0
 338 687 341 694 341 696 c 0
 341 698 340 700 335 704 c 0
 330 708 321 713 311 718 c 0
 301 723 289 729 279 738 c 0
 269 747 259 761 259 778 c 0
 259 795 269 808 279 817 c 0
 289 826 301 832 311 837 c 0
 321 842 330 848 335 852 c 0
 340 856 341 858 341 860 c 0
 341 862 338 868 332 876 c 0
 326 884 317 892 308 899 c 0
 289 913 270 923 270 923 c 2
 263 926 259 934 259 942 c 0
 259 945 259 948 261 951 c 0
 264 956 268 959 273 961 c 0
422 961 m 0
 424 962 426 962 428 962 c 0
 431 962 435 962 438 960 c 2
 438 960 460 948 482 931 c 0
 493 923 504 913 513 902 c 0
 522 891 531 877 531 860 c 0
 531 843 521 829 511 820 c 0
 501 811 489 805 479 800 c 0
 469 795 459 790 454 786 c 0
 449 782 449 780 449 778 c 0
 449 776 449 774 454 770 c 0
 459 766 469 760 479 755 c 0
 489 750 501 744 511 735 c 0
 521 726 531 713 531 696 c 0
 531 679 522 665 513 654 c 0
 504 643 493 632 482 624 c 0
 460 607 438 595 438 595 c 2
 435 593 431 593 428 593 c 0
 420 593 413 597 410 604 c 0
 408 607 408 611 408 614 c 0
 408 622 412 629 419 632 c 2
 419 632 438 642 457 656 c 0
 466 663 476 671 482 679 c 0
 488 687 490 694 490 696 c 0
 490 698 489 700 484 704 c 0
 479 708 470 713 460 718 c 0
 450 723 438 729 428 738 c 0
 418 747 408 761 408 778 c 0
 408 795 418 808 428 817 c 0
 438 826 450 832 460 837 c 0
 470 842 479 848 484 852 c 0
 489 856 490 858 490 860 c 0
 490 862 488 868 482 876 c 0
 476 884 466 892 457 899 c 0
 438 913 419 923 419 923 c 2
 412 926 408 934 408 942 c 0
 408 945 408 948 410 951 c 0
 413 956 417 959 422 961 c 0
571 961 m 0
 573 962 575 962 577 962 c 0
 580 962 584 962 587 960 c 2
 587 960 609 948 631 931 c 0
 642 923 654 913 663 902 c 0
 672 891 680 877 680 860 c 0
 680 843 670 829 660 820 c 0
 650 811 638 805 628 800 c 0
 618 795 609 790 604 786 c 0
 599 782 598 780 598 778 c 0
 598 776 599 774 604 770 c 0
 609 766 618 760 628 755 c 0
 638 750 650 744 660 735 c 0
 670 726 680 713 680 696 c 0
 680 679 672 665 663 654 c 0
 654 643 642 632 631 624 c 0
 609 607 587 595 587 595 c 2
 584 593 580 593 577 593 c 0
 569 593 562 597 559 604 c 0
 557 607 557 611 557 614 c 0
 557 622 561 629 568 632 c 2
 568 632 587 642 606 656 c 0
 615 663 625 671 631 679 c 0
 637 687 639 694 639 696 c 0
 639 698 638 700 633 704 c 0
 628 708 619 713 609 718 c 0
 599 723 587 729 577 738 c 0
 567 747 557 761 557 778 c 0
 557 795 567 808 577 817 c 0
 587 826 599 832 609 837 c 0
 619 842 628 848 633 852 c 0
 638 856 639 858 639 860 c 0
 639 862 637 868 631 876 c 0
 625 884 615 892 606 899 c 0
 587 913 568 923 568 923 c 2
 561 926 557 934 557 942 c 0
 557 945 557 948 559 951 c 0
 562 956 566 959 571 961 c 0
EndSplineSet
Validated: 33
EndChar

StartChar: plate
Encoding: 57445 57445 77
Width: 1118
VWidth: 1419
Flags: W
HStem: -167 31<472.247 667.753> 603 31<472.247 667.753>
VStem: 5 18<459.877 516.727> 59 36<-97.9531 280.875 367 521.992> 131 18<459.877 516.727> 928 30<132.83 335.091> 1030 83<132.111 464.945> 1051 62<345.904 474.166> 1071 42<-71 132>
LayerCount: 2
Fore
SplineSet
566 634 m 0xfc
 572 634 577 634 583 634 c 0
 649 632 714 612 770 577 c 0
 828 541 876 490 909 429 c 0
 944 365 961 290 958 217 c 0
 955 148 934 79 898 20 c 0
 864 -36 815 -83 759 -116 c 0
 705 -147 644 -165 582 -167 c 0
 515 -169 448 -153 389 -121 c 0
 331 -89 281 -42 245 14 c 0
 209 71 188 137 183 205 c 0
 178 278 192 352 225 417 c 0
 256 479 303 533 361 571 c 0
 422 611 494 633 566 634 c 0xfc
570 603 m 0
 373 603 212 438 212 234 c 0
 212 30 373 -136 570 -136 c 0
 767 -136 928 30 928 234 c 0
 928 438 767 603 570 603 c 0
1113 538 m 1xfc80
 1113 -71 l 1
 1071 -71 l 1
 1071 132 l 1xfc80
 1030 132 l 1
 1030 132 1022 285 1030 361 c 0xfe
 1033 396 1037 432 1051 462 c 0xfd
 1065 493 1113 538 1113 538 c 1xfc80
23 522 m 1
 38 392 l 1
 40 378 48 367 59 367 c 1
 59 497 l 1
 59 502 60 507 62 511 c 0
 63 513 65 515 66 517 c 0
 67 518 67 518 68 519 c 0
 69 520 70 520 71 521 c 0
 73 522 74 522 76 522 c 0
 77 522 l 2
 87 522 95 511 95 497 c 0
 95 367 l 1
 106 367 114 378 116 392 c 2
 131 522 l 1
 141 522 149 511 149 497 c 0
 149 341 l 0
 149 324 143 310 134 301 c 2
 110 278 l 0
 101 269 95 254 95 237 c 2
 95 -74 l 0
 95 -76 95 -77 95 -79 c 0
 95 -80 l 0
 95 -81 94 -82 94 -83 c 0
 94 -84 l 0
 94 -85 93 -87 92 -88 c 0
 92 -89 l 0
 91 -90 91 -91 90 -92 c 0
 89 -93 88 -94 87 -95 c 0
 86 -96 85 -97 84 -98 c 0
 83 -98 82 -99 81 -99 c 0
 80 -99 l 0
 79 -99 78 -100 77 -100 c 0
 75 -100 72 -99 70 -98 c 0
 68 -97 66 -94 64 -92 c 0
 62 -90 61 -87 60 -84 c 0
 60 -83 l 0
 59 -80 59 -77 59 -74 c 0
 59 237 l 0
 59 254 53 269 44 278 c 2
 20 301 l 0
 11 310 5 324 5 341 c 0
 5 497 l 0
 5 511 13 522 23 522 c 1
566 572 m 1
 569 572 573 572 576 572 c 0
 579 572 582 572 584 572 c 0
 602 571 621 568 639 564 c 0
 642 563 645 563 648 562 c 0
 679 554 709 541 737 524 c 0
 739 523 742 521 744 520 c 0
 761 509 778 496 793 481 c 0
 801 474 807 466 814 458 c 0
 816 456 818 454 820 452 c 0
 850 415 872 371 885 325 c 0
 887 319 888 313 889 306 c 0
 891 295 894 284 895 273 c 0
 895 271 895 268 895 266 c 0
 897 250 898 234 897 218 c 0
 894 157 875 97 842 46 c 0
 841 44 839 41 838 39 c 0
 814 3 781 -28 745 -52 c 0
 699 -82 646 -100 591 -104 c 0
 588 -104 585 -105 583 -105 c 0
 577 -105 570 -105 564 -105 c 0
 561 -105 559 -105 556 -105 c 0
 545 -104 532 -103 521 -101 c 0
 515 -100 510 -99 504 -98 c 0
 456 -88 410 -66 371 -35 c 0
 330 -3 298 39 276 86 c 0
 256 130 244 178 243 226 c 0
 242 263 247 300 258 335 c 0
 274 388 303 437 342 476 c 0
 379 513 424 541 473 557 c 0
 475 558 476 557 478 558 c 0
 494 563 511 567 527 569 c 0
 540 571 553 572 566 572 c 1
EndSplineSet
Validated: 33
EndChar

StartChar: locker
Encoding: 57446 57446 78
Width: 405
VWidth: 1337
Flags: W
HStem: -197 72<67 339> 398 120<227.127 276.873> 542 74<67 339> 641 272<92 227 277 314> 641 76<227.283 276.717> 938 51<67 339>
VStem: 5 62<-125 542 616 938> 92 135<347.138 397.873 717.138 768.862> 277 37<348.013 397.066 718.013 767.987> 339 61<-125 542 616 938>
LayerCount: 2
Fore
SplineSet
54 989 m 2xe7c0
 351 989 l 1
 378 989 400 967 400 940 c 2
 400 -147 l 1
 400 -174 378 -197 351 -197 c 2
 54 -197 l 1
 27 -197 5 -174 5 -147 c 2
 5 940 l 2
 5 967 27 989 54 989 c 2xe7c0
79 938 m 2
 72 938 67 932 67 925 c 2
 67 629 l 1
 67 622 72 616 79 616 c 2
 326 616 l 1
 333 616 339 622 339 629 c 2
 339 925 l 1
 339 932 333 938 326 938 c 2
 79 938 l 2
92 913 m 1xf7c0
 314 913 l 1
 314 641 l 1
 92 641 l 1
 92 913 l 1xf7c0
252 769 m 0
 238 769 227 757 227 743 c 0
 227 729 238 717 252 717 c 0xefc0
 266 717 277 729 277 743 c 0
 277 757 266 769 252 769 c 0
79 542 m 2
 72 542 67 537 67 530 c 2
 67 -112 l 1
 67 -119 72 -125 79 -125 c 2
 326 -125 l 1
 333 -125 339 -119 339 -112 c 2
 339 530 l 1
 339 537 333 542 326 542 c 2
 79 542 l 2
92 518 m 1
 314 518 l 1
 314 -100 l 1
 92 -100 l 1
 92 518 l 1
252 398 m 0
 238 398 227 387 227 373 c 0
 227 359 238 347 252 347 c 0
 266 347 277 359 277 373 c 0
 277 387 266 398 252 398 c 0
EndSplineSet
Validated: 1
EndChar

StartChar: wheelchair
Encoding: 57447 57447 79
Width: 1104
VWidth: 1341
Flags: W
HStem: -215 76<261.906 486.094> -70 126<968 1083.28> 411 75<261.906 486.094> 435 127<615 779.707>
VStem: 5 75<33.5474 238.406> 182 252<793.844 935.629> 668 75<33.5474 238.406>
LayerCount: 2
Fore
SplineSet
308 991 m 0xde
 378 991 434 935 434 865 c 0
 434 813 403 769 359 749 c 1
 399 615 l 1
 541 562 l 1
 732 562 l 1
 767 562 795 533 795 498 c 0
 795 463 767 435 732 435 c 2
 615 435 l 2
 614 436 614 436 613 437 c 0
 559 476 494 500 428 507 c 0
 412 509 396 509 380 509 c 0
 354 509 328 506 302 500 c 1
 219 775 l 1
 196 798 182 830 182 865 c 0
 182 935 238 991 308 991 c 0xde
732 361 m 2
 754 361 774 350 785 333 c 2
 968 56 l 1
 1035 56 l 1
 1070 56 1099 28 1099 -7 c 0
 1099 -42 1070 -70 1035 -70 c 2
 934 -70 l 0
 912 -70 893 -59 882 -42 c 2
 764 135 l 1
 766 187 757 239 736 286 c 0
 724 313 709 338 691 361 c 1
 732 361 l 2
374 486 m 0xee
 576 486 743 330 743 136 c 0
 743 -58 576 -215 374 -215 c 0
 172 -215 5 -58 5 136 c 0
 5 330 172 486 374 486 c 0xee
374 411 m 0
 210 411 80 287 80 136 c 0
 80 -15 210 -139 374 -139 c 0
 538 -139 668 -15 668 136 c 0
 668 287 538 411 374 411 c 0
EndSplineSet
Validated: 33
EndChar

StartChar: horse_head
Encoding: 57448 57448 80
Width: 1000
VWidth: 1336
Flags: W
LayerCount: 2
Fore
SplineSet
461 -190 m 1
 5 -190 l 1
 5 374 l 1
 5 374 68 555 141 611 c 0
 197 654 248 682 301 718 c 0
 354 754 403 798 461 825 c 0
 519 852 538 846 645 878 c 0
 683 889 753 998 782 985 c 0
 806 974 768 911 782 878 c 0
 792 855 820 845 835 825 c 0
 858 793 882 757 888 718 c 0
 912 558 965 344 995 184 c 0
 1000 159 965 141 942 131 c 0
 926 124 844 129 826 128 c 0
 808 127 822 133 782 184 c 2
 782 184 645 451 568 398 c 0
 465 327 419 159 408 24 c 0
 402 -49 461 -190 461 -190 c 1
EndSplineSet
Validated: 33
EndChar

StartChar: dog_head
Encoding: 57449 57449 81
Width: 1122
VWidth: 1403
Flags: W
HStem: 362 244<359.454 435.012>
LayerCount: 2
Fore
SplineSet
846.153320312 663 m 0
 882.153320312 662 919.153320312 651 954.153320312 641 c 0
 976.153320312 635 994.153320312 622 1015.15332031 615 c 0
 1041.15332031 607 1073.15332031 614 1094.15332031 597 c 0
 1106.15332031 587 1109.15332031 568 1112.15332031 553 c 0
 1119.15332031 516 1119.15332031 476 1112.15332031 439 c 0
 1108.15332031 414 1110.15332031 375 1086.15332031 369 c 0
 1044.15332031 359 1033.15332031 454 989.153320312 456 c 0
 941.153320312 458 896.153320312 412 875.153320312 369 c 0
 867.153320312 353 877.153320312 333 875.153320312 316 c 0
 871.153320312 274 864.153320312 232 848.153320312 193 c 0
 832.153320312 154 793.153320312 126 778.153320312 87 c 0
 758.153320312 35 780.153320312 -30 752.153320312 -79 c 0
 743.153320312 -95 725.153320312 -107 708.153320312 -115 c 0
 687.153320312 -125 663.153320312 -129 640.153320312 -132 c 0
 610.153320312 -136 578.153320312 -134 548.153320312 -132 c 0
 528.153320312 -131 506.153320312 -133 488.153320312 -123 c 0
 459.153320312 -106 444.153320312 -73 427.153320312 -44 c 0
 416.153320312 -25 414.153320312 0 400.153320312 17 c 0
 377.153320312 45 333.153320312 50 312.153320312 79 c 0
 293.153320312 106 291.153320312 142 286.153320312 175 c 0
 276.153320312 236 296.153320312 302 277.153320312 360 c 0
 274.153320312 370 269.153320312 380 260.153320312 386 c 0
 243.153320312 399 216.153320312 392 198.153320312 404 c 0
 179.153320312 416 176.153320312 451 154.153320312 456 c 0
 141.153320312 459 132.153320312 442 119.153320312 439 c 0
 108.153320312 436 95.1533203125 443 84.1533203125 439 c 0
 55.1533203125 428 45.1533203125 371 14.1533203125 377 c 0
 8.1533203125 378 6.1533203125 389 5.1533203125 395 c 0
 4.1533203125 407 8.1533203125 420 14.1533203125 430 c 0
 28.1533203125 453 56.1533203125 464 75.1533203125 483 c 0
 112.153320312 519 139.153320312 567 181.153320312 597 c 0
 204.153320312 614 232.153320312 626 260.153320312 632 c 0
 274.153320312 635 290.153320312 635 304.153320312 632 c 0
 329.153320312 628 349.153320312 607 374.153320312 606 c 0
 386.153320312 605 397.153320312 612 409.153320312 615 c 0
 432.153320312 621 455.153320312 628 479.153320312 632 c 0
 522.153320312 639 567.153320312 644 611.153320312 641 c 0
 653.153320312 638 693.153320312 608 734.153320312 615 c 0
 763.153320312 620 782.153320312 654 811.153320312 660 c 0
 823.153320312 662 834.153320312 663 846.153320312 663 c 0
763.153320312 372 m 0
 759.153320312 372 756.153320312 372 752.153320312 369 c 0
 743.153320312 363 737.153320312 345 734.153320312 333 c 0
 731.153320312 321 729.153320312 308 734.153320312 298 c 0
 739.153320312 288 749.153320312 283 761.153320312 281 c 0
 773.153320312 279 791.153320312 282 803.153320312 290 c 0
 815.153320312 298 828.153320312 313 829.153320312 325 c 0
 830.153320312 337 822.153320312 343 813.153320312 351 c 0
 804.153320312 359 789.153320312 366 778.153320312 369 c 0
 772.153320312 370 768.153320312 372 763.153320312 372 c 0
423.153320312 362 m 0
 407.153320312 362 384.153320312 356 374.153320312 351 c 0
 361.153320312 345 357.153320312 340 356.153320312 333 c 0
 355.153320312 326 359.153320312 324 365.153320312 316 c 0
 371.153320312 308 381.153320312 295 392.153320312 290 c 0
 403.153320312 285 418.153320312 288 427.153320312 290 c 0
 436.153320312 292 438.153320312 289 444.153320312 298 c 0
 450.153320312 307 446.153320312 332 444.153320312 342 c 0
 442.153320312 352 447.153320312 354 435.153320312 360 c 0
 432.153320312 362 428.153320312 362 423.153320312 362 c 0
EndSplineSet
Validated: 33
EndChar

StartChar: bicycle_store
Encoding: 57450 57450 82
Width: 831
VWidth: 1353
Flags: W
HStem: -243 81<496.31 659.51> 173 81<463 659.51> 474 81<496.31 659.51> 614 40<285 316.822> 891 81<496.31 659.51>
VStem: 5 81<432.846 577.634> 80 81<-30.1538 109 204 239.922> 236 81<290 654> 329 81<-76.5103 66.8731> 512 80<81 307> 745 81<-76.5103 86.69 641.31 804.69>
LayerCount: 2
Fore
SplineSet
578 173 m 0xf9e0
 485 173 410 98 410 5 c 0
 410 -88 485 -162 578 -162 c 0
 671 -162 745 -88 745 5 c 0
 745 98 671 173 578 173 c 0xf9e0
578 254 m 0
 715 254 826 142 826 5 c 0
 826 -132 715 -243 578 -243 c 0
 441 -243 329 -132 329 5 c 0
 329 142 441 254 578 254 c 0
578 891 m 0
 485 891 410 816 410 723 c 0
 410 630 485 555 578 555 c 0
 671 555 745 630 745 723 c 0
 745 816 671 891 578 891 c 0
578 972 m 0
 715 972 826 860 826 723 c 0
 826 586 715 474 578 474 c 0
 441 474 329 586 329 723 c 0
 329 860 441 972 578 972 c 0
529 -28 m 0
 252 159 252 158 250 160 c 1
 157 109 l 1
 118 180 l 2
 236 245 l 1
 236 654 l 1
 317 654 l 1
 317 290 l 1
 535 411 l 2
 562 426 595 407 595 376 c 2
 592 5 l 2
 592 -27 556 -46 529 -28 c 0
513 307 m 1
 329 204 l 1
 512 81 l 1
 513 307 l 1
618 723 m 0
 618 704 605 688 587 684 c 2
 286 614 l 2
 285 614 286 614 86 574 c 1
 86 468 l 2
 86 446 67 428 45 428 c 0
 23 428 5 446 5 468 c 2
 5 607 l 2xfde0
 5 627 18 643 37 647 c 2
 268 693 l 1
 568 763 l 2
 593 769 618 749 618 723 c 0
80 5 m 2xfbe0
 80 204 l 2
 80 226 99 245 121 245 c 0
 143 245 161 226 161 204 c 2
 161 5 l 2
 161 -17 143 -35 121 -35 c 0
 99 -35 80 -17 80 5 c 2xfbe0
EndSplineSet
Validated: 37
EndChar

StartChar: kitchen
Encoding: 57451 57451 83
Width: 1152
VWidth: 1343
Flags: W
HStem: -190 46<5.0073 151 446 749 1044 1146.99> -144 45<141.19 211.844 387.031 458.993 739.19 809.844 985.031 1056.99> -76 46<148 442.859> -38 191<827.8 870.74 933.158 996.559> 87 46<553.008 817> 176 23<751 1025> 244 46<136 456> 312 46<96.0073 279 325 506.993> 312 23<281.983 322.017> 358 46<279.007 324.993> 360 68<812.478 945.453> 458 170<821.105 936.406> 653 24<848.288 890.475>
VStem: 90 46<-26.2678 244> 279 46<345 358 381 403.993> 456 45<-7 244> 698 69<473.876 607.943> 728 23<-26.4175 -6 176 176> 774 228<-25.2157 153> 774 53<94 119> 797 159<476.924 603.817> 842 55<689 704 954 981.412> 991 68<473.876 607.943> 1025 23<-29.7856 176> 1057 90<-173.5 -120>
LayerCount: 2
Fore
SplineSet
28 -213 m 0
 1124 -213 1124 -213 1124 -213 c 1024x061f
28 -167 m 1
 1124 -167 l 1025
28 -144 m 2x861f0080
 1124 -144 l 2
 1137 -144 1147 -154 1147 -167 c 0
 1147 -180 1137 -190 1124 -190 c 2
 28 -190 l 2
 15 -190 5 -180 5 -167 c 0
 5 -154 15 -144 28 -144 c 2x861f0080
162 -122 m 1
 252 -167 l 1
 350 -167 l 1
 436 -122 l 1025
442 -100 m 0
 440 -99 438 -99 436 -99 c 0
 432 -99 428 -99 425 -101 c 1
 344 -144 l 1
 257 -144 l 1
 172 -101 l 2
 169 -99 166 -99 162 -99 c 0x461f
 153 -99 145 -104 141 -111 c 0
 139 -114 139 -118 139 -122 c 0
 139 -131 144 -138 151 -142 c 0
 242 -188 l 2
 245 -190 248 -190 252 -190 c 1
 350 -190 l 2
 354 -190 357 -189 360 -187 c 1
 446 -142 l 2
 453 -138 459 -131 459 -122 c 0
 459 -118 458 -114 456 -111 c 0
 453 -106 448 -102 442 -100 c 0
760 -122 m 1
 850 -167 l 1
 948 -167 l 1
 1034 -122 l 1025
1040 -100 m 0
 1038 -99 1036 -99 1034 -99 c 0
 1030 -99 1026 -99 1023 -101 c 1
 942 -144 l 1
 855 -144 l 1
 770 -101 l 2
 767 -99 764 -99 760 -99 c 0x461f0080
 751 -99 743 -104 739 -111 c 0
 737 -114 737 -118 737 -122 c 0
 737 -131 742 -138 749 -142 c 0
 840 -188 l 2
 843 -190 846 -190 850 -190 c 1
 948 -190 l 2
 952 -190 955 -189 958 -187 c 1
 1044 -142 l 2
 1051 -138 1057 -131 1057 -122 c 0x861f0080
 1057 -118 1056 -114 1054 -111 c 0
 1051 -106 1046 -102 1040 -100 c 0
113 267 m 1
 478 267 l 1
 478 267 478 84 478 -7 c 0
 478 -29 433 -53 433 -53 c 1
 159 -53 l 1
 159 -53 113 -29 113 -7 c 0
 113 84 113 267 113 267 c 1024
113 290 m 2
 478 290 l 1
 491 290 501 280 501 267 c 2
 501 -7 l 2
 501 -20 495 -30 489 -38 c 0x161f
 483 -46 476 -51 469 -56 c 0
 456 -66 443 -73 443 -73 c 2
 440 -75 437 -76 433 -76 c 2
 159 -76 l 1x261f
 155 -76 151 -75 148 -73 c 2
 148 -73 135 -66 122 -56 c 0
 115 -51 108 -46 102 -38 c 0x161f
 96 -30 90 -20 90 -7 c 2
 90 267 l 2
 90 280 100 290 113 290 c 2
136 244 m 1
 136 -7 l 1
 136 -4 136 -6 138 -9 c 0
 140 -12 145 -16 150 -20 c 0
 156 -25 161 -28 165 -30 c 2
 427 -30 l 2x261f
 431 -28 436 -25 442 -20 c 0
 447 -16 452 -12 454 -9 c 0
 456 -6 456 -4 456 -7 c 1
 456 244 l 1
 136 244 l 1
797 -52 m 1x061f49
 797 -52 923 -53 979 -52 c 0
 999 -44 1025 -28 1025 -6 c 2
 1025 176 l 1
 751 176 l 1
 751 -6 l 2
 751 -28 797 -52 797 -52 c 1x061f49
751 199 m 2
 1025 199 l 1
 1038 199 1048 189 1048 176 c 2
 1048 -6 l 2
 1048 -26 1037 -42 1025 -52 c 0
 1013 -62 1000 -68 988 -73 c 0
 952 -88 905 -87 865 -84 c 0
 825 -81 792 -75 792 -75 c 2
 790 -75 788 -73 786 -72 c 2
 786 -72 773 -66 760 -56 c 0
 753 -51 746 -45 740 -37 c 0
 734 -29 728 -19 728 -6 c 2
 728 176 l 1
 728 189 738 199 751 199 c 2
774 153 m 1x161f20
 1002 153 l 1
 1002 -6 l 2
 1002 -8 1001 -12 995 -17 c 0
 989 -22 979 -28 971 -31 c 0
 951 -39 906 -41 869 -38 c 0x161f20
 835 -35 809 -31 804 -30 c 0x261f20
 801 -28 795 -25 788 -19 c 0
 783 -15 778 -11 776 -8 c 0
 774 -5 774 -3 774 -6 c 1
 774 153 l 1x161f20
576 110 m 1
 804 107 l 1025
576 133 m 0x0e1f10
 805 130 l 1
 817 130 827 119 827 107 c 0
 827 106 l 0
 827 94 816 84 804 84 c 0
 576 87 l 1
 564 87 553 98 553 110 c 0
 553 122 564 133 576 133 c 0x0e1f10
119 335 m 1
 485 335 l 1025x069f
119 358 m 2x071f
 485 358 l 2x071f
 498 358 507 348 507 335 c 0x069f
 507 322 498 312 485 312 c 2
 119 312 l 2x071f
 106 312 96 322 96 335 c 0x069f
 96 348 106 358 119 358 c 2x071f
302 381 m 1
 302 358 l 1025x065f
302 404 m 0
 289 404 279 394 279 381 c 2
 279 358 l 2x071f
 279 345 289 335 302 335 c 0x069f
 315 335 325 345 325 358 c 2x071f
 325 381 l 2
 325 394 315 404 302 404 c 0
879 722 m 0
 978 722 1059 641 1059 541 c 0
 1059 441 978 360 879 360 c 0
 780 360 698 441 698 541 c 0x063f82
 698 641 780 722 879 722 c 0
879 653 m 0
 817 653 767 604 767 541 c 0
 767 478 817 428 879 428 c 0
 941 428 991 478 991 541 c 0
 991 604 941 653 879 653 c 0
878 628 m 0
 889 628 900 626 910 622 c 0
 930 614 946 600 956 581 c 0
 957 579 958 577 959 575 c 0
 969 552 967 524 956 502 c 0
 946 482 928 466 907 458 c 0
 884 450 857 452 836 464 c 0
 818 474 804 492 797 511 c 0x061f08
 788 535 790 562 803 584 c 0
 818 610 848 628 878 628 c 0
870 954 m 1
 870 704 l 1025
870 982 m 0
 855 982 842 969 842 954 c 1
 842 704 l 2
 842 689 855 677 870 677 c 0
 885 677 897 689 897 704 c 1
 897 954 l 2x061f04
 897 969 885 982 870 982 c 0
EndSplineSet
Validated: 43
EndChar

StartChar: sheets
Encoding: 57452 57452 84
Width: 870
VWidth: 1351
Flags: W
HStem: -185 82<90.7239 740.05> 492 104<485.157 722> 830 91<122.78 407 505.78 790>
VStem: 5 90<626 830.424> 5 86<628.033 831> 407 67<628.033 831> 409 70<626 830.424> 783 82<-59.0502 478.572> 790 75<602.349 832.9>
LayerCount: 2
Fore
SplineSet
5 880 m 2xe880
 5 890 9 901 17 909 c 0
 25 917 36 921 46 921 c 2
 824 921 l 1
 834 921 845 917 853 909 c 0
 861 901 865 890 865 880 c 2
 865 -144 l 1
 865 -154 861 -165 853 -173 c 0
 845 -181 834 -185 824 -185 c 2
 46 -185 l 1
 36 -185 25 -181 17 -173 c 0
 9 -165 5 -154 5 -144 c 2
 5 880 l 2xe880
292 837 m 0
 270 839 232 840 210 837 c 0
 195 835 180 832 120 823 c 1
 120 823 120 823 87 831 c 1
 80 819 95 788 92 766 c 0
 92 763 91 760 91 757 c 0xec
 88 735 88 698 92 676 c 0
 93 673 93 670 95 626 c 1
 95 626 95 627 87 602 c 1
 99 594 131 610 153 607 c 0
 172 604 191 600 210 597 c 0
 232 594 270 594 292 596 c 0
 309 598 325 600 382 610 c 1
 382 610 382 610 407 602 c 1xf4
 419 609 405 645 409 667 c 0xe2
 409 670 409 673 410 676 c 0
 414 698 414 735 410 757 c 0
 409 760 409 763 407 807 c 2
 407 807 407 806 407 831 c 1xe4
 395 839 364 826 342 830 c 0
 325 833 309 835 292 837 c 0
675 837 m 0
 653 839 616 840 594 837 c 0
 579 835 563 832 503 823 c 1
 503 823 504 823 471 831 c 1
 464 819 478 788 475 766 c 0
 475 763 474 760 474 757 c 0xe480
 471 735 471 698 475 676 c 0
 476 673 477 670 479 626 c 1
 479 626 479 627 471 602 c 1
 483 594 514 610 536 607 c 0
 555 604 575 600 594 597 c 0
 616 594 653 594 675 596 c 0
 692 598 708 600 765 610 c 1
 765 610 765 610 790 602 c 1
 802 609 788 645 792 667 c 0
 792 670 792 673 793 676 c 0
 797 698 797 735 793 757 c 0
 792 760 792 763 790 807 c 2
 790 807 790 806 790 831 c 1xe280
 778 839 747 826 725 830 c 0
 708 833 692 835 675 837 c 0
760 479 m 2
 722 492 l 2
 712 492 687 489 664 488 c 0
 553 482 244 453 115 337 c 0
 98 322 81 289 77 267 c 0
 58 163 78 23 85 -62 c 0
 87 -85 105 -103 128 -103 c 2
 661 -103 l 2
 684 -103 721 -104 741 -93 c 0
 755 -86 766 -74 774 -60 c 0
 785 -40 783 -3 783 20 c 2
 783 389 l 2xe1
 783 412 785 450 771 468 c 0
 768 472 764 476 760 479 c 2
EndSplineSet
Validated: 37
EndChar

StartChar: towel
Encoding: 57453 57453 85
Width: 1104
VWidth: 1345
Flags: W
HStem: 411 72<298.528 339.464> 495 72<106.5 362.188> 879 72<120.561 1036.19>
VStem: 5 72<611.214 811.345> 137 155<-79.5752 410.703>
LayerCount: 2
Fore
SplineSet
734 827 m 0
 761 827 803 827 830 826 c 0
 922 824 1005 815 1057 795 c 0
 1082 786 1099 750 1099 723 c 2
 1099 -142 l 1
 1099 -154 1094 -167 1085 -176 c 0
 1076 -185 1063 -191 1051 -191 c 2
 390 -191 l 1
 378 -191 365 -185 356 -176 c 0
 347 -167 342 -154 342 -142 c 2
 342 386 l 1
 342 386 342 387 317 411 c 1
 298 411 292 365 292 338 c 2
 292 -46 l 1
 292 -58 287 -71 278 -80 c 0
 269 -89 256 -94 244 -94 c 2
 185 -94 l 1
 173 -94 160 -89 151 -80 c 0
 142 -71 137 -58 137 -46 c 2
 137 435 l 2
 137 462 158 483 185 483 c 0
 217 483 250 483 281 483 c 0
 308 483 330 483 331 483 c 0
 357 482 382 504 382 530 c 0
 382 531 l 0
 382 557 357 580 331 579 c 0
 330 579 329 579 329 579 c 2
 329 579 307 579 280 579 c 0
 249 579 215 579 185 579 c 0
 158 579 140 600 147 626 c 0
 147 627 148 628 148 629 c 0
 155 655 172 694 187 716 c 0
 191 722 196 730 201 736 c 0
 217 757 251 784 274 797 c 0
 278 799 280 801 284 803 c 0
 308 815 350 827 376 830 c 0
 455 838 599 828 734 827 c 0
113 951 m 2
 1003 951 l 1
 1023 951 1039 935 1039 915 c 0
 1039 895 1023 879 1003 879 c 2
 133 879 l 1
 127 868 118 853 109 834 c 0
 92 798 77 753 77 723 c 0
 77 674 101 602 114 567 c 1
 329 567 l 1
 349 567 365 551 365 531 c 0
 365 511 349 495 329 495 c 2
 89 495 l 0
 74 495 62 503 56 516 c 2
 56 516 5 627 5 723 c 0
 5 774 25 825 44 865 c 0
 63 905 83 935 83 935 c 2
 89 945 100 951 113 951 c 2
EndSplineSet
Validated: 33
EndChar

StartChar: pool
Encoding: 57454 57454 86
Width: 1099
VWidth: 1380
Flags: W
HStem: 194 86<128.213 157 591.031 619.047>
VStem: 5 79<-133.667 -116 90.3332 107> 636 279<571.462 697.022>
LayerCount: 2
Fore
SplineSet
1052 15 m 0
 1052 15 994 -97 941 -97 c 0
 888 -97 882 15 829 15 c 0
 776 15 770 -97 717 -97 c 0
 664 -97 658 15 605 15 c 0
 552 15 547 -97 494 -97 c 0
 441 -97 435 15 382 15 c 0
 329 15 323 -97 270 -97 c 0
 217 -97 211 15 158 15 c 0
 105 15 47 -97 47 -97 c 1024
158 57 m 0
 186 57 210 41 223 25 c 0
 236 9 244 -7 251 -21 c 0
 258 -35 266 -47 270 -52 c 0
 270 -53 l 1
 270 -52 l 0
 274 -47 282 -35 289 -21 c 0
 296 -7 304 9 317 25 c 0
 330 41 354 57 382 57 c 0
 410 57 433 41 446 25 c 0
 459 9 468 -7 475 -21 c 0
 482 -35 489 -47 493 -52 c 0
 494 -53 l 1
 494 -52 l 0
 498 -47 505 -35 512 -21 c 0
 519 -7 528 9 541 25 c 0
 554 41 577 57 605 57 c 0
 633 57 657 41 670 25 c 0
 683 9 691 -7 698 -21 c 0
 705 -35 713 -47 717 -52 c 0
 717 -53 l 1
 717 -52 l 0
 721 -47 729 -35 736 -21 c 0
 743 -7 751 9 764 25 c 0
 777 41 801 57 829 57 c 0
 857 57 880 41 893 25 c 0
 906 9 915 -7 922 -21 c 0
 929 -35 936 -47 940 -52 c 0
 941 -54 942 -54 942 -54 c 0
 943 -53 947 -53 954 -47 c 0
 963 -40 974 -27 983 -15 c 0
 1002 10 1015 35 1015 35 c 2
 1022 48 1036 57 1052 57 c 0
 1059 57 1066 55 1072 52 c 0
 1085 45 1094 31 1094 15 c 0
 1094 8 1092 1 1089 -5 c 2
 1089 -5 1073 -35 1049 -66 c 0
 1037 -82 1024 -98 1007 -112 c 0
 990 -126 969 -139 941 -139 c 0
 913 -139 889 -122 876 -106 c 0
 863 -90 855 -74 848 -60 c 0
 841 -46 833 -35 829 -30 c 0
 829 -29 l 1
 829 -30 l 0
 825 -35 817 -46 810 -60 c 0
 803 -74 794 -90 781 -106 c 0
 768 -122 745 -139 717 -139 c 0
 689 -139 666 -122 653 -106 c 0
 640 -90 631 -74 624 -60 c 0
 617 -46 610 -35 606 -30 c 0
 605 -29 l 1
 605 -30 l 0
 601 -35 593 -46 586 -60 c 0
 579 -74 571 -90 558 -106 c 0
 545 -122 522 -139 494 -139 c 0
 466 -139 442 -122 429 -106 c 0
 416 -90 408 -74 401 -60 c 0
 394 -46 386 -35 382 -30 c 0
 382 -29 l 1
 382 -30 l 0
 378 -35 370 -46 363 -60 c 0
 356 -74 347 -90 334 -106 c 0
 321 -122 298 -139 270 -139 c 0
 242 -139 219 -122 206 -106 c 0
 193 -90 184 -74 177 -60 c 0
 170 -46 163 -35 159 -30 c 0
 158 -28 157 -28 157 -28 c 0
 156 -29 152 -29 145 -35 c 0
 136 -42 125 -54 116 -66 c 0
 97 -91 84 -116 84 -116 c 2
 77 -129 63 -139 47 -139 c 0
 40 -139 33 -137 27 -134 c 0
 14 -127 5 -113 5 -97 c 0
 5 -90 7 -83 10 -77 c 2
 10 -77 25 -46 49 -15 c 0
 61 1 75 16 92 30 c 0
 109 44 130 57 158 57 c 0
1052 238 m 0
 1052 238 994 127 941 127 c 0
 888 127 882 238 829 238 c 0
 776 238 770 127 717 127 c 0
 664 127 658 238 605 238 c 0
 552 238 547 127 494 127 c 0
 441 127 435 238 382 238 c 0
 329 238 323 127 270 127 c 0
 217 127 211 238 158 238 c 0
 105 238 47 127 47 127 c 1024
158 280 m 0
 186 280 210 264 223 248 c 0
 236 232 244 216 251 202 c 0
 258 188 266 176 270 171 c 0
 274 176 282 188 289 202 c 0
 296 216 304 232 317 248 c 0
 330 264 354 280 382 280 c 0
 410 280 433 264 446 248 c 0
 459 232 468 216 475 202 c 0
 482 188 489 176 493 171 c 0
 494 171 l 1
 498 176 505 188 512 202 c 0
 519 216 528 232 541 248 c 0
 554 264 577 280 605 280 c 0
 633 280 657 264 670 248 c 0
 683 232 691 216 698 202 c 0
 705 188 713 176 717 171 c 0
 721 176 729 188 736 202 c 0
 743 216 751 232 764 248 c 0
 777 264 801 280 829 280 c 0
 857 280 880 264 893 248 c 0
 906 232 915 216 922 202 c 0
 929 188 936 176 940 171 c 0
 941 169 942 169 942 169 c 0
 943 170 947 171 954 177 c 0
 963 184 974 196 983 208 c 0
 1002 233 1015 258 1015 258 c 2
 1022 271 1036 280 1052 280 c 0
 1059 280 1066 278 1072 275 c 0
 1085 268 1094 254 1094 238 c 0
 1094 231 1092 225 1089 219 c 2
 1089 219 1073 188 1049 157 c 0
 1037 141 1024 126 1007 112 c 0
 990 98 969 85 941 85 c 0
 913 85 889 101 876 117 c 0
 863 133 855 149 848 163 c 0
 841 177 833 189 829 194 c 0
 825 189 817 177 810 163 c 0
 803 149 794 133 781 117 c 0
 768 101 745 85 717 85 c 0
 689 85 666 101 653 117 c 0
 640 133 631 149 624 163 c 0
 617 177 610 189 606 194 c 0
 605 194 l 1
 601 189 593 177 586 163 c 0
 579 149 571 133 558 117 c 0
 545 101 522 85 494 85 c 0
 466 85 442 101 429 117 c 0
 416 133 408 149 401 163 c 0
 394 177 386 189 382 194 c 0
 378 189 370 177 363 163 c 0
 356 149 347 133 334 117 c 0
 321 101 298 85 270 85 c 0
 242 85 219 101 206 117 c 0
 193 133 184 149 177 163 c 0
 170 177 163 189 159 194 c 0
 158 196 157 196 157 196 c 0
 156 195 152 194 145 188 c 0
 136 181 125 169 116 157 c 0
 97 132 84 107 84 107 c 2
 77 94 63 85 47 85 c 0
 40 85 33 87 27 90 c 0
 14 97 5 111 5 127 c 0
 5 134 7 140 10 146 c 2
 10 146 25 177 49 208 c 0
 61 224 75 240 92 254 c 0
 109 268 130 280 158 280 c 0
182 758 m 0
 195 758 207 756 219 750 c 2
 446 710 l 1
 478 694 505 667 521 635 c 2
 527 624 l 2
 542 593 574 574 608 574 c 0
 621 574 633 572 646 570 c 1
 639 586 636 604 636 622 c 0
 636 699 698 761 775 761 c 0
 852 761 915 699 915 622 c 0
 915 546 855 484 779 482 c 1
 783 461 790 440 799 421 c 2
 831 350 l 1
 608 350 l 1
 496 350 l 1
 328 350 l 1
 407 471 l 2
 421 484 432 500 438 518 c 0
 440 553 423 586 395 607 c 1
 158 685 l 2
 135 690 122 713 130 735 c 1
 144 749 162 757 182 758 c 0
EndSplineSet
Validated: 35
EndChar

StartChar: pray
Encoding: 57455 57455 87
Width: 1157
VWidth: 1358
Flags: W
VStem: 415 82<471.266 596.217> 456 65<847.981 881.964> 636 65<847.981 881.217> 661 81<471.266 596.217>
LayerCount: 2
Fore
SplineSet
497 883 m 0x80
 509 876 525 861 521 846 c 0
 501 774 481 708 456 634 c 1x40
 440 616 398 578 398 578 c 1
 398 421 l 1
 415 421 l 1
 415 421 415 523 415 560 c 0x80
 415 582 434 598 456 606 c 0x40
 481 615 490 580 497 560 c 0x80
 530 459 538 340 538 237 c 0
 538 168 464 117 456 52 c 0x40
 453 30 497 6 497 6 c 1
 497 -178 l 1x80
 5 -178 l 1
 169 52 l 1
 169 52 194 34 210 52 c 0
 255 103 333 237 333 237 c 1
 292 468 l 1
 292 468 311 593 333 652 c 0
 363 735 415 818 456 883 c 0x40
 464 896 485 890 497 883 c 0x80
661 883 m 0x10
 673 890 693 896 701 883 c 0x20
 742 818 794 735 824 652 c 0
 846 593 865 468 865 468 c 1
 824 237 l 1
 824 237 902 103 947 52 c 0
 963 34 988 52 988 52 c 1
 1152 -178 l 1
 661 -178 l 1
 661 6 l 1x10
 661 6 704 30 701 52 c 0x20
 693 117 620 168 620 237 c 0
 620 340 628 459 661 560 c 0x10
 668 580 676 615 701 606 c 0x20
 723 598 742 582 742 560 c 0
 742 523 742 421 742 421 c 1x10
 759 421 l 1
 759 578 l 1
 759 578 717 616 701 634 c 1
 676 708 656 774 636 846 c 0x20
 632 861 649 876 661 883 c 0x10
EndSplineSet
Validated: 33
EndChar

StartChar: heating
Encoding: 57456 57456 88
Width: 1154
VWidth: 1352
Flags: W
HStem: -198 82<291 864> 335 82<145 206.094 947 1010>
VStem: 209 82<-116 335> 864 82<-116 335>
LayerCount: 2
Fore
SplineSet
579 933 m 0
 600 933 621 925 637 909 c 2
 1137 405 l 1
 1144 398 1149 387 1149 376 c 0
 1149 353 1131 335 1108 335 c 2
 947 335 l 1
 946 -157 l 1
 946 -180 928 -198 905 -198 c 2
 250 -198 l 1
 227 -198 209 -179 209 -157 c 2
 206 335 l 2
 206 336 207 335 206 335 c 2
 46 335 l 1
 23 335 5 353 5 376 c 0
 5 387 10 398 17 405 c 2
 521 910 l 2
 537 926 558 933 579 933 c 0
579 852 m 1
 145 417 l 1
 206 417 l 2
 251 417 288 380 288 335 c 2
 291 -116 l 1
 864 -116 l 1
 865 338 l 2
 865 381 901 417 944 417 c 2
 1010 417 l 1
 579 852 l 1
407 407 m 0
 408 407 438 379 438 348 c 0
 438 327 390 272 370 232 c 0
 361 215 340 175 378 115 c 0
 392 93 406 80 407 79 c 0
 427 62 458 77 458 103 c 0
 458 112 454 120 448 126 c 0
 447 126 417 153 417 184 c 0
 417 205 466 260 486 300 c 0
 495 317 515 358 477 418 c 0
 463 440 449 452 448 453 c 0
 428 470 397 456 397 430 c 0
 397 421 401 413 407 407 c 0
537 407 m 0
 538 407 567 379 567 348 c 0
 567 327 519 272 499 232 c 0
 490 215 469 175 507 115 c 0
 521 93 536 80 537 79 c 0
 557 62 588 77 588 103 c 0
 588 112 583 120 577 126 c 0
 576 126 547 153 547 184 c 0
 547 205 595 260 615 300 c 0
 624 317 645 358 607 418 c 0
 593 440 578 452 577 453 c 0
 557 470 526 456 526 430 c 0
 526 421 531 413 537 407 c 0
666 407 m 0
 667 407 696 379 696 348 c 0
 696 327 648 272 628 232 c 0
 619 215 598 175 636 115 c 0
 650 93 665 80 666 79 c 0
 686 62 717 77 717 103 c 0
 717 112 712 120 706 126 c 0
 705 126 676 153 676 184 c 0
 676 205 724 260 744 300 c 0
 753 317 774 358 736 418 c 0
 722 440 707 452 706 453 c 0
 686 470 655 456 655 430 c 0
 655 421 660 413 666 407 c 0
EndSplineSet
Validated: 37
EndChar

StartChar: cooling
Encoding: 57457 57457 89
Width: 1154
VWidth: 1352
Flags: W
HStem: -198 82<291 864> 39 44<504.144 517 657 668.856> 122 110<395 426.828 738.297 778> 268 110<404.162 426.828 738.297 778> 335 82<145 206.094 947 1010> 409 44<504.144 516 657 668.81> 420 63<564.105 609.744>
VStem: 209 82<-116 335> 381 96<132.036 156 344 366.858> 432 45<80.0989 132 369 419.901> 561 3<379.919 387> 610 12<371.446 387> 689 103<136.122 161 339 363.878> 689 45<84.0534 136 364 415.947> 864 82<-116 335>
LayerCount: 2
Fore
SplineSet
579 933 m 0xe932
 600 933 621 925 637 909 c 2
 1137 405 l 1
 1144 398 1149 387 1149 376 c 0
 1149 353 1131 335 1108 335 c 2
 947 335 l 1
 946 -157 l 1
 946 -180 928 -198 905 -198 c 2
 250 -198 l 1
 227 -198 209 -179 209 -157 c 2
 206 335 l 2
 206 336 207 335 206 335 c 2
 46 335 l 1
 23 335 5 353 5 376 c 0
 5 387 10 398 17 405 c 2
 521 910 l 2
 537 926 558 933 579 933 c 0xe932
579 852 m 1
 145 417 l 1
 206 417 l 2
 251 417 288 380 288 335 c 2
 291 -116 l 1
 864 -116 l 1
 865 338 l 2
 865 381 901 417 944 417 c 2
 1010 417 l 1
 579 852 l 1
587 483 m 0xe372
 600 483 610 473 610 460 c 2
 610 438 l 1
 639 451 l 1
 642 452 645 453 648 453 c 0
 657 453 665 447 669 439 c 0
 670 436 671 433 671 430 c 0
 671 421 665 413 657 409 c 2
 610 387 l 1
 610 290 l 1
 694 339 l 1
 689 391 l 0
 689 392 689 392 689 393 c 0
 689 405 697 415 709 416 c 0
 710 416 711 416 712 416 c 0
 720 416 726 412 730 406 c 0
 732 403 734 399 734 395 c 2
 738 364 l 1
 757 375 l 1
 760 377 765 378 769 378 c 0xf576
 778 378 785 374 789 367 c 0
 791 364 792 359 792 355 c 0
 792 346 787 339 780 335 c 2xe93a
 761 324 l 1
 786 305 l 0
 792 301 796 295 796 287 c 0
 796 282 794 277 791 273 c 0
 787 267 781 264 773 264 c 0
 768 264 763 265 759 268 c 2
 717 299 l 1
 633 250 l 1
 717 201 l 1
 759 232 l 1
 763 235 768 236 773 236 c 0
 781 236 787 233 791 227 c 0
 794 223 796 218 796 213 c 0
 796 210 795 207 794 204 c 0
 792 200 789 197 786 195 c 2
 761 176 l 1
 780 165 l 0
 787 161 792 154 792 145 c 0xf13a
 792 141 791 136 789 133 c 0
 785 126 778 122 769 122 c 0
 765 122 760 123 757 125 c 2
 738 136 l 1
 734 105 l 1
 733 93 724 84 712 84 c 0
 711 84 710 84 709 84 c 0
 697 85 689 95 689 107 c 0
 689 108 689 109 689 110 c 2
 694 161 l 1
 610 210 l 1
 610 103 l 1
 657 83 l 0
 665 80 671 72 671 62 c 0
 671 59 670 56 669 53 c 0
 666 45 658 39 648 39 c 0
 645 39 642 40 639 41 c 2
 610 53 l 1
 610 40 l 0
 610 27 600 17 587 17 c 0
 574 17 564 27 564 40 c 2
 564 53 l 1
 534 41 l 1
 531 40 528 39 525 39 c 0
 515 39 507 45 504 53 c 0
 503 56 502 59 502 62 c 0
 502 72 509 80 517 83 c 2
 564 103 l 1
 564 210 l 1
 470 156 l 1
 477 106 l 0
 477 105 477 104 477 103 c 0
 477 91 468 82 457 80 c 0
 456 80 455 80 454 80 c 0
 442 80 434 89 432 100 c 2xf176
 427 132 l 1
 416 125 l 1
 413 123 408 122 404 122 c 0
 395 122 389 126 385 133 c 0
 383 136 381 141 381 145 c 0
 381 154 386 161 393 165 c 2
 404 171 l 1
 379 191 l 0
 374 195 370 202 370 209 c 0
 370 214 372 219 375 223 c 0
 379 228 386 232 393 232 c 0
 398 232 403 230 407 227 c 2
 447 196 l 1
 541 250 l 1
 447 304 l 1
 407 273 l 1
 403 270 398 268 393 268 c 0xf1b2
 386 268 379 272 375 277 c 0
 372 281 370 286 370 291 c 0
 370 298 374 305 379 309 c 2
 404 329 l 1
 393 335 l 0xe9b2
 386 339 382 346 382 355 c 0
 382 359 383 364 385 367 c 0
 389 374 396 378 405 378 c 0
 409 378 413 377 416 375 c 2
 427 369 l 1
 432 400 l 1
 434 411 442 420 454 420 c 0
 455 420 456 420 457 420 c 0xf372
 468 418 477 409 477 397 c 0
 477 396 477 395 477 394 c 2
 470 344 l 1
 564 290 l 1
 564 387 l 1
 516 409 l 0
 508 413 502 421 502 430 c 0
 502 433 503 436 504 439 c 0
 507 446 515 452 523 453 c 0
 524 453 524 453 525 453 c 0xe572
 528 453 532 452 535 451 c 2
 564 438 l 1
 564 460 l 1
 564 473 574 483 587 483 c 0xe372
561 389 m 0
 561 372 574 359 591 359 c 0
 608 359 622 372 622 389 c 0
 622 406 608 420 591 420 c 0xe332
 574 420 561 406 561 389 c 0
EndSplineSet
Validated: 5
EndChar

StartChar: walking
Encoding: 57472 57472 90
Width: 614
VWidth: 1367
Flags: W
HStem: 392.074 80.6719<477.205 604.126>
VStem: 20.3555 122.061<324.767 382.012> 67.2686 122.055<640.873 698.269> 250.764 163.84<718.414 828.855> 373.652 81.9033<-166.458 -2.57422> 481.161 30.6299<-183.53 -166.637> 563.175 30.6318<567.277 584.198>
LayerCount: 2
Fore
SplineSet
127.883789062 650.89453125 m 1
 81.796875 372.142578125 l 1025x86
137.903320312 711.509765625 m 0
 167.025390625 706.6953125 189.323242188 681.427734375 189.323242188 650.94921875 c 0
 189.323242188 647.51953125 189.041992188 644.15234375 188.5 640.873046875 c 2
 188.5 640.873046875 142.471679688 362.0625 142.416015625 362.122070312 c 1
 137.6015625 333 112.333984375 310.701171875 81.8564453125 310.701171875 c 0
 78.4228515625 310.701171875 75.0556640625 310.982421875 71.775390625 311.526367188 c 0
 42.654296875 316.33984375 20.35546875 341.608398438 20.35546875 372.083984375 c 0
 20.35546875 375.517578125 20.6376953125 378.885742188 21.1796875 382.166015625 c 2
 21.1796875 382.166015625 67.2109375 660.973632812 67.2685546875 660.9140625 c 1
 72.08203125 690.03515625 97.3505859375 712.333984375 127.826171875 712.333984375 c 0
 131.258789062 712.333984375 134.625 712.05078125 137.903320312 711.509765625 c 0
580.139648438 584.2421875 m 0
 587.813476562 583.389648438 593.806640625 576.890625 593.806640625 568.9921875 c 0
 593.806640625 568.412109375 593.774414062 567.83984375 593.7109375 567.27734375 c 2
 593.7109375 567.27734375 511.807617188 -170.01953125 511.791015625 -170.002929688 c 1
 510.940429688 -177.67578125 504.440429688 -183.66796875 496.541015625 -183.66796875 c 0
 495.961914062 -183.66796875 495.390625 -183.63671875 494.828125 -183.57421875 c 0
 487.154296875 -182.72265625 481.161132812 -176.224609375 481.161132812 -168.32421875 c 0
 481.161132812 -167.744140625 481.193359375 -167.172851562 481.254882812 -166.610351562 c 2
 481.254882812 -166.610351562 563.16015625 570.686523438 563.174804688 570.668945312 c 1
 564.02734375 578.34375 570.52734375 584.3359375 578.42578125 584.3359375 c 0
 579.005859375 584.3359375 579.577148438 584.303710938 580.139648438 584.2421875 c 0
496.5234375 -168.306640625 m 1
 578.443359375 568.974609375 l 1025
332.68359375 855.693359375 m 0
 377.926757812 855.693359375 414.603515625 819.017578125 414.603515625 773.7734375 c 0
 414.528320312 738.598632812 392.006835938 707.396484375 358.643554688 696.25 c 1
 385.590820312 681.533203125 404.510742188 655.5 410.19140625 625.325195312 c 1
 476.875 493.706054688 l 1
 476.875 493.706054688 498.047851562 495.212890625 595.740234375 472.74609375 c 0
 608.203125 469.87890625 611.435546875 449.0078125 608.157226562 429.203125 c 0
 604.880859375 409.400390625 595.090820312 390.666015625 581.51171875 392.07421875 c 0
 455.563476562 405.134765625 442.483398438 416.584960938 442.483398438 416.584960938 c 1
 442.904296875 418.9765625 l 1
 430.51171875 420.564453125 419.520507812 427.72265625 413.056640625 438.4140625 c 2
 392.35546875 479.26953125 l 1
 364.5234375 310.93359375 l 2
 361.802734375 295.423828125 355.541992188 280.75 346.227539062 268.0546875 c 1
 449.463867188 21.94140625 l 2
 451.453125 17.201171875 452.53125 12.12890625 452.643554688 6.990234375 c 2
 455.555664062 -126.455078125 l 2
 456.049804688 -149.072265625 437.221679688 -172.0078125 414.603515625 -172.499023438 c 0
 391.986328125 -172.9921875 374.142578125 -150.85546875 373.65234375 -128.23828125 c 2
 370.911132812 -2.57421875 l 1
 274.883789062 226.353515625 l 2
 273.64453125 226.166992188 272.400390625 226.002929688 271.155273438 225.862304688 c 2
 165.53125 -20.6015625 l 2
 164.545898438 -22.90234375 163.3515625 -25.10546875 161.962890625 -27.1865234375 c 2
 80.04296875 -150.06640625 l 2
 67.4951171875 -168.888671875 42.0654296875 -173.974609375 23.244140625 -161.42578125 c 0
 4.421875 -148.87890625 -0.6640625 -123.44921875 11.8837890625 -104.626953125 c 2
 91.71484375 15.125 l 1
 193.591796875 252.833007812 l 1
 168.568359375 276.212890625 156.888671875 310.553710938 162.466796875 344.341796875 c 2
 208.55078125 623.09375 l 2
 215.338867188 664.056640625 246.19140625 696.8671875 286.659179688 706.158203125 c 1
 264.251953125 721.375 250.814453125 746.685546875 250.763671875 773.7734375 c 0
 250.763671875 819.017578125 287.440429688 855.693359375 332.68359375 855.693359375 c 0
EndSplineSet
Validated: 43
EndChar

StartChar: cycling
Encoding: 57473 57473 91
Width: 1085
VWidth: 1413
Flags: W
HStem: -117.961 71.6816<148.843 301.477 783.725 936.358> 250.681 71.6787<148.843 279.868> 470.402 71.6797<192.139 225.16 401.146 434.169> 537.4 71.6797<601.739 634.76 728.254 731.461>
VStem: 5 71.6807<25.8823 178.516> 373.642 71.6787<25.8823 201.438> 639.881 71.6797<25.8823 178.516> 1008.52 71.6797<25.8823 178.516>
LayerCount: 2
Fore
SplineSet
373.641601562 102.19921875 m 0xcf
 373.641601562 20.25 307.108398438 -46.279296875 225.16015625 -46.279296875 c 0
 143.2109375 -46.279296875 76.6806640625 20.25 76.6806640625 102.19921875 c 0
 76.6806640625 184.147460938 143.2109375 250.680664062 225.16015625 250.680664062 c 0
 307.108398438 250.680664062 373.641601562 184.147460938 373.641601562 102.19921875 c 0xcf
445.3203125 102.19921875 m 0
 445.3203125 223.708984375 346.668945312 322.359375 225.16015625 322.359375 c 0
 103.650390625 322.359375 5 223.708984375 5 102.19921875 c 0
 5 -19.310546875 103.650390625 -117.9609375 225.16015625 -117.9609375 c 0
 346.668945312 -117.9609375 445.3203125 -19.310546875 445.3203125 102.19921875 c 0
1008.52050781 102.19921875 m 0
 1008.52050781 20.25 941.990234375 -46.279296875 860.041015625 -46.279296875 c 0
 778.09375 -46.279296875 711.560546875 20.25 711.560546875 102.19921875 c 0
 711.560546875 184.147460938 778.09375 250.680664062 860.041015625 250.680664062 c 0
 941.990234375 250.680664062 1008.52050781 184.147460938 1008.52050781 102.19921875 c 0
1080.20019531 102.19921875 m 0
 1080.20019531 223.708984375 981.551757812 322.359375 860.041015625 322.359375 c 0
 738.532226562 322.359375 639.880859375 223.708984375 639.880859375 102.19921875 c 0
 639.880859375 -19.310546875 738.532226562 -117.9609375 860.041015625 -117.9609375 c 0
 981.551757812 -117.9609375 1080.20019531 -19.310546875 1080.20019531 102.19921875 c 0
195.412109375 145.162109375 m 0
 179.538085938 121.58984375 196.401367188 89.548828125 224.889648438 89.3369140625 c 2
 552.83984375 86.8994140625 l 2
 580.140625 86.8994140625 597.37109375 116.390625 584.192382812 140.109375 c 2
 477.235351562 332.600585938 l 1
 798.6015625 332.600585938 l 1
 798.6015625 404.279296875 l 1
 437.40625 404.279296875 l 1
 437.40625 404.279296875 379.392578125 508.689453125 379.348632812 508.767578125 c 2
 316.689453125 473.951171875 l 1
 362.137695312 392.15625 l 1
 360.572265625 390.384765625 360.572265625 390.384765625 195.412109375 145.162109375 c 0
491.670898438 159.03515625 m 1
 292.172851562 160.51953125 l 1
 401.034179688 322.154296875 l 1
 491.670898438 159.03515625 l 1
860.041015625 66.361328125 m 0
 883.088867188 66.361328125 900.135742188 87.8720703125 894.96484375 110.279296875 c 2
 833.641601562 376.009765625 l 1
 792.784179688 580.296875 l 2
 789.502929688 596.703125 775.005859375 609.080078125 757.641601562 609.080078125 c 2
 634.759765625 609.080078125 l 2
 614.98046875 609.080078125 598.920898438 593.020507812 598.920898438 573.240234375 c 0
 598.920898438 553.458984375 614.98046875 537.400390625 634.759765625 537.400390625 c 2
 728.25390625 537.400390625 l 1xdf
 763.559570312 360.87109375 763.559570312 360.87109375 763.676757812 360.361328125 c 2
 825.116210938 94.12109375 l 2
 828.784179688 78.2265625 843.037109375 66.361328125 860.041015625 66.361328125 c 0
225.16015625 542.08203125 m 2xef
 205.380859375 542.08203125 189.3203125 526.0234375 189.3203125 506.2421875 c 0
 189.3203125 486.461914062 205.380859375 470.40234375 225.16015625 470.40234375 c 2
 401.146484375 470.40234375 l 2
 420.927734375 470.40234375 436.987304688 486.461914062 436.987304688 506.2421875 c 0
 436.987304688 526.0234375 420.927734375 542.08203125 401.146484375 542.08203125 c 2
 225.16015625 542.08203125 l 2xef
EndSplineSet
Validated: 37
EndChar

StartChar: ferry
Encoding: 57474 57474 92
Width: 624
VWidth: 1392
Flags: W
HStem: -143.69 80.9707<114.408 242.016> -102.73 122.88<483.544 592.298> 603.054 30.7207<247.229 296.84 327.561 368.044>
VStem: 296.84 30.7207<516.814 603.054 633.774 717.245>
LayerCount: 2
Fore
SplineSet
312.200195312 717.25 m 0x30
 320.682617188 717.25 327.560546875 710.374023438 327.560546875 701.889648438 c 2
 327.560546875 633.774414062 l 1
 352.688476562 633.774414062 l 2
 361.170898438 633.774414062 368.048828125 626.896484375 368.048828125 618.4140625 c 0
 368.048828125 609.930664062 361.170898438 603.053710938 352.688476562 603.053710938 c 2
 327.560546875 603.053710938 l 1
 327.560546875 534.938476562 l 2
 327.560546875 531.484375 326.376953125 524.055664062 324.452148438 516.458007812 c 1
 481.008789062 477.318359375 l 2
 488.6875 475.3984375 494.571289062 469.2265625 496.124023438 461.465820312 c 2
 537.083984375 256.666015625 l 2
 537.666015625 253.755859375 537.53515625 250.90625 536.936523438 248.21875 c 1
 590.728515625 248.21875 l 2
 593.286132812 248.21875 605.4453125 246.915039062 607.112304688 248.21875 c 1
 610.077148438 194.33984375 609.1796875 127.838867188 598.919921875 84.37890625 c 0
 595.881835938 71.50390625 591.5 58.73828125 585.956054688 46.501953125 c 1
 570.220703125 57.18359375 551.896484375 67.02734375 537.479492188 66.7138671875 c 0
 456.91015625 64.96484375 412.26953125 -49.1171875 332.6796875 -61.7705078125 c 0
 277.084960938 -70.609375 224.798828125 -14.6669921875 168.83984375 -20.810546875 c 0
 152.111328125 -22.6455078125 132.154296875 -29.775390625 112.024414062 -39.021484375 c 1
 94.193359375 -25.0859375 78.3583984375 -11.04296875 66.4404296875 2.458984375 c 0
 46.2353515625 25.345703125 32.494140625 54.666015625 25.48046875 84.37890625 c 0
 15.220703125 127.838867188 16.2109375 196.360351562 19.1767578125 250.23828125 c 1
 20.8427734375 248.934570312 22.9462890625 247.87109375 25.48046875 248.21875 c 2
 87.3154296875 256.666015625 l 1
 86.716796875 259.354492188 86.734375 253.755859375 87.3154296875 256.666015625 c 1
 128.275390625 461.465820312 l 2
 129.828125 469.2265625 135.713867188 475.3984375 143.392578125 477.318359375 c 2
 299.948242188 516.458007812 l 1
 298.024414062 524.055664062 296.83984375 531.484375 296.83984375 534.938476562 c 2
 296.83984375 603.053710938 l 1
 262.583984375 603.053710938 l 2
 254.1015625 603.053710938 247.223632812 609.930664062 247.223632812 618.4140625 c 0
 247.223632812 626.896484375 254.1015625 633.774414062 262.583984375 633.774414062 c 2
 296.83984375 633.774414062 l 1
 296.83984375 701.889648438 l 2
 296.83984375 710.374023438 303.716796875 717.25 312.200195312 717.25 c 0x30
312.200195312 477.297851562 m 1
 165.900390625 440.7265625 l 1
 148.360351562 334.569335938 l 1
 476.040039062 334.569335938 l 1
 458.5 440.7265625 l 1
 312.200195312 477.297851562 l 1
312.200195312 701.887695312 m 0
 312.200195312 618.110351562 312.200195312 465.854492188 312.200195312 534.938476562 c 1024
262.583984375 618.4140625 m 1
 352.689453125 618.4140625 l 1025
5 -143.690429688 m 1xb0
 5 -143.690429688 83.1513671875 -76.783203125 131.076171875 -62.7197265625 c 0
 149.801757812 -57.2236328125 170.447265625 -59.095703125 189.625 -62.7197265625 c 0xb0
 225.541015625 -69.505859375 255.265625 -100.059570312 291.719726562 -102.73046875 c 0
 319.671875 -104.778320312 348.297851562 -95.7587890625 373.639648438 -83.7880859375 c 0
 404.784179688 -69.0751953125 426.370117188 -39.091796875 455.559570312 -20.810546875 c 0
 481.434570312 -4.6044921875 506.951171875 20.1494140625 537.479492188 20.1494140625 c 0x70
 568.009765625 20.1494140625 624.041992188 -6.6103515625 619.399414062 -20.810546875 c 2
 619.399414062 -143.690429688 l 1xb0
 619.399414062 -143.690429688 568.009765625 -102.73046875 537.479492188 -102.73046875 c 0x70
 506.951171875 -102.73046875 455.559570312 -143.690429688 455.559570312 -143.690429688 c 1
 5 -143.690429688 l 1xb0
EndSplineSet
Validated: 35
EndChar

StartChar: rower
Encoding: 57475 57475 93
Width: 972
VWidth: 1414
Flags: W
HStem: -237.976 67.585<276.638 365.654 606.968 695.912> -145.9 67.584<443.093 529.528> -109.749 6.5918<464.19 508.03> -41.7178 248.08<419.336 553.02>
VStem: 369.807 163.84<584.764 695.204>
LayerCount: 2
Fore
SplineSet
156.522460938 -104.876953125 m 0x98
 153.759765625 -104.698242188 149.10546875 -105.375 143.671875 -106.46484375 c 1
 150.47265625 -106.602539062 158.7578125 -106.734375 166.435546875 -106.880859375 c 1
 163.032226562 -105.857421875 159.704101562 -105.08203125 156.522460938 -104.876953125 c 0x98
486.177734375 -103.157226562 m 2xb8
 492.966796875 -103.157226562 500.35546875 -105.55078125 508.407226562 -109.677734375 c 1
 493.419921875 -109.728515625 478.6015625 -109.750976562 463.810546875 -109.749023438 c 1
 471.915039062 -105.579101562 479.3515625 -103.157226562 486.177734375 -103.157226562 c 2xb8
936.87109375 263.69921875 m 1
 936.87109375 263.69921875 915.21484375 57.0009765625 850.670898438 -46.8486328125 c 1
 838.017578125 -44.068359375 824.935546875 -42.580078125 811.55078125 -43.587890625 c 0
 768.693359375 -46.818359375 738.650390625 -72.974609375 713.1796875 -92.724609375 c 0
 706.140625 -98.1826171875 700.48828125 -104.950195312 693.275390625 -107.352539062 c 0
 650.151367188 -121.712890625 650.151367188 -121.42578125 611.521484375 -108.749023438 c 0
 602.880859375 -105.913085938 596.115234375 -97.39453125 587.509765625 -90.380859375 c 0
 561.869140625 -69.4775390625 530.7734375 -41.7177734375 486.177734375 -41.7177734375 c 0
 441.58203125 -41.7177734375 410.486328125 -69.4775390625 384.845703125 -90.380859375 c 0
 375.90625 -97.669921875 367.659179688 -104.053710938 359.951171875 -109.376953125 c 0
 322.470703125 -124.024414062 322.470703125 -125.838867188 281.2578125 -108.6328125 c 0
 273.586914062 -105.4296875 267.087890625 -98.619140625 259.24609375 -92.5126953125 c 0
 233.74609375 -72.6533203125 203.561523438 -46.3408203125 160.474609375 -43.564453125 c 0
 128.185546875 -41.484375 98.017578125 -53.654296875 71.7265625 -65.068359375 c 1
 35.75 222.739257812 l 1
 59.52734375 220.655273438 249.044921875 206.368164062 332.110351562 206.362304688 c 0
 430.09765625 203.657226562 539.767578125 203.599609375 642.170898438 210.018554688 c 1
 640.57421875 194.646484375 l 2
 634.435546875 185.467773438 627.727539062 176.68359375 621.786132812 167.3671875 c 0
 613.984375 155.434570312 606.65625 142.88671875 602.90234375 129.02734375 c 0
 601.359375 122.813476562 601.66796875 116.356445312 600.487304688 110.086914062 c 0
 598.524414062 97.521484375 595.940429688 85.0634765625 593.923828125 72.5068359375 c 0
 589.788085938 48.111328125 586.462890625 23.3466796875 587.88671875 -1.44921875 c 0
 588.791992188 -15.1201171875 592.224609375 -28.8564453125 599.57421875 -40.541015625 c 0
 607.12109375 -52.9033203125 618.908203125 -63.16015625 633.115234375 -66.8525390625 c 0
 648.322265625 -71.0390625 664.8359375 -68.1171875 678.622070312 -60.8203125 c 0
 686.119140625 -56.970703125 692.5390625 -51.0673828125 696.8671875 -43.8251953125 c 0
 703.9609375 -32.66796875 708.248046875 -20.0419921875 712.275390625 -7.5322265625 c 0
 719.40625 15.498046875 724.096679688 39.1943359375 728.374023438 62.8955078125 c 0
 731.134765625 78.7861328125 733.626953125 94.740234375 735.302734375 110.783203125 c 0
 736.4765625 130.706054688 731.122070312 150.358398438 723.943359375 168.762695312 c 0
 720.900390625 176.522460938 717.293945312 184.041015625 714.030273438 191.70703125 c 2
 715.541992188 215.822265625 l 1
 735.264648438 217.819335938 754.509765625 220.09375 773.03125 222.739257812 c 0
 803.25390625 227.056640625 936.87109375 263.69921875 936.87109375 263.69921875 c 1
486.310546875 -78.31640625 m 0xd8
 530.90625 -78.31640625 562.002929688 -108.854492188 587.642578125 -131.84765625 c 0
 613.283203125 -154.83984375 633.521484375 -170.311523438 650.283203125 -170.390625 c 0
 667.76953125 -170.474609375 687.838867188 -156.151367188 713.310546875 -134.42578125 c 0
 738.783203125 -112.701171875 768.826171875 -83.9267578125 811.682617188 -80.3759765625 c 0
 844.751953125 -77.6357421875 876.129882812 -91.2099609375 903.146484375 -103.34765625 c 0
 930.1640625 -115.487304688 951.4296875 -128.102539062 951.4296875 -128.102539062 c 2
 961.06640625 -133.807617188 967.5703125 -145.022460938 967.5703125 -157.892578125 c 0
 967.5703125 -163.672851562 966.248046875 -169.116210938 963.919921875 -173.875976562 c 0
 958.73046875 -184.47265625 948.5390625 -191.625 936.838867188 -191.625 c 0
 931.5859375 -191.625 926.637695312 -190.170898438 922.310546875 -187.608398438 c 2
 922.310546875 -187.608398438 903.604492188 -176.5546875 879.915039062 -165.911132812 c 0
 856.225585938 -155.26953125 826.162109375 -146.94921875 816.298828125 -147.766601562 c 0
 798.26953125 -149.260742188 776.919921875 -165.690429688 750.958984375 -187.833007812 c 0
 724.998046875 -209.975585938 693.591796875 -238.182617188 650.017578125 -237.975585938 c 0
 605.453125 -237.763671875 574.435546875 -207.19921875 548.819335938 -184.229492188 c 0
 523.203125 -161.258789062 503.04296875 -145.900390625 486.310546875 -145.900390625 c 0
 469.578125 -145.900390625 449.41796875 -161.258789062 423.802734375 -184.229492188 c 0
 398.186523438 -207.19921875 367.16796875 -237.763671875 322.6015625 -237.975585938 c 0
 278.918945312 -238.18359375 247.547851562 -209.720703125 221.626953125 -187.516601562 c 0
 195.705078125 -165.3125 174.501953125 -149.056640625 156.654296875 -147.79296875 c 0
 146.93359375 -147.104492188 116.869140625 -156.084960938 93.2470703125 -167.421875 c 0
 69.625 -178.7578125 51.01171875 -190.450195312 51.01171875 -190.450195312 c 2
 46.521484375 -193.27734375 41.3095703125 -194.950195312 35.771484375 -194.950195312 c 0
 24.35546875 -194.950195312 14.38671875 -188.087890625 9.08984375 -177.911132812 c 0
 6.521484375 -172.971679688 5 -167.240234375 5 -161.146484375 c 0
 5 -148.590820312 11.2392578125 -137.624023438 20.4912109375 -131.799804688 c 2
 20.4912109375 -131.799804688 41.677734375 -118.4296875 68.673828125 -105.473632812 c 0
 95.6728515625 -92.5166015625 127.046875 -77.970703125 160.606445312 -80.349609375 c 0
 203.693359375 -83.40234375 233.877929688 -112.34765625 259.37890625 -134.193359375 c 0
 284.87890625 -156.037109375 304.963867188 -170.474609375 322.337890625 -170.390625 c 0
 339.100585938 -170.311523438 359.338867188 -154.83984375 384.978515625 -131.84765625 c 0
 410.619140625 -108.854492188 441.715820312 -78.31640625 486.310546875 -78.31640625 c 0xd8
699.182617188 450.591796875 m 0
 707.615234375 449.655273438 713.69140625 442.060546875 712.75390625 433.626953125 c 2
 697.486328125 189.563476562 l 2
 697.01953125 185.346679688 723.12109375 143.73046875 718.5859375 107.643554688 c 0
 713.438476562 66.68359375 697.650390625 -28.8515625 675.23828125 -43.75390625 c 0
 656.526367188 -56.197265625 624.458984375 -59.7734375 608.998046875 -23.0205078125 c 0
 593.53515625 13.7314453125 617.94140625 100.57421875 617.94140625 118.600585938 c 0
 617.94140625 140.819335938 656.057617188 185.346679688 656.526367188 189.563476562 c 2
 682.21875 437.01953125 l 2
 683.154296875 445.451171875 690.75 451.529296875 699.182617188 450.591796875 c 0
451.7265625 722.04296875 m 0
 496.969726562 722.04296875 533.646484375 685.366210938 533.646484375 640.123046875 c 0
 533.572265625 604.948242188 511.049804688 573.745117188 477.686523438 562.599609375 c 1
 504.633789062 547.881835938 523.553710938 521.848632812 529.234375 491.674804688 c 1
 595.91796875 360.055664062 l 1
 595.91796875 360.055664062 617.091796875 361.564453125 714.783203125 339.094726562 c 0
 727.24609375 336.228515625 730.478515625 315.357421875 727.201171875 295.553710938 c 0
 723.923828125 275.749023438 714.134765625 257.015625 700.5546875 258.422851562 c 0
 644.111328125 262.315429688 571.24609375 255.978515625 532.09765625 304.763671875 c 1
 511.3984375 345.619140625 l 1
 511.3984375 345.619140625 507.759765625 232.309570312 487.767578125 222.739257812 c 0
 453.54296875 214.546875 281.509765625 222.739257812 281.509765625 222.739257812 c 2
 251.99609375 223.911132812 327.59375 489.443359375 327.59375 489.443359375 c 2
 334.3828125 530.40625 365.233398438 563.215820312 405.703125 572.5078125 c 1
 383.294921875 587.725585938 369.857421875 613.03515625 369.806640625 640.123046875 c 0
 369.806640625 685.366210938 406.483398438 722.04296875 451.7265625 722.04296875 c 0
EndSplineSet
Validated: 37
EndChar

StartChar: globe
Encoding: 57488 57488 94
Width: 747
Flags: W
HStem: -1.44043 27.1152<329.388 466.428> 194.427 27.3037<52.1025 687.281 687.736 695.178> 353.354 27.3066<11.1182 736.162> 517.194 218.454<170.208 577.072> 708.034 27.292<329.103 466.428>
VStem: 5 27.3066<316.49 417.527> 86.9443 27.3037<259.036 474.33> 238.014 27.3066<223.229 514.167> 344.275 34.0703<-1.36988 25.8662 708.982 724.511> 349.874 20.2256<709.377 721.68 722.163 735.322> 457.302 27.3066<223.168 514.108> 605.726 27.3037<259.036 474.33> 714.974 27.3066<316.49 417.527>
LayerCount: 2
Fore
SplineSet
373.639648438 735.6484375 m 0xf738
 577.072265625 735.6484375 742.280273438 570.440429688 742.280273438 367.0078125 c 0
 742.280273438 163.575195312 577.072265625 -1.6318359375 373.639648438 -1.6318359375 c 0
 170.208007812 -1.6318359375 5 163.575195312 5 367.0078125 c 0
 5 570.440429688 170.208007812 735.6484375 373.639648438 735.6484375 c 0xf738
373.639648438 708.341796875 m 0
 184.96484375 708.341796875 32.306640625 555.682617188 32.306640625 367.0078125 c 0
 32.306640625 178.333007812 184.96484375 25.6748046875 373.639648438 25.6748046875 c 0
 562.314453125 25.6748046875 714.973632812 178.333007812 714.973632812 367.0078125 c 0
 714.973632812 555.682617188 562.314453125 708.341796875 373.639648438 708.341796875 c 0
341.215820312 10.4609375 m 0
 341.215820312 17.9970703125 347.333984375 24.1142578125 354.869140625 24.1142578125 c 0
 365.133789062 24.1142578125 376.590820312 30.5419921875 388.909179688 46.3896484375 c 0
 401.228515625 62.2373046875 413.2890625 86.7021484375 423.456054688 117.51953125 c 0
 443.790039062 179.155273438 456.889648438 266.041015625 457.301757812 362.38671875 c 0
 457.712890625 458.732421875 445.369140625 546.659179688 425.530273438 610.03515625 c 0
 415.611328125 641.72265625 403.747070312 667.243164062 391.423828125 684.27734375 c 0
 379.100585938 701.311523438 367.127929688 708.990234375 356.818359375 709.821289062 c 0
 349.801757812 710.38671875 344.275390625 716.268554688 344.275390625 723.4296875 c 0xe7b8
 344.275390625 723.803710938 344.27734375 724.162109375 344.306640625 724.528320312 c 0
 344.872070312 731.544921875 350.75390625 737.071289062 357.915039062 737.071289062 c 0
 358.2890625 737.071289062 358.647460938 737.069335938 359.013671875 737.040039062 c 0
 380.455078125 735.310546875 398.59375 720.955078125 413.549804688 700.282226562 c 0
 428.504882812 679.610351562 441.084960938 651.755859375 451.591796875 618.192382812 c 0
 472.60546875 551.064453125 485.030273438 460.997070312 484.608398438 362.26953125 c 0
 484.185546875 263.541992188 471.005859375 174.495117188 449.38671875 108.965820312 c 0
 438.577148438 76.2001953125 425.741210938 49.2763671875 410.469726562 29.62890625 c 0
 395.197265625 9.982421875 376.3671875 -3.1923828125 354.869140625 -3.1923828125 c 0
 347.333984375 -3.1923828125 341.215820312 2.92578125 341.215820312 10.4609375 c 0
381.405273438 10.5224609375 m 0
 381.405273438 2.9873046875 375.287109375 -3.130859375 367.751953125 -3.130859375 c 0
 346.254882812 -3.130859375 327.423828125 10.0439453125 312.15234375 29.6904296875 c 0
 296.879882812 49.337890625 284.043945312 76.26171875 273.234375 109.026367188 c 0
 251.615234375 174.555664062 238.435546875 263.603515625 238.013671875 362.331054688 c 0
 237.591796875 461.05859375 250.015625 551.125976562 271.029296875 618.252929688 c 0
 281.536132812 651.817382812 294.119140625 679.671875 309.07421875 700.34375 c 0
 324.030273438 721.016601562 342.166015625 735.372070312 363.608398438 737.1015625 c 0
 363.974609375 737.130859375 364.33203125 737.1328125 364.706054688 737.1328125 c 0
 371.8671875 737.1328125 377.749023438 731.606445312 378.314453125 724.588867188 c 0
 378.34375 724.22265625 378.345703125 723.865234375 378.345703125 723.491210938 c 0
 378.345703125 716.330078125 372.8203125 710.448242188 365.802734375 709.8828125 c 0
 355.493164062 709.051757812 343.520507812 701.373046875 331.197265625 684.338867188 c 0
 318.874023438 667.3046875 307.009765625 641.78125 297.090820312 610.09375 c 0
 277.251953125 546.717773438 264.908203125 458.79296875 265.3203125 362.448242188 c 0
 265.731445312 266.102539062 278.831054688 179.216796875 299.165039062 117.581054688 c 0
 309.33203125 86.763671875 321.393554688 62.298828125 333.711914062 46.4501953125 c 0
 346.03125 30.6025390625 357.48828125 24.17578125 367.751953125 24.17578125 c 0
 375.287109375 24.17578125 381.405273438 18.05859375 381.405273438 10.5224609375 c 0
342.967773438 12.212890625 m 0
 342.967773438 19.7490234375 349.0859375 25.8662109375 356.62109375 25.8662109375 c 0
 423.57421875 25.8662109375 484.795898438 62.0615234375 530.291015625 122.685546875 c 0
 575.78515625 183.309570312 604.807617188 268.137695312 605.725585938 362.485351562 c 0
 606.642578125 456.833007812 579.27734375 542.702148438 534.93359375 604.978515625 c 0
 490.58984375 667.254882812 429.96875 705.662109375 363.034179688 708.034179688 c 0
 355.7265625 708.293945312 349.874023438 714.30859375 349.874023438 721.6796875 c 0
 349.874023438 721.84375 349.869140625 722 349.875 722.163085938 c 0
 350.1328125 729.471679688 356.147460938 735.326171875 363.51953125 735.326171875 c 0xef78
 363.68359375 735.326171875 363.83984375 735.331054688 364.002929688 735.325195312 c 0
 440.801757812 732.602539062 509.0546875 688.400390625 557.178710938 620.81640625 c 0
 605.301757812 553.231445312 633.999023438 461.985351562 633.029296875 362.21875 c 0
 632.059570312 262.452148438 601.596679688 172.211914062 552.130859375 106.295898438 c 0
 502.665039062 40.3798828125 433.451171875 -1.4404296875 356.62109375 -1.4404296875 c 0
 349.0859375 -1.4404296875 342.967773438 4.677734375 342.967773438 12.212890625 c 0
377.004882812 12.212890625 m 0
 377.004882812 4.677734375 370.887695312 -1.4404296875 363.3515625 -1.4404296875 c 0
 286.521484375 -1.4404296875 217.30859375 40.3798828125 167.842773438 106.295898438 c 0
 118.376953125 172.211914062 87.9140625 262.452148438 86.9443359375 362.21875 c 0
 85.9736328125 461.985351562 114.670898438 553.231445312 162.794921875 620.81640625 c 0
 210.91796875 688.400390625 279.170898438 732.602539062 355.970703125 735.325195312 c 0
 356.133789062 735.331054688 356.290039062 735.326171875 356.454101562 735.326171875 c 0
 363.825195312 735.326171875 369.840820312 729.471679688 370.098632812 722.163085938 c 0
 370.104492188 722 370.099609375 721.84375 370.099609375 721.6796875 c 0
 370.099609375 714.30859375 364.24609375 708.293945312 356.938476562 708.034179688 c 0
 290.004882812 705.662109375 229.383789062 667.254882812 185.040039062 604.978515625 c 0
 140.696289062 542.702148438 113.331054688 456.833007812 114.248046875 362.485351562 c 0
 115.165039062 268.137695312 144.188476562 183.309570312 189.682617188 122.685546875 c 0
 235.176757812 62.0615234375 296.399414062 25.8662109375 363.3515625 25.8662109375 c 0
 370.887695312 25.8662109375 377.004882812 19.7490234375 377.004882812 12.212890625 c 0
18.6533203125 380.661132812 m 2
 728.626953125 380.661132812 l 2
 736.162109375 380.661132812 742.280273438 374.543945312 742.280273438 367.0078125 c 0
 742.280273438 359.47265625 736.162109375 353.354492188 728.626953125 353.354492188 c 2
 18.6533203125 353.354492188 l 2
 11.1181640625 353.354492188 5 359.47265625 5 367.0078125 c 0
 5 374.543945312 11.1181640625 380.661132812 18.6533203125 380.661132812 c 2
73.2666015625 544.500976562 m 2
 674.013671875 544.500976562 l 2
 681.548828125 544.500976562 687.666992188 538.383789062 687.666992188 530.84765625 c 0
 687.666992188 523.3125 681.548828125 517.194335938 674.013671875 517.194335938 c 2
 73.2666015625 517.194335938 l 2xf738
 65.7314453125 517.194335938 59.61328125 523.3125 59.61328125 530.84765625 c 0
 59.61328125 538.383789062 65.7314453125 544.500976562 73.2666015625 544.500976562 c 2
687.59765625 221.73046875 m 2
 687.62109375 221.73046875 687.643554688 221.729492188 687.666992188 221.729492188 c 0
 695.177734375 221.729492188 701.280273438 215.651367188 701.3203125 208.149414062 c 0
 701.3203125 208.125976562 701.318359375 208.103515625 701.318359375 208.080078125 c 0
 701.318359375 200.567382812 695.239257812 194.46484375 687.736328125 194.426757812 c 2
 687.736328125 194.426757812 59.68359375 191.1796875 59.6826171875 191.178710938 c 0
 59.6591796875 191.178710938 59.63671875 191.1796875 59.61328125 191.1796875 c 0
 52.1025390625 191.1796875 45.9990234375 197.2578125 45.9599609375 204.759765625 c 0
 45.9599609375 204.784179688 45.9609375 204.807617188 45.9609375 204.83203125 c 0
 45.9609375 212.34375 52.041015625 218.447265625 59.5439453125 218.485351562 c 2
 687.59765625 221.73046875 l 2
EndSplineSet
Validated: 37
EndChar

StartChar: information
Encoding: 57489 57489 95
Width: 747
Flags: W
HStem: -0.200195 47.9492<255.459 491.821> 440.966 107.479<327.782 429.01> 689.131 47.9492<331.876 424.787>
LayerCount: 2
Fore
SplineSet
373.639648438 737.080078125 m 0
 577.09765625 737.080078125 742.280273438 571.897460938 742.280273438 368.440429688 c 0
 742.280273438 164.982421875 577.09765625 -0.2001953125 373.639648438 -0.2001953125 c 0
 170.181640625 -0.2001953125 5 164.982421875 5 368.440429688 c 0
 5 571.897460938 170.181640625 737.080078125 373.639648438 737.080078125 c 0
378.0078125 689.130859375 m 0
 340.434570312 689.130859375 308.104492188 656.796875 308.104492188 618.349609375 c 0
 308.104492188 580.775390625 340.434570312 548.4453125 378.0078125 548.4453125 c 0
 416.456054688 548.4453125 448.787109375 580.775390625 448.787109375 618.349609375 c 0
 448.787109375 656.796875 416.456054688 689.130859375 378.0078125 689.130859375 c 0
249.557617188 440.965820312 m 1
 249.557617188 414.751953125 l 1
 320.338867188 414.751953125 l 1
 320.338867188 73.96484375 l 1
 249.557617188 73.96484375 l 1
 249.557617188 47.7490234375 l 1
 497.72265625 47.7490234375 l 1
 497.72265625 73.96484375 l 1
 440.922851562 73.96484375 l 1
 440.922851562 440.965820312 l 1
 249.557617188 440.965820312 l 1
EndSplineSet
Validated: 1
EndChar

StartChar: question
Encoding: 57490 57490 96
Width: 747
Flags: W
HStem: -0.200195 97.958<290.387 456.892> 191.846 48.4688<293.024 446.552> 639.123 97.957<247.236 499.99>
VStem: 5 183.784<499.773 572.034> 626.686 115.595<266.643 519.613>
LayerCount: 2
Fore
SplineSet
373.639648438 737.080078125 m 0
 577.234375 737.080078125 742.280273438 572.034179688 742.280273438 368.440429688 c 0
 742.280273438 164.845703125 577.234375 -0.2001953125 373.639648438 -0.2001953125 c 0
 170.045898438 -0.2001953125 5 164.845703125 5 368.440429688 c 0
 5 572.034179688 170.045898438 737.080078125 373.639648438 737.080078125 c 0
392.469726562 639.123046875 m 0
 352.633789062 639.123046875 313.37890625 635.559570312 274.70703125 628.431640625 c 0
 236.034179688 621.541992188 207.393554688 614.889648438 188.784179688 608.474609375 c 1
 188.784179688 499.7734375 l 1
 206.229492188 499.7734375 l 1
 228.037109375 511.416015625 252.025390625 520.919921875 278.194335938 528.28515625 c 0
 304.655273438 535.650390625 328.352539062 539.333007812 349.288085938 539.333007812 c 0
 383.30859375 539.333007812 409.625 534.224609375 428.234375 524.0078125 c 0
 447.134765625 514.029296875 456.583984375 497.16015625 456.583984375 473.400390625 c 0
 456.583984375 457.48046875 451.640625 443.224609375 441.754882812 430.631835938 c 0
 432.159179688 418.0390625 418.782226562 406.989257812 401.626953125 397.485351562 c 0
 383.30859375 386.79296875 365.717773438 379.072265625 348.853515625 374.3203125 c 0
 332.279296875 369.568359375 313.668945312 364.935546875 293.024414062 360.420898438 c 1
 293.024414062 240.314453125 l 1
 446.551757812 240.314453125 l 1
 446.551757812 321.573242188 l 1
 474.174804688 330.364257812 498.890625 340.10546875 520.698242188 350.796875 c 0
 542.796875 361.489257812 561.698242188 373.609375 577.400390625 387.15234375 c 0
 593.1015625 400.6953125 605.16796875 416.614257812 613.599609375 434.909179688 c 0
 622.323242188 453.442382812 626.685546875 474.70703125 626.685546875 498.704101562 c 0
 626.685546875 540.521484375 605.604492188 574.37890625 563.442382812 600.27734375 c 0
 521.28125 626.17578125 464.290039062 639.123046875 392.469726562 639.123046875 c 0
282.557617188 191.845703125 m 1
 282.557617188 97.7578125 l 1
 458.765625 97.7578125 l 1
 458.765625 191.845703125 l 1
 282.557617188 191.845703125 l 1
EndSplineSet
Validated: 524289
EndChar
